<mxfile host="app.diagrams.net" modified="2020-09-26T04:44:01.038Z" agent="5.0 (Windows NT 10.0; Win64; x64) AppleWebKit/537.36 (KHTML, like Gecko) Chrome/85.0.4183.121 Safari/537.36" etag="9WckYKfGvDpf6MqZfIcl" version="13.7.5" type="github" pages="3">
  <diagram id="8xFWuWoWZXZODXvIvCIx" name="Page-1">
    <mxGraphModel dx="3671" dy="2595" grid="1" gridSize="10" guides="1" tooltips="1" connect="1" arrows="1" fold="1" page="1" pageScale="1" pageWidth="827" pageHeight="1169" math="0" shadow="0">
      <root>
        <mxCell id="0" />
        <mxCell id="1" parent="0" />
        <mxCell id="3UB9JmVMNoAn3cH7Qgsq-1" value="" style="rounded=1;whiteSpace=wrap;html=1;strokeWidth=2;fillWeight=4;hachureGap=8;hachureAngle=45;sketch=1;labelBackgroundColor=#ffffff;arcSize=0;fontColor=#FFFF33;fillColor=#E6E6E6;" vertex="1" parent="1">
          <mxGeometry x="103.09" y="20" width="776.91" height="144.64" as="geometry" />
        </mxCell>
        <mxCell id="3UB9JmVMNoAn3cH7Qgsq-2" value="" style="rounded=0;whiteSpace=wrap;html=1;direction=west;" vertex="1" parent="1">
          <mxGeometry x="103.09" y="164.63611859838275" width="776.9100000000001" height="1097.035040431267" as="geometry" />
        </mxCell>
        <mxCell id="3UB9JmVMNoAn3cH7Qgsq-3" value="" style="rounded=1;whiteSpace=wrap;html=1;strokeWidth=2;fillWeight=4;hachureGap=8;hachureAngle=45;fillColor=#1ba1e2;sketch=1;labelBackgroundColor=#ffffff;arcSize=0;" vertex="1" parent="1">
          <mxGeometry x="103.09" y="218.49056603773585" width="776.9100000000001" height="289.21832884097034" as="geometry" />
        </mxCell>
        <mxCell id="3UB9JmVMNoAn3cH7Qgsq-4" value="" style="triangle;whiteSpace=wrap;html=1;rotation=-180;" vertex="1" parent="1">
          <mxGeometry x="108.73964460772055" y="314.2318059299191" width="33.913976785296285" height="79.78436657681941" as="geometry" />
        </mxCell>
        <mxCell id="3UB9JmVMNoAn3cH7Qgsq-5" value="" style="triangle;whiteSpace=wrap;html=1;" vertex="1" parent="1">
          <mxGeometry x="827.0802773536324" y="323.20754716981133" width="33.913976785296285" height="79.78436657681941" as="geometry" />
        </mxCell>
        <mxCell id="3UB9JmVMNoAn3cH7Qgsq-6" value="IMG" style="text;html=1;strokeColor=none;fillColor=none;align=center;verticalAlign=middle;whiteSpace=wrap;rounded=0;labelBackgroundColor=#ffffff;sketch=0;" vertex="1" parent="1">
          <mxGeometry x="480.24373246924654" y="353.12668463611857" width="22.609317856864187" height="19.946091644204852" as="geometry" />
        </mxCell>
        <mxCell id="3UB9JmVMNoAn3cH7Qgsq-7" value="" style="shape=image;verticalLabelPosition=bottom;labelBackgroundColor=#ffffff;verticalAlign=top;aspect=fixed;imageAspect=0;image=data:image/png,iVBORw0KGgoAAAANSUhEUgAAAOEAAADhCAMAAAAJbSJIAAAAhFBMVEX///8AAAATExNcXFzn5+fAwMBwcHBHR0fd3d3V1dX8/Pzz8/M6OjpDQ0Otra2FhYXv7+8uLi7Kysq3t7d7e3vj4+OdnZ2ysrKLi4tiYmLHx8fX19ccHBybm5uqqqokJCRRUVE0NDSKiopsbGwoKCiAgIAXFxcNDQ0eHh5WVlaTk5NgYGDDl8T0AAAJb0lEQVR4nO2daVvqPBCGBVlbFxYRQUFwQ/H//7/z8h6P5knTZibNJK1X7o9K2jxtJ8tkMjk7SyQSiUQikUgkEglP5P0rK/NR7Fq6Mxl0SLzNY9fUkcU7TeB/vMauqxt7ssBO5zZ2ZV24YgjsHPLY1XVgx1HYWcaurgMHlsJB7Oo6wFPYiV1dBy55ClvYK97yFG5j15dPzlP4Ebu+DsxYCrtZ7Po6MBpyJI5jV9eJ+9vrCp4eVIWb2JWV4FlVeB67NhLMVYWHSezqCLD4BYZoAcY9x9i1keBGVbiLXRsJwBA7bZxB2cBxTz92dSS4UBXexa6NBE+qwsfYtZFgDZ/pb+wRJ7/fEMGbcxO7NhLcqQr3sWsjAU4iF7GrI0AOA7e2uvcrgVlyG32KVsBhNW2jK8PG+Ncb4hkobKFP0c4nSOy2gLfhhjX62nbaCOdjW9gv10QYK54Zfam4UfToEomr/U3jia6QtVjcHKZ0hS01RM6K54X9ag2E45FopyGuGArn9ss1EE6P2ItdWSdYy/KPsWvrAG9F9zp2dR145gg860PZUY/OSC24XxBKTKDlnjHuhcbEmwVlUJbjU4RlgQtSEYiC4cxHcSbLjI6Bu14zCqJCkmlcutZzA98L0xsBPsUHRsGQCsG1yzND3afIWGULqHDyphbkegVxlY1ROqDCmp7dc7U0w6cYUCFY0ju93BdHtfgLvVxAhTVXWFxb4nAKnQ3pX3kIj6IHDIdTiKMSh5CDD7U8vSkOpxBWq10WydC5T35E4RS+qMUYPppvHJ37wRSiGa6pxVTgCmRnZDCFHiJ/VuoVyIYYTKGH6C107lNLBVMIZugW+IOzL2qcYiiFI6faaYArg2qIoRQu1UJvjnE/8KUPiYVCzYAhmnlHLKQDj6mz7pOAJm5KKbHeq0W2tNv0py4fmE57fIrOwcytce67CkRDbDDuu3v69os3AvdoirYYYo2ImH3supM4uAvEKVhjqROZ1g5DvKqhMLNfvgEwYjCKtKFHpA1+yzjabxCdegGivF2ncagXbY/OkOHADoz53wgFBgPwW64IBTB1Qs34ULZzHxon2uwJgpIpzQbYDiNOyAgs0XUJBULMgOEd1s3Ccg8fxL29QACFfje95ODKIAxxAyjEcUjtQHQwRELUUQCFEChS1ww1n+Kj3fEaQCF8VvV38nINUV4hmuGMcodq4Hr2JATyCr1v5IUu3G6I8gohcNJHVgT0KVqrLK+wq/7cx4Z6pnNfXKEXdz7CywYirhC+qXcv++lfoc62X4srhEU/P1mCsO2y1VlaYQbufD+7stAQbcvJ0goFzFCrgW0tUlohpvOiCbDCMkRphWCGnOj8KjAJgWWKKqwQvX91/IgqLEMUnuOjGXrb4Ao+xcdhJfBCDtW//QI2j19W/xZa0jrufATCHBuEv4wPa/vNouAxAWlsKSXUcucjzKyZgbj0mCtgY79dBHwmXhnbbxcBn8lzmrnK5tEMtbFSQ6ANJ6gw09cGwSUsuJyR/YbB8ZvDKn+x3zE0nvPKNM8Q/ZqhloTgYTwqBTqWffnvfujBwL6/KP8l7OTynZgTnfsVkzjB+FLv7nyE+vwEZ8CYzMJ7eieqL11QIawvfHIFWEHnfrkjVlAh1MB/omqqEcgpxD5ZIOs/pOUpN0Q5hdy1WjZEn6KcQu56Oxuic19MITtmgg0xxkNMITvuhQ+4NUuTEIgpBD8DJ0MAHVqQh5hCyJPHTS9Ag+bcl1KIMYQyBxlNwDddZohSCtFV5NWB8QMYYpmjS0ohxCP6c+dX3KSs8lIKSY+3LhgwXPKhCClEb59Y7l+4S8nanZBCjEcUS6RO+VKEZsCw/EXd7ckHfIqP4/txkXv4lPfG32iMwIsxN5YYwbqh3OGMOHCKh1N6ARqxpX0h1BueeLbfPQByZtgU577kuSLNSGzq3Y+okE/t95dHNE18EwzxUlKg5lOMg+w5vhN7BcQR7CtOxN+iLzO9V9hHFvgifo5YFncl8SPEQWnj4+o8Dqsnya4wkUgkopGNt4OL016rx89N31dLnvU3q1MAz2E/uJ1FPY4pm2lHDOy29b1g+fIDL/rcjyZyacqacV1PY37sFq853UbROC7LClJn7F92OsqLoPOpjIr4/b3ra8x35RcNfRJj9llel07nzW3D1aLSg7ALemJoz5a3xmVhwbbn4SHgEXC5/fgLfvAnIVGM8NxXgbI5gRvRQ8mctg91xjRpnv/IM5uMlK9JIorGAPHguR3rosR5dZDT3snOKM7mQHLatBCtDf0sKLrVZOSTe3Ziur4pOvafl4vepDd7fdP/QQ+QLA5lbtanc2Tmxccp78fQm5nVdxOeFdZtqKPJQjNz911yomuUb2y0G0IEXe8B/0nt97WuEIdEuolKd4raeWWahgnaEzXxCH4XB6010fTLOvX1dqbQeGMcLzUJNU6YCoNatFIf+VqqgJdkOIDoWF1ZIzicMSSFQzOtK6EabEkNdoaRPbTWFL98w3uvdXIVE7hX19ThwQojbVIHbbDxI4QYc9nD0OFxG1OnwC9oTTvYtrEhgaZI9pRpGJMaA3fgLe9IF4UQdeO0C6zb/04LFQhFNj5uGLbSdltDMJnRyqA19buzUgdMxjjQh/6CFvkC3hlj82u/rTfgYRpXY8EXQeu7YOZkjG+GnNSyXT7U33gCEZgMLQEu1N/Y/IKP2FfKFjP2TQ/gL6NFL0Hz9W4wXeGNh0AO0eyG542DSFrXZS2DvllhZw20e4aXiE4q2oxcy2dQ+D++wvrpPKvBOWAhIRyeQUvdjIyubr0By/CpcY4MdUGb4g9Ropb+m9qua74tHEnowR/ik/w93u9F6b8yPeqNOkbWnVvnynNbaPP/qfgyVOHI7tX47z17hfzt9JR/BQ/s3V8LzkYFR430BPjMFBT1/nzzOhgW/szYQWeIW70YvN4MipkcjPMZz5BdmxyfETlcTnZi8cW5vR7/w3EZURPgSHcVf8kN69AGeBNV4hEFgRbYSNsuuOHmpCD5YGvdhfa0CD91KsEUA7Sj/7A+cJctEZUL5yfkNgMZsLxFt7CC6+qLBmlGf7gvrMMouH5NlXHywUNLJ6WdRte9PbgvXWUbhlvD/wHPLfzHoZ4b5fbBdNGprI+0nH7hPV5s6o6q8m0hDmIXS9+J3laZTwyPYy8D/9FGmTCubgOG0ZSQz+bLq3nfr6H01vPlcj4LFV6SSCQSiUQikUgkEj/8AWJ4m338uIc8AAAAAElFTkSuQmCC;" vertex="1" parent="1">
          <mxGeometry x="819.8178818415344" y="81.85983827493261" width="36.09935763259961" height="36.09935763259961" as="geometry" />
        </mxCell>
        <mxCell id="3UB9JmVMNoAn3cH7Qgsq-8" value="" style="shape=image;verticalLabelPosition=bottom;labelBackgroundColor=#ffffff;verticalAlign=top;aspect=fixed;imageAspect=0;image=data:image/png,iVBORw0KGgoAAAANSUhEUgAAASAAAACvCAMAAABqzPMLAAAA8FBMVEX+/v7t7e3////90xzs7Oz4+PhSFw/39/fz8/Pw8PD09PT7+/tSFw5CAABEAABJAABLAAA+AABQFA//1xxQEghODgD/2iRNCABHAApOEA5MDA1MBQBEAAf/1yj/1Cv/+vmnkIu0npvp3dvz6ef/1Cr4yy3uwC3CrqtjNjCGZWF3VE/MubfXycZoQDu9jiZdMCrOoCmsfiLarCvFlyecgn6gcR+Qc2/Fs7Hg09LUx8VxTEeTZBt0QhJ0UEy2iCNlMAqCURdVIBnluDVdJglWGwaJWReaah1YJyGZfHqLbWhrNw/JnBg1AAB6Shns49+EVBhnkIagAAAchElEQVR4nO1dC1vaTNNOUiHnhEMCKGqEVBGB2gNVtPZgT2rfpz7//9+8OzMbSNjlpEFpr2e/6/rezmOLw52dwz0zu1E0hS1NV2FtKSgUtlCw4UeaLREK+I8UFFSdPoEEiwQ1LZgoGCQYKJgkWPT30sLWhumjKqSDvjVRSEkUQsGWCAVlotBWWqGttEJbRlohUyIYW2mFttIAbYo+6wRI3TCAHqTPfwA9I0B/iYlpuPQtXCQVSLBRsCVCAQWFBJ0+gQSLBBUFgwQTBVMiGCioJFj0CRumj6ro/625S1H/ziefmz6K+nc617z0USQALeHM1A1zruvTRwbQfzvoP4BWAWgtTlFLO0VFdIpK2ilqWSetmqZh2BujzzgPIqT5BxG4/INEIfH2HGn+xejJ0xdDYfzFUgI9bDMtjL8Y/0n7onVwMGydjwwj+WLPp8+GZdKG0TsLXc/3S77vude3I/jefy1ZXVUhZluta7cUFPlyglJ5cMEQ+lsBWtG56sbFsTdGh6+w/PFe+1vJ6ooKRQduyLeOEwSBg39winW3xzfAMwGU8fbPRRHg9565Dm0a3w1uTm9C1ye8gvIBSwSfVh9y0igkZNXC9VSC8KNCdOchHHX3sjWKIy2K+62BRxC5Q/up9ZkIm0FWVWPooVt2T0bMcOxCoWDbSnQx8JiRFR2388T6pHbiZnAx49wtOmBd5wqAkyw7ajG37TCERtq8Yvtfz8XM+2vAIbxuawwWPQWRdgGBzQmPI7ZPWIptmpYMoKflYk9fKjWGPsMncNpKYXppfZcBVPRaLMPun3c6vVFMJvaMAD35DlLvQ7aBHPdCmdo/iFDHhVB2c3vadD223GBw0NaecAflFA4fQQ4Vs+UzDEpnmrB/EKFuHRAaZ9gBywMGPd1cmz5TZJUWdTJ52lgggYMrEZInj0tXUpvvIZ1MMzqGL+/HthQgu112ik4mv3ZCd4A0bS36LOysLpHaa8JWXJr7bAmmYWGIL9ZPYtEF0RZqFh2HUuwEKQZRCwBahz6bRjWM8zJ962Z4ITUyu+cBNqHvlctl1ysFCJPjdie9+bz0yeygDQHIbIdj71IeRrbopguR5xRLLMO+aMfxqDe85pzN/xgpfwdZNQ3DMGXagULGJfjgYgUNxxu0JZtI6XrubZsZFCxFUy4GLiRHjtfVDEiODO5M10RWOUDcwSvog7iDB8GWCGjzk5ScFOLRkBTi0RADRrvXOej02vgtxtFQAYEpZB2gAwq+Nbhr6WiCr1Y6Z/fp/6poHSSyDKHu5enpoDs8v9eoorhIH8QkUUEQkmjIAUKB+0XOzDKCvkAoLCEocWtQ9jzf88rHB+CEreQX6fjXCn10QI33hx92aROV70RfbU+DprVv6uCJ6vUwCMJ6iX16617RV1HOWiQ8BVk146FHRQv2bQLfHcbmFDmMrqHws3O1X629C3bwb/o3I3lCNF4I/E0IH+ok8Z8lR2fxIn3Sqc8GdFY1ZXTsZ9IX/7RPmdc4PHfhL1TCo+qLF9WjqwZ9V/cgkqdEqaW0/enqY8mHyP8HcTGt3awn1WX+oEPgVBOFtE4Z8Nl9x/BhCO2/8bivPrmXp0RpKwMKEoTNUqkZ8o8P3JNY+3O4mBbX0bqCkudf+x5/4B77DolCZhtoVrHxYe8Frdrb7w0wx2LT6Ym+empFl54XXHaHw7uP41J/6ab9x+wgTRvg/imFw34cx/1hUMJcuFS8SPpZ8XHIwNj+fFjlAL2oHv7LfLUDm+F2kZnZo+FFTN/BGA2LPiSPTt1p2zkDlITD3J00EQivG2sse2GBKL4jThW4QwrC1hk6IP/rGB+29l7525QGDhb5aptKj/hHLT7w8XmEN7G6wEkvJM9ZJ03r0WSVCxYJpmr1MH57t8rkS3S8OhqQx747e7o9NLDdT7UX6VX7+rmBjIv5K2Whr56gpbUHgLdTOtFk+giCwTcfWQYJ1kwhd7JqtrFx0/wYpb4E+w68Mu93NC1ugt/Y+bL3Iruq+z/dCgAZuN0Z9FUOUXSHFWyWaor6CK5j65nJqnHSBP9cz5Yw7GhYDije3EVIMSrfD18Iq/a6vkM+97q/wMyyn45JA/ul2sZzMU4gyr3UDsA8VuuFJfruTUj0iu7bqggQpES7KfoqsNeZCA3gQ/2DzQeo78Jm927p+evIMulLKPGJy2s7DlCMmgQf8NVvXPLV3iBefhPZI/i9QT3SnpisqquRVS1CHhAOyAHZStzv9doKVZxtrZW0mBnFmHZAEzPDlAj8Vfl8eYS0WzAy71zTHkhW1a1ZZNUAYmYsEgok6PMF7Q6TEreNu0YZdV2XkdWbFi/2aKNTyrArpSOZgXEzO/wxpq/m0luo7bFUot5VppSzDEGwFgk6CWsgq0YL43e5g09eaZWbOIgQjIs9SjRAV+2+no0PQ2jvVUhV1n9GS4Z7vaBAhd/xWC60uWTVHCGr8O8QDe0A8iHyOqHXwcxG6ftY4/g5wwGNzew1cl23tbyNKR2IDu6FucFUIx7Agw9vkCooF2XOV/H/uVDsseNrKAhuf96fj8+L2nuI9s3uKqG+DSHA76wVoEftINW4pceOZkFYFAPP8+pU8Ljpa0q3xAxnimLI1uF3cELujHaQfOEvLB0YGwuQce6lzCI6KUFKXO/EoxOPF3taLcwBdl8tMLAX1deQDPnDFTYQ+43QYyud5QhQvmTVbmPtp3SC0ZFFdAxnPfgRHyBzfMwUGz9mRvgxQB/Awsr3q2ygggYGjgDlTVZNtjglLaQFWyIU0kJCVtkfTTMiilGMbaiLjjAn9G919vcMFt39sT/a/iahGFNr7xfLFcPLlTYQAuSUbjUlo5yJy0oLCVkliQRLTQk6FySVwIeRVZASioFjCDbli/VBrCI51KIzYGLorj0pxZC4oNLBCny1kJjYUNtMsmr0cMt45DZYvggOyB+Z5NjY6vkBdpF33yxyQGwdwT/3zlcCyI7hAUBxegFAz9JZxTkoRg4ukWJoHXJAHT3x/AyhEe6wnd8vBYcjuqCvkG96Fyu5IBut2uvJAHp+smp1wf8GPlIMmwrOLF9MdjFw7BOqcQgU4+i94LOrX73VAVIOwM+V2w/cQfPIKgGkpX0Q56eikJDVLEAWxe8yGUV0HGIFNOJnI7CZ2iITFCjG/q9PwhZ6GED4BLxoGqCtNECJPoKAAG1NAUQfrBu4JEJBIuiiYBs6j1k0B6XdUj40UhgFhGUxVj8qF6U1jtr78pFoYkdhBdzJSj5IuYTHUj/RbImmY0o6X8iikF8epJxCjyI8Rgek9JBieAfWhA+qcRGLrL+mKUb1dfm3JCt6+Y0B1LxbKcwr+Fwc98BYI1l9mK1qZz4WyTjFqMMUT/PESLkvHV1UpT7tgNhW4a3DqX31ZQcKqNFCVCZLL1DZ1SmPNo1qGLRlEorxseng2Ko50QGrIE5x9920ge1f7cgq0y+qn6Bk5vZWsDEdyq51MrL1AfSQfMGkVnmpSxSD8kW3Z0x0UEYe1jg+iA6oMaPyegSTZeFgtVTaJk3KfW2jdpCBzy24ianeQyXpoZ4KgBTV0m3UxAG5s4j93tU2wrwi2Wh5kL9f5gVQLk6a5jAdt48UI74Bd83yxbSHHEraqOiAgorYG+M/e7cLqXi4Ur0DEwzINkY5kVXsONg6cTYSChKhQJJE0G0bxuFhyxxQkZX8pNfW8cORD+rn0jYqC1VXO5XGLGL2EugqIL1aLoQVl2ZXJ+VAhYSsjvUBsioKFmeuaUgWkdVMoignqwqMQYFKnGJQNuh2jEliBo1WaRuVOSBGPGZVPqpvsT3mf1ylw8q20GmAD8ic4VvnJ4proBoaUQwyBRtK0g6jGFbKl5lJG1V0QEVnd3btvvYTAplTOh0tnIZJb6EW0Fy/ZWzKGDDFb2qj2pxinMapaMhHxYU2avWQJcvbs5tjmAJgHdK7vddolIFZwiKA7BiaAuHA2oxDvYUY4qrj33KKQT2xvjl5YkaPIrwQzPd+s6+/O7c0dPiNTy763fN2pChwEnHGZpr8Z+0OynbeyMyzsyrxQfPJagKQgvFpQjHQAbWsyRMzqAqyfTVd46i92ZX5pWR3/a+K/0MDwsxXe75zenzd9P6RRzXlYgIVzOYzGzPzIKs8ihEzywgUqwoSQU8LyLCcMrVRo9MQ88UIKSB9XNQtObI2avUt0nV5DlQ9+kx/v3r4hQYZwM0F4Ou9jibJjOz2SWJ7jHDANq6fFLimnLlaEsEShSwKj8+DLiCAl6iIaPeBcARONM472MamRqs7Tbeqh99ZEN8RMmuOz/fEIKt7n7xGpThZwaA1jAWAopvbCWxw/oXBGW1EZxVKVA72HnSoV7EcmuW+E19m9l05xdgDLlrxxToH4vOtOaFntcP3pcbOBKPAL3emPbV2Vk5Vr3mDdbQRnVVwiMEpKafclopOcKxOFDLjU6IY0zWO2iewnIa0OM0cz+6b9IarHb77XW/Q2sYgOcXxlU7ZS4FG5Uy/tRFc7JIl9nXeHgaAGFrxZAcZdzMoxluv4jjb32Tt5+rhZ4HfV2uHb9+9ef/+zavfgJCX3ULQcc7UHhUnwFpS+srT59pBUMNLyloKHq4EL8oVMrByL7ZR2R6B71mW5oiHVzsNsQT7ooqr9hayruDaSIcyFhscLz0DQk7odCPIKgychAN6oPaojDQMzwQwp2iOcFJTbKPu/YDgvfOvzMD2vzTmDTbssdzRSQoriQNiqTP1CpIdhE/KjzP89HnIqj4swYllHlZgShDyxJN7HchhdFmHCC+0UauvwAFVmrIBKoZdZQ77YMbp4kM4G1NYrQMT2GE6stkstjrM6jJqJ2Ge+KlEsNJfPC+yamLASHyC3ceY7pSK55ZqUeGsIrRRq1+bFTQ8GT7vd+fQV1i1Dw0HD3RwCqvAWFkxuEl7Jfu+jF7afn6yqt5DUhZcR8neTgZ9b2PKiiRt1EMsY0hzaAxuM5LH8T9H/+WUrs8jhZ+Mmlh5YmMeZmf2asFHXQNAWwr4Q/AJNg+4Ph8FGvSRYoht1L0PjeKMFKjG6P3C0TMosuFD8D72IqWP+IwDaWJ2YOv1kxUBWgtZtUdoVd4d9wnjefoQLyYR26hQKITqvWRAqPrVr0iqIuJfC3fw5HPduz7FW6ucJJef+G1IOI6jvDurGR+0HFnVNTyU4vin/PTJeJ6e5jim/S01BFkEEw2MEQxmPNIeEP347fhPvxo01Bckx+r87BiIcsAIoHNt5kZWJf67IEYxMaQZpm4bOOaSOn2i9YIS11s0FyrxSLfJ/q+dOcPTtXcTbw8HOrZT/AxSiyxAHYzz90oqVmWiWMJPxShmpFHIpbNqjkJEKBVY4hOc/S1uC21UKLIyvib253lyVPHkw9MMkn/SFe3a2190tIwvL9s/sy+IjanPT1Yt9g9G1yU8z1Zy6PIE3dbwPg4pxcCNJemEzWNnLPW+KmejXvXlq++0iRAlt589N4OeEet2z83FLKSkXSy7JpcnYHNK5oipxgHHnEUIXsOJ1Rk5NKP3jWA66lX3sXGGHf+il502t9uQYnjn6wBo1c4q/lnvlOkEBs7TM8qBNY4fQo3jX3RA4axhjlnHf97ubIvZdZUGzf1LamJkAYpBA69lbMYOYp+g3VN0d+puR6PCojipWUOKIXVA6KBnHP+psc01Ofo7Xkc4R13qgj92mlM1tOgfTKUfD1AOThoXc2dDl6J7+QxrHOKkJs1ESScU97DBU5GWP1j4qmx/FuYbXkLJn9lX1PIdJwinKkQRjtwfGM9OVnnzkglG4bzYRISaTTkO+5+3pdweMHClkOLPXrkVyU+w5A+te3sIOWFxqsYYQUXIP9AeGebnktVlE0X8RyAY7RNvHHglbVTcJTu/xAyIs1epgSE+YmyDihtAemsYVKWbBghSSL+1eqK41hOHZtTit2cyRyzUOF5DYNkWJzhZbEMHJCZNhA9EPWEsFhgrDWEbWJGaHjiPbmhg+uHBZx0AMWFEZ8Ekh8GgjVqslCRWlLBXCYkH/+NUhAhPSaUT1EemasDgZngyBZCCE+W3G0BWp86sav0ZmSC2USuyAIbsVTb6QfGL/UT4Rzwcuh320C0o+tanD00lI/ePBuixBbNpgHC0QjKpST5VBkLCXr8IZsQcDWP3kpYRsH4IUmdgFAZA0Zy+ZBAnTvAA9CMLZvlFMRT4hTdCMRULGSywSYhowl4lyePXUJ5cUzgMTyOISIXToDhd7UicNI9ikpKrrP6aKbkmw0L55UGYNcxso0IVcFecpx+Ha4ntMX6xDVYpuKYa+izH65OmcoAcfrJumTzo6c6stvmkphDh4Svt/pTgM5u9Mn4KZTHRKslnOYxHoD4aZTzTYb5MieIjfWu+Jw4nk5qyryQhC2ztf5vFXnlr6IuAz1EJKcaJoU4AEo5NEUBr4WIPPdTL/o/Oqwo2UT2qV4q7UnwoeRSnyxPTqwRCWrl3tYNtgrapzt5BjKyCJp2N2kEaDZOLNgFumOEjoRHU5GIOSDSw1/KpNKy44TlPQ50HENaDvN7jyx05OmkcNZMUm9leqEj9c3KwWeaAjmaQD+6zvKE11kcKEFUU++ZSFcVlyCoMC40jOwqFBYJNQhLmDf2ySTUOyZyCK4vv3MCcnd+CA6oeYiCXHHwhSOuXylgfHtCzACk4ZOa1eU0aNZ09QDUO8+kBKhLyI6tmR07IYVbDfyXFp/q2LC0bEflwZJd74FRRMfDjiT6GbAdhc94J7x/f1VAEgB5INQwccBdp996H3fCtvBOIEazii+yMMwmxdUZ1a37LFNfHkgGkYQ3kejPGgOk34SjethCuGYf/NeOSF3K3kgZi9SuWMsTCEeXjjn9mpfSxbiSJIh86kfbmVwk++QGEVZmicKqgeuT/mNEoxfqiI6sB7WPvviJ6M/JM4XGsLgQI/mO9m0PrOS+yajLK6IgVner7V7LwDgsGfYqNL2KGSDtLUkSksojjjsy0PtYgFE8mRjjdMcxhuiMnsqpgYtZ4I4DxclafHf2MzEHTnR2Sim0NT/8U3ZaeUUH/iHMKGYAoDfI7dlrT1eaDciarKvahGnOvTMrCAPFalkG/OPyG1Q9hKIQPdfjdaX1gjHTq3B1GeWgFpfnpw4r2tPseTTVMylyXuHEi2Q7MXMTRqhcJVZdUP6gsElzDxEZaHwpYmfmpAg4nB0FUeKxvzY1qEEDuwjuBxtsB4lFZOL9KB4CklUds6ifHdTMA4aR2tu2Do6VsV23CGHAaoOVNDAqw0hs8ZpEPzs28A0EfrQPT69nXckRwKJRFto0BaEvFVq9sele6wBHLy2c/YZ+I1Q+iGE7zMhIB4oMcE4B0Gwvj3vlGjAEnZLUeyKeipGv/87b0iiVi93RFeWZxihG2LVEfrNJlxl/Q6orefR5nNeiU2viAjyAUJIIuCEyC1LXSlB69EPfJp0ZDUqPHS5UcScU2qcuWe5qojxXj4ac019COA4f57UKiXMJPUbAWCEYGktzIKo0DL7z6j/bJ4ffG1b6sPIQcTPyQcY1Dk+mDqXT6sjw6qlG6NfI4L6YIAD2Maqh4DrIoYZ6SDfSmfCXlH9hblKTjlBrVB4om0wdbq8HNJIxxC+utfOJQFYJPnmyeTsZ/m3P96BgH/0p6hRlG8oovOiCsTgd+W5PqYxAekwEhbDsHxXizLlgy7+t48vLzQoRqb+T4MGILFENIjsZtVE2uj9mnw0/JVT9ULCudrX6oV7aD8iKr45M928G7BaHs8Iv8Crzajx1pG/XIR4pxhndYSfRR4QSmE35MnJCCd4G6Fzmdm0eqmSarymKyqqTJKn0CkEF6V2pl98P8SfAjOT7oicWDL5M2Kuoq04feQJbYGN28EF7qGeXM8c0LJCy6eUFZR2dV4ddtNj7PKCHOXZjqSNqodLmAN7Jm6qN34D6TEh1a5dej0u2WOdzdQbsvr8bhHV03vu3Ji/TzFt5DIZYXiZs5bmuOPlbsw31OHtytYsP1qMjDtDx8a963AUcHfIBq98sS0Sy7U9gGkmTi0HOESU1tnj4Ux4LrkabF6SuoNoeLUeOQ6WBd3NCFpDuh2Aycv4G8itgygtth8N1A8RyAFEOlllzgn3SdJrzehHl0IfhsAkCajjPloKJT8X7KkuVZa+/HjqQ8VHuDDgjuk5qrj9Ghe6vrmGoU68dxfgDl6KTRKcJNAmhmlcavo+U3EcuBxPIHnY2GGscifTCCJgOk9WJbHevzWLLKkyvJDYI8q5AIknsU04J2PyAz2/Zf1ZbcRCyJlryk5fA7DJLVB9FifZS7Mj8Z5XinsZJVbtHViTJBQla3HnUT59bYVNnzpZlyp7I7q+czvQ6/74gOaO9fnOPw8LrcBfpoWsf3mmHY9MoHYOwpfR5BVrfW9OIR0+oFTfLV35dKiarvdiUOCNuoTvncWEofLe7cDQbdVowBPqMPOdpNGAMeK8Rnyh2HpURL+Oq932VxkOxrQjHU5fRRTXgThi3V56HBZ33vWTUtfkd7ZfdqcUp0VBYzoMPPUDwLT6UqzLnwKWeAFpDV5W8kFxSykndA7oSL6Gv1jXgXJ2+jltur6aMu967nFW8kz+dOeyakr41XC9GZCwefixX353xfvfdLcEB8upxRjNz0Gb+ADYTxC9hAkN1pnwh5ktXpvEO1OmHdIfr6da6vFoyQT5eXuoaanz7PTlZFX2aMLtFXs5To00r0NWmj3pu56rOyb13ja0TpXYmmOvbV/y6ZEsHiAx7uhZHvA8sFoAflC7MVMvo3WM5nKdHS9HXcRrXy12eTdhD/SdTF24GLFe/9zGGYLD50GrV5Yq5Dn+cmqzKn2OFVosbVUvSVt1GD2FyHPg8jq5IXiWeE5d+gLhPscUpUf7eYvnKK4Z7b69Jn/hvUM8JS7zicFha841B8p6BqxmdEthdW9McjnP6ttTZ9tma945B2IjdVFMjO1kA1Et8BlUD4mX3hEX1tfJtPX/n9bzCpuQ59NoWsCtHH0OKPdCS6Mr+iX8M2qgOvBFqnPs9OVsUnpmktfn3F7u/Z9DVpo7bgnZ5PvYOWAygvsiqQQ00bJSlR8HqGr64eeUQxrPXro6xEVlNSHm8LFwQkh9A4I1/tvZdXiZI2amw+hT6L3xaurpWspgWb/5tzugOu2Pglo6/URi16/SfS5+nGgJfOXLX7S/LV2744g09tVEYxlCfTJ2OqimCqT0E1phTSogMys6JQ0eej4oxi6E+nz2YBBL5D0/rXJVlKVPuK11MFxbb5hA9sLQCpD1cIk8eY3xKz7b0/TCCqvnxVxxu33J7xhPosBmjtTlpCDjWTuq8O20Sfjvb39vb2j179oovZvSFOhj2pPnPJqs7WmKbpuDi3WyAUFgoFUUh+kcLoK+XVDf/bly9fPvtw1TjMO59FhWfQZyYKCr68Mgekt1bdidFt0iuubO8kN9Y77llOT35lfeQ78SmpxpSgaT2vNLkoEgZCivXyAV5m/hz6PDdZlSkUd8tw42qCT718OTJycq5/IlkVBMWyRme+65fq9XrJ97zuhZXbe+L/OLI6QyHTMC8Oht1u97Z1EVumNDw/pT4SgLhC6kMVyrR61cwTs9I6JC/6ySiEf+aOlCjp1rPrk71h9KnJ6mJyuGn6PD0XSz95ZRnT2Diq8azsOS/f8aeS1b9iB/0HUBagtTvFZ6EI+ZHVRRTw8YK+QFjPb81JH135W598Tvo8K9VYZ6HrTyCrf4Wzf142/wfkU3IuRsLM0X91Se4z1ZsnHTIKqWmF1DRAm6KP+n/ymWbmEZxHuQAAAABJRU5ErkJggg==;" vertex="1" parent="1">
          <mxGeometry x="212.77790446256543" y="69.89218328840971" width="73.25630947978905" height="44.51322499659421" as="geometry" />
        </mxCell>
        <mxCell id="3UB9JmVMNoAn3cH7Qgsq-9" value="" style="rounded=1;whiteSpace=wrap;html=1;strokeWidth=2;fillWeight=4;hachureGap=8;hachureAngle=45;sketch=1;labelBackgroundColor=#ffffff;arcSize=0;fontColor=#FFFF33;fillColor=#E6E6E6;" vertex="1" parent="1">
          <mxGeometry x="103.09" y="1261.6711590296495" width="776.9100000000001" height="618.3288409703504" as="geometry" />
        </mxCell>
        <mxCell id="3UB9JmVMNoAn3cH7Qgsq-10" value="" style="rounded=1;whiteSpace=wrap;html=1;rotation=90;" vertex="1" parent="1">
          <mxGeometry x="844.0393147157113" y="797.9245283018868" width="50.87096517794441" height="9.973045822102426" as="geometry" />
        </mxCell>
        <mxCell id="3UB9JmVMNoAn3cH7Qgsq-11" value="Novedades" style="text;html=1;strokeColor=none;fillColor=none;align=center;verticalAlign=middle;whiteSpace=wrap;rounded=0;fontSize=40;" vertex="1" parent="1">
          <mxGeometry x="310.24519000702264" y="181.59029649595686" width="286.8557203089644" height="19.946091644204852" as="geometry" />
        </mxCell>
        <mxCell id="3UB9JmVMNoAn3cH7Qgsq-12" value="Los mejores produtos" style="text;html=1;strokeColor=none;fillColor=none;align=center;verticalAlign=middle;whiteSpace=wrap;rounded=0;fontSize=40;" vertex="1" parent="1">
          <mxGeometry x="278.71" y="797.9200000000001" width="425.66" height="19.95" as="geometry" />
        </mxCell>
        <mxCell id="3UB9JmVMNoAn3cH7Qgsq-13" value="&lt;font style=&quot;font-size: 20px&quot;&gt;Populares&lt;/font&gt;" style="html=1;shadow=0;dashed=0;shape=mxgraph.bootstrap.rrect;rSize=5;strokeColor=none;strokeWidth=1;fillColor=#FFBC26;fontColor=#FFFFFF;whiteSpace=wrap;align=center;verticalAlign=middle;spacingLeft=0;fontStyle=0;fontSize=16;spacing=5;" vertex="1" parent="1">
          <mxGeometry x="175.15" y="870" width="104.51" height="39.89" as="geometry" />
        </mxCell>
        <mxCell id="3UB9JmVMNoAn3cH7Qgsq-14" value="&lt;span style=&quot;font-size: 20px&quot;&gt;Especiales&lt;/span&gt;" style="html=1;shadow=0;dashed=0;shape=mxgraph.bootstrap.rrect;rSize=5;strokeColor=none;strokeWidth=1;fillColor=#FFBC26;fontColor=#FFFFFF;whiteSpace=wrap;align=center;verticalAlign=middle;spacingLeft=0;fontStyle=0;fontSize=16;spacing=5;" vertex="1" parent="1">
          <mxGeometry x="682.37" y="870" width="115.63" height="39.89" as="geometry" />
        </mxCell>
        <mxCell id="3UB9JmVMNoAn3cH7Qgsq-15" value="&lt;font style=&quot;font-size: 20px&quot;&gt;Mas Vendidos&lt;/font&gt;" style="html=1;shadow=0;dashed=0;shape=mxgraph.bootstrap.rrect;rSize=5;strokeColor=none;strokeWidth=1;fillColor=#FFBC26;fontColor=#FFFFFF;whiteSpace=wrap;align=center;verticalAlign=middle;spacingLeft=0;fontStyle=0;fontSize=16;spacing=5;" vertex="1" parent="1">
          <mxGeometry x="508" y="870" width="144.64" height="39.89" as="geometry" />
        </mxCell>
        <mxCell id="3UB9JmVMNoAn3cH7Qgsq-16" value="&lt;font style=&quot;font-size: 20px&quot;&gt;Nuevos Productos&lt;/font&gt;" style="html=1;shadow=0;dashed=0;shape=mxgraph.bootstrap.rrect;rSize=5;strokeColor=none;strokeWidth=1;fillColor=#FFBC26;fontColor=#FFFFFF;whiteSpace=wrap;align=center;verticalAlign=middle;spacingLeft=0;fontStyle=0;fontSize=16;spacing=5;" vertex="1" parent="1">
          <mxGeometry x="314.09" y="870" width="166.76" height="39.89" as="geometry" />
        </mxCell>
        <mxCell id="3UB9JmVMNoAn3cH7Qgsq-26" value="&lt;font style=&quot;font-size: 30px&quot;&gt;Sobre nosotros&lt;/font&gt;" style="text;html=1;strokeColor=none;fillColor=none;align=center;verticalAlign=middle;whiteSpace=wrap;rounded=0;fontSize=40;" vertex="1" parent="1">
          <mxGeometry x="583.6791713867328" y="1660.5929919137466" width="286.8557203089644" height="19.946091644204852" as="geometry" />
        </mxCell>
        <mxCell id="3UB9JmVMNoAn3cH7Qgsq-27" value="&lt;font style=&quot;font-size: 30px&quot;&gt;Newsletter&lt;/font&gt;" style="text;html=1;strokeColor=none;fillColor=none;align=center;verticalAlign=middle;whiteSpace=wrap;rounded=0;fontSize=40;" vertex="1" parent="1">
          <mxGeometry x="345.6071522928145" y="1660.5929919137466" width="286.8557203089644" height="19.946091644204852" as="geometry" />
        </mxCell>
        <mxCell id="3UB9JmVMNoAn3cH7Qgsq-29" value="" style="group" vertex="1" connectable="0" parent="1">
          <mxGeometry x="426.4017616166735" y="1710.4582210242586" width="118.69891874853697" height="39.892183288409704" as="geometry" />
        </mxCell>
        <mxCell id="3UB9JmVMNoAn3cH7Qgsq-30" value="Email" style="fillColor=none;strokeColor=none;align=left;fontSize=16;fontColor=#212529;" vertex="1" parent="3UB9JmVMNoAn3cH7Qgsq-29">
          <mxGeometry x="5.652329464216046" width="113.04658928432093" height="39.892183288409704" as="geometry" />
        </mxCell>
        <mxCell id="3UB9JmVMNoAn3cH7Qgsq-31" value="" style="html=1;shadow=0;dashed=0;shape=mxgraph.bootstrap.rrect;rSize=5;fillColor=none;strokeColor=#999999;align=left;spacing=15;fontSize=16;fontColor=#6C767D;" vertex="1" parent="3UB9JmVMNoAn3cH7Qgsq-29">
          <mxGeometry width="113.04658928432093" height="39.892183288409704" as="geometry" />
        </mxCell>
        <mxCell id="3UB9JmVMNoAn3cH7Qgsq-32" value="&lt;font style=&quot;font-size: 30px&quot;&gt;Donde nos encontramos&lt;/font&gt;" style="text;html=1;strokeColor=none;fillColor=none;align=center;verticalAlign=middle;whiteSpace=wrap;rounded=0;fontSize=40;" vertex="1" parent="1">
          <mxGeometry x="319.59999999999997" y="1290" width="365.67" height="19.95" as="geometry" />
        </mxCell>
        <mxCell id="3UB9JmVMNoAn3cH7Qgsq-33" value="" style="rounded=1;whiteSpace=wrap;html=1;strokeWidth=2;fillWeight=4;hachureGap=8;hachureAngle=45;fillColor=#1ba1e2;sketch=1;labelBackgroundColor=#ffffff;arcSize=0;" vertex="1" parent="1">
          <mxGeometry x="103.09" y="1331.4824797843664" width="776.9100000000001" height="299.19137466307274" as="geometry" />
        </mxCell>
        <mxCell id="3UB9JmVMNoAn3cH7Qgsq-34" value="" style="rounded=1;whiteSpace=wrap;html=1;strokeWidth=2;fillWeight=4;hachureGap=8;hachureAngle=45;sketch=1;labelBackgroundColor=#ffffff;arcSize=0;fontColor=#FFFF33;fillColor=#E6E6E6;" vertex="1" parent="1">
          <mxGeometry x="103.09" y="1790.2425876010782" width="776.9100000000001" height="89.75741239892183" as="geometry" />
        </mxCell>
        <mxCell id="3UB9JmVMNoAn3cH7Qgsq-35" value="&lt;font style=&quot;font-size: 30px&quot;&gt;Copyright&lt;/font&gt;" style="text;html=1;strokeColor=none;fillColor=none;align=center;verticalAlign=middle;whiteSpace=wrap;rounded=0;fontSize=40;" vertex="1" parent="1">
          <mxGeometry x="348.11600937962504" y="1825.1482479784365" width="286.8557203089644" height="19.946091644204852" as="geometry" />
        </mxCell>
        <mxCell id="il3lP8wMFANZ1YkQcDEA-1" value="" style="shape=image;verticalLabelPosition=bottom;labelBackgroundColor=#ffffff;verticalAlign=top;aspect=fixed;imageAspect=0;image=data:image/png,iVBORw0KGgoAAAANSUhEUgAAAPEAAADRCAMAAAAquaQNAAAAY1BMVEV0dHT8/Pz+/v7////t7e3s7Oz19fXz8/P5+fn09PTw8PBsbGxwcHBubm5qamp5eXnc3Nzk5OSNjY3Hx8eUlJSBgYGmpqaHh4fV1dWdnZ28vLzGxsa2traZmZmqqqrf399hYWHwxnLYAAAQoUlEQVR4nO1d6dakKhJUcEW09n2b93/KAdwQQSXBr2rOdP64J/qe7tIQyAySJQOMEMJJxE2FOUdEwFQLCYepFuYqFD+bqDDmMOMQKTBWIA4FDBWYqZD/owHkPxvjDkaB+N9J3DPuYR4vYawlH6cdt7hnHPc0ZShzQ0MYTsCQw0yFyAgbaisxjv4x/hZjPGaMuSUxNwFzjiIBUwUSFRIFpiqMOMx7mAgYKzBTINLCUMBQgZkKkRb2LKMgEZZxc4GZAj397AowUL/97Fee/eD6r6z94PK31/Yw926Vq90q6MfXOCjMDSr9SJodVL2/iLWuI3JxHUTrOiSW/9eMx45TgRaMTXJAohnNMZYiRQ9JPGAcjyTAMsZRIhpDwEyB4QSsaU5ANIBsHJOUmRhOGSGkhw1N1Ms8GdZtjBRYNyzq27iHeQ8FNSyxHEWnRPEdIzei+o6RG4m0boQx3V2v2/v9dnsdNydhx9vxeH4erjv+tzltaHSa8JAjZ7m6yiQkY0+93l+XoGBWlpRZUBuHtCyLqqKn1/txjQl/37UVyDqMG5im0fZx3gdVUbYsTcaoF/R0e2xZ00X/m4yZ7Z7HzTzXAe+iovvnNUpJtJquVsexF5UZkSw7nIPKim3HuiyC432LLMaxhcqMg5x7z1p/pQrMgDBE8X1PCwhbifXluWPqsNaI/GfzHiYqzOegRK1VmTx2NN+TQaSFoQpDBWa8dUl22Nt1ZYOVxem94+3cdisxZBSYqrAJDzpYh2a/movxPbwqp9Ydkq72B9YUP6syuas6+aMrjBbBk2RkHcZLVWYPB5kmxvdMS690ayur44H57l5lxhJMR3CWMeGWoJCZgFm4BGYqRHh3rPw2b2+0uDzqd0Qpf1iqhbmARIGJAkP76KRXmdf9anyFFadDRCxVpiE6eVAgeM327TlvHin5icxeiuM/4Cs4nw5p+H3GJH57ds9TnPcxn2l8M5dJ0vsq/tlktHhmriqTyy9S6y8+XSeZDcSfS/GHfLmVwaHWnmHeac9QkJBgYoaZRTzGoQJJ9ocduremaxvicRT38TjWhWYHzZVeN3/ZoXujwYOr7b9WmSS6VV/hy606sonp+ipz0KvJ9vSdBq6NBtcFvVpLvlGZcyJyANkf0P2vPZZq1Tvh2jIXb16rzB4mKpRYglRmFB+/TZg57Uv0ZyqTbDdfcNEjo+UV4z/J7KWH7zdwbdUTj+TXCiozeX7PR6tWHOttHuuqzNuvtDC38vIhtuNY66uNaYCUXHwEJdqYh1/a7PDAVxMFjn318njMZcfn5PaWfM2FfbL9fn97v9l/Wcd0zXsWW2yT9bFTmeQTOLwdY7t5PQ+fKKw3fog+x5ekzhen5DajvJbKxB8HugV9PXZ8Vsc/XWf8V7mbuL43cNLVI3NVmRhpIMYxmG8R3K6ZmMvrjf04+sBJV890Zu4Ux32vXrz0EkIJ0+L0YMLfxLZrbZwdLkDO1T2bXnqRV2GWRicC7dLF/hDO0e1a+nqBBfvq4V1lki2Mb3k6zDavZIwzbE5WXbFflZnAWpjSZ4YX0605h09QnC62yKvKJKA4XJ52Fu3bGMI7kMqpPmQZ42Xj+AL67O/QsoGbZs7OICW7NQvOgcrkvKd3N5H8Bfno9GDfwG0zPwBfmJ54OO13NyGVWrO7aUqBNDB9Az453WxBDdw08xXyyD3GXjRX+gBEDLqJHQgzyh9A1qF4e2FMtoAu7UqYUd7ZPzWoDksY89E8udt4A3i0M2HesQFfutoJdzvYMYhwv9uYYbGjPG8EmgIFCo8QJ7JzJgwcyyfSk0i0cC46pU/AY4urB8KMMuDZ9DYTneYUCLkCvFbx9EKYBSlA/6ru2ElzQQYx3RtnhbaUif3TgyrGGKyro/QM8dORJ8KwoUwvM4ynxjGB+I7i7qdP15RvgKj8nN5f3UQqEZ3qeCxCUh2PIX36EnprYtavI/s3YI4zaaJTR02CUwoEvwF92pOfbg0/Ae9wGiUwl2kukJ9m0cEn4RAl9u/ABxaM8QnwsHLnsU9zAzVyyWf11iqTQB5Fj36bmDVyDnEmN0lldtSacdwc6RtZFoGSAH5HMTdQI1dXE6/EHJ3OEMYX33xZI8eQhMiJRJYqE8eQNGrpMxa3hveAb1/ciaXmgkha7jE8+y3BGLZCH0d2unoLaWK6X6GJQ5SCPv6TTLZx1DOuISh5WT7WYBzC+luxE3zqTQQSyyDWRSd8AC2GlPEKnZoxvkNSqeUz1UcnrQLBFwjh4LJKEzNvDVqYobvlmgs2igN6XolxCFF/vJGXM36BFjXLwzqMQXNGbvFilbmDLWkW6wxj6EDm7lqrMkWqL+fWwgwkt4Jgk63EGG1hO6o2IU/LytSYBU0QFlKsSW4BmzhYJRoLxilsS1V17VVmy1KnQECTpmA9x8UYZ6AXCugLL1GZsHlxwIfNWoxDYLTkec0FjAl0o2mxlqtmjIGepXwaGCPWsPzsoYA5SNNxxr7THxLjN/CdNuKEMIkklmOVmUF3khWf9Rg/gLtBi0c2qzLDB3Rv7ZptDAvI3Hdls5oLQebf9a+vFY6By4zCSjLHOALlPlZnDJQgwp2qjJVxTKD950cZ85CsVZndPkxQUqm28hcZB5R0W0xrlkGX6okjocTgG53L5BcZFwd+QxI2KhBgFk0Y/UnG9JxOai7oTPR3GQcboq4fy4wxhmzsaRn/5DgOiq3Sq8UvJuKsCJukfBzOMq2U1xOM4RGEaeuEU+tYDqMTdKIobE2V6cBYxCejykyhswjB+AdVpqCMsVlzEYdh/IuzRWHVzsyYODiIlZbZGsZOfe+AjSrTQWIyo+/VGCNgWqZ9r8E4Fr/Y+GrwxLv+Ze/7AzrCmdNhyVM68NXuS6j9L6/ludDO6TxsuYtMKhOYMmyNrrF6zM1F+wZ8q0ZkUpmR21nq1QKy22hjLpVoVSabO4EzDe0vrzSQETB52xh9E7lXSzNH5OSq/e9e6wjnTq/FXGomz48lv00cJk7CTuswdplHCNuYVGa6d/vhtRYXQTu6ZKOZXnPh1EVjCsb+968Jxm7DmCc0iZ7xzvUmg3XW2hBxfa/mSONYZUIONg1t43NvdWsYvGbQWnEg0jiWVmRc0gG1VWtEZJdMVG2l2H3crjv1sZm4aTnx0yssqCKH9GpjbC6h1VwEupwl2cl/t3aUmILxbT3GhcuBVANjt+mNYPzCY5UJ3UKu/rZ3b41iD3fhnOR9IP0umMzZQ3DzncJ1lh/cLqG010faz+WDceF7M6pT+qO1C9GqTC+Mqee9mc6aun4rg8r00qs9+y7ghknFqjUZ+50yOuZ7WisMuUz3MMDN64knp0R1b5XkraTMXuqlA3ltZC+hiVklolOmKpDUz/f0uRoDOjmpsaqJxysx9tfI7vPExlZmzM9k+GHsaRSzNxqozO60lzfGvhYnfI1ioTKxUm+RW+glOnHzdVeEtxe6SKcYZZXplgeXzcukEXQFit5MKtMxXS2Zj7sEUOaaaOyMvlK95vLHOKDuEQpD7qkwvM3ZwNhxEWbwjCP0bq6OsMcblOlzxLjehOyRsfOs0eFyzrGVjyZ7W6vM3m8TnzfLu92DgkLQUVGDlXfpXLm8mgrePa8zunfx177kZW0sWhrWj705R/EYh0yue1J+YOXHxNjPdLE1eG4A7/xWbqA7vcqMvcnYxjbArakoc7wle/QiZKAyeX6vKcrtI20oGT3Crq3yGInb95BYyiozOnguAwIbyl6jJLfy2d+zN7yjPPKSN5QNMqVAiVcHGohNe4ZdipHPqN+YfVT23afFxkxDLjMmrtsiRmZ/Xwbw0oDJl8iG9Rb5H5rLYb3lBHqz3pDrO2AE/EKHwb23g3t9fPuMwHrbAAJdoDRp9EaMd5TDLvOZNkvn5VltcSvbK350Z2Gw76dZr6961n3ciu0UY2+Zpd7slt4glxnOGCVTt0d62CagmtVGPuR1xiqMvtJxvcWu6ELy8e+67BgDb4WYsPKOlKreUjxm0HunsovIKzCuYoza+zIRGlXC8bTaJpndhifoPRgTtuG3VhtP/0TgiyKMZnnSzeE0sN5YrDCeMRe92vNcnF8Nb0M4xL7LGoqMz1S9xcTvN67OllNkhPaev3nWUjPVW/TZrWnxtM4JoMwrZS4x4+lKOKDbKfUPK/YfQJ4ehT4r7ooj5tO33GSeZoyM7xWDUnvIZ1XlQlwnOM3Yx+oTLYPzDsaXGw4PnjjTc18RyHRHeeLurctif0ic1p0QRuB6XgMrtgvqLbrOJorgGdsUsTJxxttb4NzQm3RJvUXYRYq18Zpsbs3bG8bk4djQ5ZMsqeqNwXs/aXW5Zp74cmMNvXMpSxiUn2jJ7ZHQlfPaO3vebIxweL1R6M1N+3SScVdrAHbal/FFqxz+wTh+bkAjmp+BGfdqPnEk9cyR34BD+N0+kCIOJ2D0XUY6OZwAnXuTyfUWibkSTvSxbeTidICVZFvOGV/3tiVl+QUCC+stpnbTiTK4+/RXBmNe7GXJOcRLb+y2qiRBxfHetflyQ3h3s+jb5bPbcDt/R3m+OBVCq1v8N3ytOVNxxd7CSjiLD/QV++3f8bXjXL4FH5PKFG9dq0wBlyUGys1hlYA0w3m7X9IeNOupIQkaqnpHC1agaPn+A4elMTbNmC8nW9wt68LM32lUHAFFUX1xzp5zbnsTWjKeq7JIg8N6imPe2HDeT/bCanCZj+6OcoS6O8qRKOWdTgqv4pZ+kS83Jv8nqgbz0mVdvUU+YFuWTGXmeZq3UozhtpR3nkycUaDB9WsdujNGw5wDLLYhL/Cd532t73y+qrdxJbfYR19u4Npw+DY4bXrktSTsq3obNoPyM+rfJlsbwld9z65LSYhNEFbVB7ULjbzK748QDvl+Rl0J3eLep2ytGGeafUbl3r0GrE/DybgEOL2E0UQbm8cxzsdrq+XLthL72oayl9oViygUfAzjmNM2VfXGqrwuzj/UoxtD+DZs5fKZiqreuN+4hSWW01W98bCe9y8SHi3O0QuJ4DWuh0Xq2WzkBwmLxTnpLenHhfFg4Y3fMfFtcnrDksMp7qljVe+uthU9rXeTr6vhLe2ahURKVe+OWnMWpqmu2Ja+HsGw8wvrXeTrbm05bHrKZ/jMVvWOCaq38Hu/9sKrtaeFyq2U+ABV9Y4igiPeyO6H1Na1+haNor410aWqN2eMeWaz9HWKei3j12gU51ylCWKM8L1ar5KRL0Ofks2YxjTtVGYHz/8RTSx+rXmADqJvQnxkkXYweA0qU/LbfUhSAxXhp0hQrVaFDK1hWH9PDWyfqYX9dVESbLtVB2u/qUJihlkfkiaj07QCGcBQhWHfg/RQ38X60RNrB1LLuB5THEYdJApMdXBGgfws4+gfY1+MZ1SmBEMVhgocOQzVd4zciKQM9PpHhUSBqQrnx/GEHvsuzBzg1BNmVab7B897KPWlZd1q1MP03WpZD1usMh0GVaQdVLECbVzHrBfRuw6J5T/GJsZaKPyiBFMV2jNWoAVjrKdprLfIrYf1DCTvYWqGqYBEgbkKxRMSLczMMNRCcR11FM5BpMCpqt5ObuTXo1Pf235NgfxTmf8YQxlbjONfVJmjIb1UZabDooT5HExUmM/B1AyzP4JtvcX6K4vOpMA2zyW+sg6SWMRjASMRhBUY1V2sg01fUmCmQKSFzUBSYKZCpIW4g9F/AXWsstamO868AAAAAElFTkSuQmCC;" parent="1" vertex="1">
          <mxGeometry x="743.3531688496196" y="79.86522911051213" width="51.43061644902011" height="44.60394488449488" as="geometry" />
        </mxCell>
        <mxCell id="UIcXnPKCQjQ98bgMIXbB-23" style="edgeStyle=orthogonalEdgeStyle;rounded=0;orthogonalLoop=1;jettySize=auto;html=1;" edge="1" parent="1" source="UIcXnPKCQjQ98bgMIXbB-11">
          <mxGeometry relative="1" as="geometry">
            <mxPoint x="161.80088745304874" y="-40" as="targetPoint" />
          </mxGeometry>
        </mxCell>
        <mxCell id="UIcXnPKCQjQ98bgMIXbB-11" value="" style="shape=image;verticalLabelPosition=bottom;labelBackgroundColor=#ffffff;verticalAlign=top;aspect=fixed;imageAspect=0;image=data:image/webp,UklGRnAJAABXRUJQVlA4TGMJAAAv/8F/EFfnoI0kR3Jd5g/4Ps0fBoZt20ai+u8/8B3Dtm0jUel3++97ANxItl1FaHCVSxjkSUD4xICJpfXqfe+dTnTgH/8IGgIDPwAACIIKP/wAIAgAAN4IDARQEAAEBgIDnwCAHQKAwEADXBAAAAQAAAFAgQcUAICqASCAAJ4AgE98A74AFVDwADT8AV4IVFv8o8Ay2gAA9dDFFQCB0sUnEAA0VDTAF0A5AgXKNwBBUABvAKgG6GJd5f7+0evXP85ZYYJuVQGfNCmpCtp537my7/NbYL+MWZJSK1WvgsO21uJ632XfZ7rOUZNtLdf7AAJPHAVt2zApf+BvAxARZtO2QVuS9hAsXZvE46/oGyxgx7Zat1L/PRoQSMhQRmIp0ue5z4j+M3DbSMqsdrnBEjfMCyjatnXszb58ipOvtm3bdmPbtpP+Rm3btm3bxgX0MqKxR56Ttrv4noj+S0IjSZIkmnjNZeAzs7tVtpGFP8uXQ8mISHwtJ3G/C76Wk7HD3Ufiazmo3nv3hNdyUpuZtYTXclJNVS3BtpQVI6qI1HirgLbkHQuWMLM8qThbciwihIj4I5XRtaT7HFmZLvpIpevC1pKt+53TI4kw7e0abC1mr5iOQBXmvV0DraWq9TFtyVRkb9dAaxFRmz5BjW5a93YNtBZm0fast3ezvV2DrYVYbFrDK1ru7RpsLcQ1J8TtDni9SKLMMRCvF0dZxGYF2pJlb9cgbfnrv+beroHWcpJ3yBjXs7xDiOsPhbxD7b93WI13qP33DmveO9T+e4faf+/wxY0z8zs0sLlYHKq8ClasXbt2RYFDxevbmsXo6Fb/nwMXrj+sTfPq1rHt2LfEtz7Ln4P9cmvHxC7aiMXPAYvnmEj53mFw92Isfh5YTN2CZXuHKcMsWPxcsJgGpgj2Dr08sKj5YPFcItU7zB6BRc0Jy9G3Ir3DzE5Y1Kyw7Hsm0DtMaIVFzQvLX4nivMNMsqbAoXmqMO8wG3wrNywdcmR5h+BnY4dlhCjv0AuLmh+W6YK8wxRPLFZ+WGypcrzD4VisDLEMFuMdBoMXmxliMYdI8Q67Y7FyxDJHyM3nWPBOI0csq+7LcA8WYbGyxHJSxLwCNROWWDa+l2Ae3cJi5YllmYD5dAyLlSeWYQLmI6iY8sTSRIB3+AKLlSmWBPXe4Q0sVqZYvNR7h2ewWJlimaTeO5yPxcoUS1/13mEHLFamWNqr9w4bYLEyxdJIvXdow2JlisVdvXfogsXKFIuTeu/QgsXKFItJvXdowWJlisWk3jt0wWJliqVUvXdYB4uVKZZ16r3DhlisTLFsVe8ddsBiZYplb/kodg/6Y7EyxXJI+RgmY7EyxXJW+Ri8sViZYlmqXjy7uBKLlSiWRAHi2Q4sVp5YmgqYj8exWHliGSFh7+BdLFaeWAIk7B388DsWK0ssdfJE7B0ch8XKEss4GXsH4yxYrByxmKOF7B3sicXKEUsvKXsHQ61YrAyxWMLE7B0cicXKEMtQOXsHU21YrPyw1EkTtHfQB4uVH5aZos4dHoVFzQ7LKFnnDufMxqLmhqVzrrBzh1/vxqJmhqVlurhzh5/sIWuSBJ47/Ho2FjUrLJ3SRR4+lzOaqM+WK3LKCfzqkHS9YaZB5FRiSBtlJehi89A0mVMVI7y3lZw7jb3CDEKnulf8hD+w+DlgqTMu2iBgaoLlw70TO1cyopiOCMgzKJjP2NQIyyXfKQM6N67nSsDfQ0yl67buPXR2aWLte+5A7f9zB9qRe+5Ae/+TWDSksdhx8A61/97hr/7eofbfO6zwDrX/3uGv/t6h9t87rPAOtf/eYTXeofbfO6x571D77x1q/73DlzfPLujQsA4DvQOanNwa/Hvw/LVHtWne3Dq+Yw0jvQMO8c+rHRO3eBMWPwYW29go+d5hSI8SLH4cLObuIbK9w9ThVix+LCzmQamCvUNvkvoHs4ntHTBnpBGLGhLLsXcivcOszljUrLDsfy7QO0xsjUXNC8vfSeK8wyyypsChRZow7zAHfCs3LB1zZXmHI7Go2WEZKco79Aa/ED0sMwR5h6k2LFZ+WOqk0d874BAx3mEIeLGZIRZLqBTvsAcWK0csc4XcfI4D7zRyxLL6gQz3YDEWK0ssp0TMG1AzYYll8wf6ewdcLmA+Hcdi5YlluID5uIP93gFfgoYxUSyJ6r3Dm/T3DngWi5UplsnqvcMFWKxMsfT7/tM7YEMsVqZYGqv3DutgsTLF4kF/74DO3396BzTR3zugExYrUyxl6r1DNyxWpljWq/cOG2CxMsWyTb132Jb+3gH7YLEyxXJY+RgmYrEyxXJO+Rhm0N874BUsVqJYCpMEiGdb6e8d8AgWK08sIyXsHbyNxcoTS6CEvYPvZ2GxssRSN1/E3sGxWKwssYyXsXcwyozFyhGLJUbI3sHuWKwcsfSWsncw2IzFyhCLNVzM3sFBWKwMsQxjv3fAuumC9g5Ow2Klh8XoJerc4WFY1OywjJZ17nDuf1jU3LB0yRN27vDzXVjUzLC0yhB37vDTXWRNssBzh5//T1XpjBkiD5/LHcnTFxqdp3xglhl1SLre4CW5d8AhFoIuNg9LlzlVMUJ7mMm509g73CB0qntFjfsNi58DlrrjY2pJ74B3jm9nxDBuOjIw36BgPmNTIyyXvSb3a9/Yw9lEwH8sL1u/be/hc0uTat9zB2r/nzvQjtxzB9r7n8SiIY3FjoN3qP33Dn/19w61/95hhXeo/fcOf/X3DrX/3mGFd6j99w6r8Q61/95hzXuH2n/vUPvvHT68fnpemwZuTibKewd8fPXIlrXE9w4YsXAD9b0DBnUtor53wOQBZu57B5zqQX7vgIMduO8dMLUd+70DNiO/d8DUZuz3DtiO/d4BB7PfO+BUB/J7B0z2YL93wAHs9w4YZGa/d8Cu7PcOGFHEfu+AC9nvHfDxBvZ7B7xKf++AR+jvHXAL+70DPlzLfu+A1+nvHfA0/b0DzqO/d8A29PcO2ID+3gHd6O8d0In+3gFN2v/eAWeUR6j97x2we+VYtf+9A+6iZ7T/vQPWwt4Btf/PHWhH7rkD7f1PYtGQxvLLhXf473/eIc8W7b93uJF3+O9/3uG//3mHTEQc8FpOqjCzBLyWk1pFpAa8loOapqqWIFu21prNzNqDiq1lP+8wvffuTxbQlrGIHO4+f4BG2rKI+13KVJC2zP8cMiJWByXUlgIA;" vertex="1" parent="1">
          <mxGeometry x="139.12091547788177" y="68.77520215633422" width="45.35994395033377" height="45.35994395033377" as="geometry" />
        </mxCell>
        <mxCell id="3UB9JmVMNoAn3cH7Qgsq-28" value="&lt;font style=&quot;font-size: 30px&quot;&gt;Contactanos&lt;/font&gt;" style="text;html=1;strokeColor=none;fillColor=none;align=center;verticalAlign=middle;whiteSpace=wrap;rounded=0;fontSize=40;" vertex="1" parent="1">
          <mxGeometry x="90" y="1665" width="379.43925233644865" height="20" as="geometry" />
        </mxCell>
        <mxCell id="UIcXnPKCQjQ98bgMIXbB-13" value="&lt;font style=&quot;font-size: 30px&quot;&gt;Google map&lt;/font&gt;" style="text;html=1;strokeColor=none;fillColor=none;align=center;verticalAlign=middle;whiteSpace=wrap;rounded=0;fontSize=40;" vertex="1" parent="1">
          <mxGeometry x="-142.56999999999982" y="1471.08" width="1289.9999999999998" height="20" as="geometry" />
        </mxCell>
        <mxCell id="UIcXnPKCQjQ98bgMIXbB-15" value="" style="group" vertex="1" connectable="0" parent="1">
          <mxGeometry x="140" y="990" width="710" height="250" as="geometry" />
        </mxCell>
        <mxCell id="UIcXnPKCQjQ98bgMIXbB-16" value="" style="rounded=1;whiteSpace=wrap;html=1;strokeWidth=2;fillWeight=4;hachureGap=8;hachureAngle=45;sketch=1;labelBackgroundColor=#ffffff;fillColor=#FF0000;arcSize=0;" vertex="1" parent="UIcXnPKCQjQ98bgMIXbB-15">
          <mxGeometry width="350" height="250" as="geometry" />
        </mxCell>
        <mxCell id="UIcXnPKCQjQ98bgMIXbB-17" value="" style="rounded=1;whiteSpace=wrap;html=1;strokeWidth=2;fillWeight=4;hachureGap=8;hachureAngle=45;sketch=1;labelBackgroundColor=#ffffff;fillColor=#FF0000;arcSize=0;" vertex="1" parent="UIcXnPKCQjQ98bgMIXbB-15">
          <mxGeometry x="360" width="350" height="250" as="geometry" />
        </mxCell>
        <mxCell id="3UB9JmVMNoAn3cH7Qgsq-50" value="" style="triangle;whiteSpace=wrap;html=1;fontSize=22;rotation=-180;" vertex="1" parent="UIcXnPKCQjQ98bgMIXbB-15">
          <mxGeometry x="10.00465057081857" y="119.9963342318058" width="16.956988392648142" height="29.919137466307276" as="geometry" />
        </mxCell>
        <mxCell id="3UB9JmVMNoAn3cH7Qgsq-51" value="" style="triangle;whiteSpace=wrap;html=1;fontSize=22;" vertex="1" parent="UIcXnPKCQjQ98bgMIXbB-15">
          <mxGeometry x="693.0388642712663" y="110.036334231806" width="16.956988392648142" height="29.919137466307276" as="geometry" />
        </mxCell>
        <mxCell id="UIcXnPKCQjQ98bgMIXbB-18" value="" style="group" vertex="1" connectable="0" parent="1">
          <mxGeometry x="140" y="520" width="710" height="250" as="geometry" />
        </mxCell>
        <mxCell id="UIcXnPKCQjQ98bgMIXbB-19" value="" style="rounded=1;whiteSpace=wrap;html=1;strokeWidth=2;fillWeight=4;hachureGap=8;hachureAngle=45;sketch=1;labelBackgroundColor=#ffffff;fillColor=#FF0000;arcSize=0;" vertex="1" parent="UIcXnPKCQjQ98bgMIXbB-18">
          <mxGeometry width="350" height="250" as="geometry" />
        </mxCell>
        <mxCell id="UIcXnPKCQjQ98bgMIXbB-20" value="" style="rounded=1;whiteSpace=wrap;html=1;strokeWidth=2;fillWeight=4;hachureGap=8;hachureAngle=45;sketch=1;labelBackgroundColor=#ffffff;fillColor=#FF0000;arcSize=0;" vertex="1" parent="UIcXnPKCQjQ98bgMIXbB-18">
          <mxGeometry x="360" width="350" height="250" as="geometry" />
        </mxCell>
        <mxCell id="UIcXnPKCQjQ98bgMIXbB-21" value="" style="triangle;whiteSpace=wrap;html=1;fontSize=22;rotation=-180;" vertex="1" parent="UIcXnPKCQjQ98bgMIXbB-18">
          <mxGeometry x="10.00465057081857" y="119.9963342318058" width="16.956988392648142" height="29.919137466307276" as="geometry" />
        </mxCell>
        <mxCell id="UIcXnPKCQjQ98bgMIXbB-22" value="" style="triangle;whiteSpace=wrap;html=1;fontSize=22;" vertex="1" parent="UIcXnPKCQjQ98bgMIXbB-18">
          <mxGeometry x="693.0388642712663" y="110.036334231806" width="16.956988392648142" height="29.919137466307276" as="geometry" />
        </mxCell>
        <mxCell id="3UB9JmVMNoAn3cH7Qgsq-24" value="" style="rounded=0;whiteSpace=wrap;html=1;fontSize=14;" vertex="1" parent="1">
          <mxGeometry x="410" y="80" width="320" height="57.18" as="geometry" />
        </mxCell>
        <mxCell id="3UB9JmVMNoAn3cH7Qgsq-25" value="&lt;font style=&quot;font-size: 16px&quot;&gt;Que estas buscando?&lt;/font&gt;" style="text;html=1;strokeColor=none;fillColor=none;align=center;verticalAlign=middle;whiteSpace=wrap;rounded=0;fontSize=14;" vertex="1" parent="1">
          <mxGeometry x="434.37" y="88.88999999999999" width="270" height="39.39" as="geometry" />
        </mxCell>
        <mxCell id="3UB9JmVMNoAn3cH7Qgsq-52" style="edgeStyle=orthogonalEdgeStyle;rounded=0;orthogonalLoop=1;jettySize=auto;html=1;" edge="1" parent="1" source="il3lP8wMFANZ1YkQcDEA-1">
          <mxGeometry relative="1" as="geometry">
            <mxPoint x="769" y="-40" as="targetPoint" />
            <Array as="points">
              <mxPoint x="769" y="-20" />
            </Array>
          </mxGeometry>
        </mxCell>
        <mxCell id="UIcXnPKCQjQ98bgMIXbB-24" value="&lt;font style=&quot;font-size: 20px&quot;&gt;Login, y registro&lt;/font&gt;" style="text;html=1;strokeColor=none;fillColor=none;align=center;verticalAlign=middle;whiteSpace=wrap;rounded=0;" vertex="1" parent="1">
          <mxGeometry x="749.0699999999999" y="-110" width="40" height="20" as="geometry" />
        </mxCell>
        <mxCell id="UIcXnPKCQjQ98bgMIXbB-25" value="&lt;font style=&quot;font-size: 20px&quot;&gt;productos, envios, quienes somos, promociones&lt;/font&gt;" style="text;html=1;strokeColor=none;fillColor=none;align=center;verticalAlign=middle;whiteSpace=wrap;rounded=0;" vertex="1" parent="1">
          <mxGeometry x="144.4799999999999" y="-120" width="40" height="20" as="geometry" />
        </mxCell>
      </root>
    </mxGraphModel>
  </diagram>
  <diagram id="7aRPQQMCwWmVL5ilQcdY" name="Page-2">
    <mxGraphModel dx="2858" dy="2188" grid="1" gridSize="10" guides="1" tooltips="1" connect="1" arrows="1" fold="1" page="1" pageScale="1" pageWidth="827" pageHeight="1169" math="0" shadow="0">
      <root>
        <mxCell id="Ubl2RvmbOQjZFFbFElKq-0" />
        <mxCell id="Ubl2RvmbOQjZFFbFElKq-1" parent="Ubl2RvmbOQjZFFbFElKq-0" />
        <mxCell id="wM9CLqz9pxGZ1QiUGeh9-0" value="" style="rounded=1;whiteSpace=wrap;html=1;strokeWidth=2;fillWeight=4;hachureGap=8;hachureAngle=45;sketch=1;labelBackgroundColor=#ffffff;arcSize=0;fontColor=#FFFF33;fillColor=#E6E6E6;" vertex="1" parent="Ubl2RvmbOQjZFFbFElKq-1">
          <mxGeometry x="173.09" y="50" width="776.91" height="144.64" as="geometry" />
        </mxCell>
        <mxCell id="wM9CLqz9pxGZ1QiUGeh9-1" value="" style="rounded=0;whiteSpace=wrap;html=1;direction=west;" vertex="1" parent="Ubl2RvmbOQjZFFbFElKq-1">
          <mxGeometry x="173.09" y="194.63611859838275" width="776.9100000000001" height="1097.035040431267" as="geometry" />
        </mxCell>
        <mxCell id="wM9CLqz9pxGZ1QiUGeh9-2" value="" style="rounded=1;whiteSpace=wrap;html=1;strokeWidth=2;fillWeight=4;hachureGap=8;hachureAngle=45;fillColor=#1ba1e2;sketch=1;labelBackgroundColor=#ffffff;arcSize=0;" vertex="1" parent="Ubl2RvmbOQjZFFbFElKq-1">
          <mxGeometry x="173.09" y="194.64056603773585" width="776.9100000000001" height="289.21832884097034" as="geometry" />
        </mxCell>
        <mxCell id="wM9CLqz9pxGZ1QiUGeh9-3" value="" style="triangle;whiteSpace=wrap;html=1;rotation=-180;" vertex="1" parent="Ubl2RvmbOQjZFFbFElKq-1">
          <mxGeometry x="189.99964460772054" y="293.3718059299191" width="33.913976785296285" height="79.78436657681941" as="geometry" />
        </mxCell>
        <mxCell id="wM9CLqz9pxGZ1QiUGeh9-4" value="" style="triangle;whiteSpace=wrap;html=1;" vertex="1" parent="Ubl2RvmbOQjZFFbFElKq-1">
          <mxGeometry x="900.0002773536323" y="293.36754716981136" width="33.913976785296285" height="79.78436657681941" as="geometry" />
        </mxCell>
        <mxCell id="wM9CLqz9pxGZ1QiUGeh9-5" value="IMG" style="text;html=1;strokeColor=none;fillColor=none;align=center;verticalAlign=middle;whiteSpace=wrap;rounded=0;labelBackgroundColor=#ffffff;sketch=0;" vertex="1" parent="Ubl2RvmbOQjZFFbFElKq-1">
          <mxGeometry x="550.2437324692465" y="353.20668463611855" width="22.609317856864187" height="19.946091644204852" as="geometry" />
        </mxCell>
        <mxCell id="wM9CLqz9pxGZ1QiUGeh9-6" value="" style="shape=image;verticalLabelPosition=bottom;labelBackgroundColor=#ffffff;verticalAlign=top;aspect=fixed;imageAspect=0;image=data:image/png,iVBORw0KGgoAAAANSUhEUgAAAOEAAADhCAMAAAAJbSJIAAAAhFBMVEX///8AAAATExNcXFzn5+fAwMBwcHBHR0fd3d3V1dX8/Pzz8/M6OjpDQ0Otra2FhYXv7+8uLi7Kysq3t7d7e3vj4+OdnZ2ysrKLi4tiYmLHx8fX19ccHBybm5uqqqokJCRRUVE0NDSKiopsbGwoKCiAgIAXFxcNDQ0eHh5WVlaTk5NgYGDDl8T0AAAJb0lEQVR4nO2daVvqPBCGBVlbFxYRQUFwQ/H//7/z8h6P5knTZibNJK1X7o9K2jxtJ8tkMjk7SyQSiUQikUgkEglP5P0rK/NR7Fq6Mxl0SLzNY9fUkcU7TeB/vMauqxt7ssBO5zZ2ZV24YgjsHPLY1XVgx1HYWcaurgMHlsJB7Oo6wFPYiV1dBy55ClvYK97yFG5j15dPzlP4Ebu+DsxYCrtZ7Po6MBpyJI5jV9eJ+9vrCp4eVIWb2JWV4FlVeB67NhLMVYWHSezqCLD4BYZoAcY9x9i1keBGVbiLXRsJwBA7bZxB2cBxTz92dSS4UBXexa6NBE+qwsfYtZFgDZ/pb+wRJ7/fEMGbcxO7NhLcqQr3sWsjAU4iF7GrI0AOA7e2uvcrgVlyG32KVsBhNW2jK8PG+Ncb4hkobKFP0c4nSOy2gLfhhjX62nbaCOdjW9gv10QYK54Zfam4UfToEomr/U3jia6QtVjcHKZ0hS01RM6K54X9ag2E45FopyGuGArn9ss1EE6P2ItdWSdYy/KPsWvrAG9F9zp2dR145gg860PZUY/OSC24XxBKTKDlnjHuhcbEmwVlUJbjU4RlgQtSEYiC4cxHcSbLjI6Bu14zCqJCkmlcutZzA98L0xsBPsUHRsGQCsG1yzND3afIWGULqHDyphbkegVxlY1ROqDCmp7dc7U0w6cYUCFY0ju93BdHtfgLvVxAhTVXWFxb4nAKnQ3pX3kIj6IHDIdTiKMSh5CDD7U8vSkOpxBWq10WydC5T35E4RS+qMUYPppvHJ37wRSiGa6pxVTgCmRnZDCFHiJ/VuoVyIYYTKGH6C107lNLBVMIZugW+IOzL2qcYiiFI6faaYArg2qIoRQu1UJvjnE/8KUPiYVCzYAhmnlHLKQDj6mz7pOAJm5KKbHeq0W2tNv0py4fmE57fIrOwcytce67CkRDbDDuu3v69os3AvdoirYYYo2ImH3supM4uAvEKVhjqROZ1g5DvKqhMLNfvgEwYjCKtKFHpA1+yzjabxCdegGivF2ncagXbY/OkOHADoz53wgFBgPwW64IBTB1Qs34ULZzHxon2uwJgpIpzQbYDiNOyAgs0XUJBULMgOEd1s3Ccg8fxL29QACFfje95ODKIAxxAyjEcUjtQHQwRELUUQCFEChS1ww1n+Kj3fEaQCF8VvV38nINUV4hmuGMcodq4Hr2JATyCr1v5IUu3G6I8gohcNJHVgT0KVqrLK+wq/7cx4Z6pnNfXKEXdz7CywYirhC+qXcv++lfoc62X4srhEU/P1mCsO2y1VlaYQbufD+7stAQbcvJ0goFzFCrgW0tUlohpvOiCbDCMkRphWCGnOj8KjAJgWWKKqwQvX91/IgqLEMUnuOjGXrb4Ao+xcdhJfBCDtW//QI2j19W/xZa0jrufATCHBuEv4wPa/vNouAxAWlsKSXUcucjzKyZgbj0mCtgY79dBHwmXhnbbxcBn8lzmrnK5tEMtbFSQ6ANJ6gw09cGwSUsuJyR/YbB8ZvDKn+x3zE0nvPKNM8Q/ZqhloTgYTwqBTqWffnvfujBwL6/KP8l7OTynZgTnfsVkzjB+FLv7nyE+vwEZ8CYzMJ7eieqL11QIawvfHIFWEHnfrkjVlAh1MB/omqqEcgpxD5ZIOs/pOUpN0Q5hdy1WjZEn6KcQu56Oxuic19MITtmgg0xxkNMITvuhQ+4NUuTEIgpBD8DJ0MAHVqQh5hCyJPHTS9Ag+bcl1KIMYQyBxlNwDddZohSCtFV5NWB8QMYYpmjS0ohxCP6c+dX3KSs8lIKSY+3LhgwXPKhCClEb59Y7l+4S8nanZBCjEcUS6RO+VKEZsCw/EXd7ckHfIqP4/txkXv4lPfG32iMwIsxN5YYwbqh3OGMOHCKh1N6ARqxpX0h1BueeLbfPQByZtgU577kuSLNSGzq3Y+okE/t95dHNE18EwzxUlKg5lOMg+w5vhN7BcQR7CtOxN+iLzO9V9hHFvgifo5YFncl8SPEQWnj4+o8Dqsnya4wkUgkopGNt4OL016rx89N31dLnvU3q1MAz2E/uJ1FPY4pm2lHDOy29b1g+fIDL/rcjyZyacqacV1PY37sFq853UbROC7LClJn7F92OsqLoPOpjIr4/b3ra8x35RcNfRJj9llel07nzW3D1aLSg7ALemJoz5a3xmVhwbbn4SHgEXC5/fgLfvAnIVGM8NxXgbI5gRvRQ8mctg91xjRpnv/IM5uMlK9JIorGAPHguR3rosR5dZDT3snOKM7mQHLatBCtDf0sKLrVZOSTe3Ziur4pOvafl4vepDd7fdP/QQ+QLA5lbtanc2Tmxccp78fQm5nVdxOeFdZtqKPJQjNz911yomuUb2y0G0IEXe8B/0nt97WuEIdEuolKd4raeWWahgnaEzXxCH4XB6010fTLOvX1dqbQeGMcLzUJNU6YCoNatFIf+VqqgJdkOIDoWF1ZIzicMSSFQzOtK6EabEkNdoaRPbTWFL98w3uvdXIVE7hX19ThwQojbVIHbbDxI4QYc9nD0OFxG1OnwC9oTTvYtrEhgaZI9pRpGJMaA3fgLe9IF4UQdeO0C6zb/04LFQhFNj5uGLbSdltDMJnRyqA19buzUgdMxjjQh/6CFvkC3hlj82u/rTfgYRpXY8EXQeu7YOZkjG+GnNSyXT7U33gCEZgMLQEu1N/Y/IKP2FfKFjP2TQ/gL6NFL0Hz9W4wXeGNh0AO0eyG542DSFrXZS2DvllhZw20e4aXiE4q2oxcy2dQ+D++wvrpPKvBOWAhIRyeQUvdjIyubr0By/CpcY4MdUGb4g9Ropb+m9qua74tHEnowR/ik/w93u9F6b8yPeqNOkbWnVvnynNbaPP/qfgyVOHI7tX47z17hfzt9JR/BQ/s3V8LzkYFR430BPjMFBT1/nzzOhgW/szYQWeIW70YvN4MipkcjPMZz5BdmxyfETlcTnZi8cW5vR7/w3EZURPgSHcVf8kN69AGeBNV4hEFgRbYSNsuuOHmpCD5YGvdhfa0CD91KsEUA7Sj/7A+cJctEZUL5yfkNgMZsLxFt7CC6+qLBmlGf7gvrMMouH5NlXHywUNLJ6WdRte9PbgvXWUbhlvD/wHPLfzHoZ4b5fbBdNGprI+0nH7hPV5s6o6q8m0hDmIXS9+J3laZTwyPYy8D/9FGmTCubgOG0ZSQz+bLq3nfr6H01vPlcj4LFV6SSCQSiUQikUgkEj/8AWJ4m338uIc8AAAAAElFTkSuQmCC;" vertex="1" parent="Ubl2RvmbOQjZFFbFElKq-1">
          <mxGeometry x="889.8178818415344" y="111.85983827493261" width="36.09935763259961" height="36.09935763259961" as="geometry" />
        </mxCell>
        <mxCell id="wM9CLqz9pxGZ1QiUGeh9-7" value="" style="shape=image;verticalLabelPosition=bottom;labelBackgroundColor=#ffffff;verticalAlign=top;aspect=fixed;imageAspect=0;image=data:image/png,iVBORw0KGgoAAAANSUhEUgAAASAAAACvCAMAAABqzPMLAAAA8FBMVEX+/v7t7e3////90xzs7Oz4+PhSFw/39/fz8/Pw8PD09PT7+/tSFw5CAABEAABJAABLAAA+AABQFA//1xxQEghODgD/2iRNCABHAApOEA5MDA1MBQBEAAf/1yj/1Cv/+vmnkIu0npvp3dvz6ef/1Cr4yy3uwC3CrqtjNjCGZWF3VE/MubfXycZoQDu9jiZdMCrOoCmsfiLarCvFlyecgn6gcR+Qc2/Fs7Hg09LUx8VxTEeTZBt0QhJ0UEy2iCNlMAqCURdVIBnluDVdJglWGwaJWReaah1YJyGZfHqLbWhrNw/JnBg1AAB6Shns49+EVBhnkIagAAAchElEQVR4nO1dC1vaTNNOUiHnhEMCKGqEVBGB2gNVtPZgT2rfpz7//9+8OzMbSNjlpEFpr2e/6/rezmOLw52dwz0zu1E0hS1NV2FtKSgUtlCw4UeaLREK+I8UFFSdPoEEiwQ1LZgoGCQYKJgkWPT30sLWhumjKqSDvjVRSEkUQsGWCAVlotBWWqGttEJbRlohUyIYW2mFttIAbYo+6wRI3TCAHqTPfwA9I0B/iYlpuPQtXCQVSLBRsCVCAQWFBJ0+gQSLBBUFgwQTBVMiGCioJFj0CRumj6ro/625S1H/ziefmz6K+nc617z0USQALeHM1A1zruvTRwbQfzvoP4BWAWgtTlFLO0VFdIpK2ilqWSetmqZh2BujzzgPIqT5BxG4/INEIfH2HGn+xejJ0xdDYfzFUgI9bDMtjL8Y/0n7onVwMGydjwwj+WLPp8+GZdKG0TsLXc/3S77vude3I/jefy1ZXVUhZluta7cUFPlyglJ5cMEQ+lsBWtG56sbFsTdGh6+w/PFe+1vJ6ooKRQduyLeOEwSBg39winW3xzfAMwGU8fbPRRHg9565Dm0a3w1uTm9C1ye8gvIBSwSfVh9y0igkZNXC9VSC8KNCdOchHHX3sjWKIy2K+62BRxC5Q/up9ZkIm0FWVWPooVt2T0bMcOxCoWDbSnQx8JiRFR2388T6pHbiZnAx49wtOmBd5wqAkyw7ajG37TCERtq8Yvtfz8XM+2vAIbxuawwWPQWRdgGBzQmPI7ZPWIptmpYMoKflYk9fKjWGPsMncNpKYXppfZcBVPRaLMPun3c6vVFMJvaMAD35DlLvQ7aBHPdCmdo/iFDHhVB2c3vadD223GBw0NaecAflFA4fQQ4Vs+UzDEpnmrB/EKFuHRAaZ9gBywMGPd1cmz5TZJUWdTJ52lgggYMrEZInj0tXUpvvIZ1MMzqGL+/HthQgu112ik4mv3ZCd4A0bS36LOysLpHaa8JWXJr7bAmmYWGIL9ZPYtEF0RZqFh2HUuwEKQZRCwBahz6bRjWM8zJ962Z4ITUyu+cBNqHvlctl1ysFCJPjdie9+bz0yeygDQHIbIdj71IeRrbopguR5xRLLMO+aMfxqDe85pzN/xgpfwdZNQ3DMGXagULGJfjgYgUNxxu0JZtI6XrubZsZFCxFUy4GLiRHjtfVDEiODO5M10RWOUDcwSvog7iDB8GWCGjzk5ScFOLRkBTi0RADRrvXOej02vgtxtFQAYEpZB2gAwq+Nbhr6WiCr1Y6Z/fp/6poHSSyDKHu5enpoDs8v9eoorhIH8QkUUEQkmjIAUKB+0XOzDKCvkAoLCEocWtQ9jzf88rHB+CEreQX6fjXCn10QI33hx92aROV70RfbU+DprVv6uCJ6vUwCMJ6iX16617RV1HOWiQ8BVk146FHRQv2bQLfHcbmFDmMrqHws3O1X629C3bwb/o3I3lCNF4I/E0IH+ok8Z8lR2fxIn3Sqc8GdFY1ZXTsZ9IX/7RPmdc4PHfhL1TCo+qLF9WjqwZ9V/cgkqdEqaW0/enqY8mHyP8HcTGt3awn1WX+oEPgVBOFtE4Z8Nl9x/BhCO2/8bivPrmXp0RpKwMKEoTNUqkZ8o8P3JNY+3O4mBbX0bqCkudf+x5/4B77DolCZhtoVrHxYe8Frdrb7w0wx2LT6Ym+empFl54XXHaHw7uP41J/6ab9x+wgTRvg/imFw34cx/1hUMJcuFS8SPpZ8XHIwNj+fFjlAL2oHv7LfLUDm+F2kZnZo+FFTN/BGA2LPiSPTt1p2zkDlITD3J00EQivG2sse2GBKL4jThW4QwrC1hk6IP/rGB+29l7525QGDhb5aptKj/hHLT7w8XmEN7G6wEkvJM9ZJ03r0WSVCxYJpmr1MH57t8rkS3S8OhqQx747e7o9NLDdT7UX6VX7+rmBjIv5K2Whr56gpbUHgLdTOtFk+giCwTcfWQYJ1kwhd7JqtrFx0/wYpb4E+w68Mu93NC1ugt/Y+bL3Iruq+z/dCgAZuN0Z9FUOUXSHFWyWaor6CK5j65nJqnHSBP9cz5Yw7GhYDije3EVIMSrfD18Iq/a6vkM+97q/wMyyn45JA/ul2sZzMU4gyr3UDsA8VuuFJfruTUj0iu7bqggQpES7KfoqsNeZCA3gQ/2DzQeo78Jm927p+evIMulLKPGJy2s7DlCMmgQf8NVvXPLV3iBefhPZI/i9QT3SnpisqquRVS1CHhAOyAHZStzv9doKVZxtrZW0mBnFmHZAEzPDlAj8Vfl8eYS0WzAy71zTHkhW1a1ZZNUAYmYsEgok6PMF7Q6TEreNu0YZdV2XkdWbFi/2aKNTyrArpSOZgXEzO/wxpq/m0luo7bFUot5VppSzDEGwFgk6CWsgq0YL43e5g09eaZWbOIgQjIs9SjRAV+2+no0PQ2jvVUhV1n9GS4Z7vaBAhd/xWC60uWTVHCGr8O8QDe0A8iHyOqHXwcxG6ftY4/g5wwGNzew1cl23tbyNKR2IDu6FucFUIx7Agw9vkCooF2XOV/H/uVDsseNrKAhuf96fj8+L2nuI9s3uKqG+DSHA76wVoEftINW4pceOZkFYFAPP8+pU8Ljpa0q3xAxnimLI1uF3cELujHaQfOEvLB0YGwuQce6lzCI6KUFKXO/EoxOPF3taLcwBdl8tMLAX1deQDPnDFTYQ+43QYyud5QhQvmTVbmPtp3SC0ZFFdAxnPfgRHyBzfMwUGz9mRvgxQB/Awsr3q2ygggYGjgDlTVZNtjglLaQFWyIU0kJCVtkfTTMiilGMbaiLjjAn9G919vcMFt39sT/a/iahGFNr7xfLFcPLlTYQAuSUbjUlo5yJy0oLCVkliQRLTQk6FySVwIeRVZASioFjCDbli/VBrCI51KIzYGLorj0pxZC4oNLBCny1kJjYUNtMsmr0cMt45DZYvggOyB+Z5NjY6vkBdpF33yxyQGwdwT/3zlcCyI7hAUBxegFAz9JZxTkoRg4ukWJoHXJAHT3x/AyhEe6wnd8vBYcjuqCvkG96Fyu5IBut2uvJAHp+smp1wf8GPlIMmwrOLF9MdjFw7BOqcQgU4+i94LOrX73VAVIOwM+V2w/cQfPIKgGkpX0Q56eikJDVLEAWxe8yGUV0HGIFNOJnI7CZ2iITFCjG/q9PwhZ6GED4BLxoGqCtNECJPoKAAG1NAUQfrBu4JEJBIuiiYBs6j1k0B6XdUj40UhgFhGUxVj8qF6U1jtr78pFoYkdhBdzJSj5IuYTHUj/RbImmY0o6X8iikF8epJxCjyI8Rgek9JBieAfWhA+qcRGLrL+mKUb1dfm3JCt6+Y0B1LxbKcwr+Fwc98BYI1l9mK1qZz4WyTjFqMMUT/PESLkvHV1UpT7tgNhW4a3DqX31ZQcKqNFCVCZLL1DZ1SmPNo1qGLRlEorxseng2Ko50QGrIE5x9920ge1f7cgq0y+qn6Bk5vZWsDEdyq51MrL1AfSQfMGkVnmpSxSD8kW3Z0x0UEYe1jg+iA6oMaPyegSTZeFgtVTaJk3KfW2jdpCBzy24ianeQyXpoZ4KgBTV0m3UxAG5s4j93tU2wrwi2Wh5kL9f5gVQLk6a5jAdt48UI74Bd83yxbSHHEraqOiAgorYG+M/e7cLqXi4Ur0DEwzINkY5kVXsONg6cTYSChKhQJJE0G0bxuFhyxxQkZX8pNfW8cORD+rn0jYqC1VXO5XGLGL2EugqIL1aLoQVl2ZXJ+VAhYSsjvUBsioKFmeuaUgWkdVMoignqwqMQYFKnGJQNuh2jEliBo1WaRuVOSBGPGZVPqpvsT3mf1ylw8q20GmAD8ic4VvnJ4proBoaUQwyBRtK0g6jGFbKl5lJG1V0QEVnd3btvvYTAplTOh0tnIZJb6EW0Fy/ZWzKGDDFb2qj2pxinMapaMhHxYU2avWQJcvbs5tjmAJgHdK7vddolIFZwiKA7BiaAuHA2oxDvYUY4qrj33KKQT2xvjl5YkaPIrwQzPd+s6+/O7c0dPiNTy763fN2pChwEnHGZpr8Z+0OynbeyMyzsyrxQfPJagKQgvFpQjHQAbWsyRMzqAqyfTVd46i92ZX5pWR3/a+K/0MDwsxXe75zenzd9P6RRzXlYgIVzOYzGzPzIKs8ihEzywgUqwoSQU8LyLCcMrVRo9MQ88UIKSB9XNQtObI2avUt0nV5DlQ9+kx/v3r4hQYZwM0F4Ou9jibJjOz2SWJ7jHDANq6fFLimnLlaEsEShSwKj8+DLiCAl6iIaPeBcARONM472MamRqs7Tbeqh99ZEN8RMmuOz/fEIKt7n7xGpThZwaA1jAWAopvbCWxw/oXBGW1EZxVKVA72HnSoV7EcmuW+E19m9l05xdgDLlrxxToH4vOtOaFntcP3pcbOBKPAL3emPbV2Vk5Vr3mDdbQRnVVwiMEpKafclopOcKxOFDLjU6IY0zWO2iewnIa0OM0cz+6b9IarHb77XW/Q2sYgOcXxlU7ZS4FG5Uy/tRFc7JIl9nXeHgaAGFrxZAcZdzMoxluv4jjb32Tt5+rhZ4HfV2uHb9+9ef/+zavfgJCX3ULQcc7UHhUnwFpS+srT59pBUMNLyloKHq4EL8oVMrByL7ZR2R6B71mW5oiHVzsNsQT7ooqr9hayruDaSIcyFhscLz0DQk7odCPIKgychAN6oPaojDQMzwQwp2iOcFJTbKPu/YDgvfOvzMD2vzTmDTbssdzRSQoriQNiqTP1CpIdhE/KjzP89HnIqj4swYllHlZgShDyxJN7HchhdFmHCC+0UauvwAFVmrIBKoZdZQ77YMbp4kM4G1NYrQMT2GE6stkstjrM6jJqJ2Ge+KlEsNJfPC+yamLASHyC3ceY7pSK55ZqUeGsIrRRq1+bFTQ8GT7vd+fQV1i1Dw0HD3RwCqvAWFkxuEl7Jfu+jF7afn6yqt5DUhZcR8neTgZ9b2PKiiRt1EMsY0hzaAxuM5LH8T9H/+WUrs8jhZ+Mmlh5YmMeZmf2asFHXQNAWwr4Q/AJNg+4Ph8FGvSRYoht1L0PjeKMFKjG6P3C0TMosuFD8D72IqWP+IwDaWJ2YOv1kxUBWgtZtUdoVd4d9wnjefoQLyYR26hQKITqvWRAqPrVr0iqIuJfC3fw5HPduz7FW6ucJJef+G1IOI6jvDurGR+0HFnVNTyU4vin/PTJeJ6e5jim/S01BFkEEw2MEQxmPNIeEP347fhPvxo01Bckx+r87BiIcsAIoHNt5kZWJf67IEYxMaQZpm4bOOaSOn2i9YIS11s0FyrxSLfJ/q+dOcPTtXcTbw8HOrZT/AxSiyxAHYzz90oqVmWiWMJPxShmpFHIpbNqjkJEKBVY4hOc/S1uC21UKLIyvib253lyVPHkw9MMkn/SFe3a2190tIwvL9s/sy+IjanPT1Yt9g9G1yU8z1Zy6PIE3dbwPg4pxcCNJemEzWNnLPW+KmejXvXlq++0iRAlt589N4OeEet2z83FLKSkXSy7JpcnYHNK5oipxgHHnEUIXsOJ1Rk5NKP3jWA66lX3sXGGHf+il502t9uQYnjn6wBo1c4q/lnvlOkEBs7TM8qBNY4fQo3jX3RA4axhjlnHf97ubIvZdZUGzf1LamJkAYpBA69lbMYOYp+g3VN0d+puR6PCojipWUOKIXVA6KBnHP+psc01Ofo7Xkc4R13qgj92mlM1tOgfTKUfD1AOThoXc2dDl6J7+QxrHOKkJs1ESScU97DBU5GWP1j4qmx/FuYbXkLJn9lX1PIdJwinKkQRjtwfGM9OVnnzkglG4bzYRISaTTkO+5+3pdweMHClkOLPXrkVyU+w5A+te3sIOWFxqsYYQUXIP9AeGebnktVlE0X8RyAY7RNvHHglbVTcJTu/xAyIs1epgSE+YmyDihtAemsYVKWbBghSSL+1eqK41hOHZtTit2cyRyzUOF5DYNkWJzhZbEMHJCZNhA9EPWEsFhgrDWEbWJGaHjiPbmhg+uHBZx0AMWFEZ8Ekh8GgjVqslCRWlLBXCYkH/+NUhAhPSaUT1EemasDgZngyBZCCE+W3G0BWp86sav0ZmSC2USuyAIbsVTb6QfGL/UT4Rzwcuh320C0o+tanD00lI/ePBuixBbNpgHC0QjKpST5VBkLCXr8IZsQcDWP3kpYRsH4IUmdgFAZA0Zy+ZBAnTvAA9CMLZvlFMRT4hTdCMRULGSywSYhowl4lyePXUJ5cUzgMTyOISIXToDhd7UicNI9ikpKrrP6aKbkmw0L55UGYNcxso0IVcFecpx+Ha4ntMX6xDVYpuKYa+izH65OmcoAcfrJumTzo6c6stvmkphDh4Svt/pTgM5u9Mn4KZTHRKslnOYxHoD4aZTzTYb5MieIjfWu+Jw4nk5qyryQhC2ztf5vFXnlr6IuAz1EJKcaJoU4AEo5NEUBr4WIPPdTL/o/Oqwo2UT2qV4q7UnwoeRSnyxPTqwRCWrl3tYNtgrapzt5BjKyCJp2N2kEaDZOLNgFumOEjoRHU5GIOSDSw1/KpNKy44TlPQ50HENaDvN7jyx05OmkcNZMUm9leqEj9c3KwWeaAjmaQD+6zvKE11kcKEFUU++ZSFcVlyCoMC40jOwqFBYJNQhLmDf2ySTUOyZyCK4vv3MCcnd+CA6oeYiCXHHwhSOuXylgfHtCzACk4ZOa1eU0aNZ09QDUO8+kBKhLyI6tmR07IYVbDfyXFp/q2LC0bEflwZJd74FRRMfDjiT6GbAdhc94J7x/f1VAEgB5INQwccBdp996H3fCtvBOIEazii+yMMwmxdUZ1a37LFNfHkgGkYQ3kejPGgOk34SjethCuGYf/NeOSF3K3kgZi9SuWMsTCEeXjjn9mpfSxbiSJIh86kfbmVwk++QGEVZmicKqgeuT/mNEoxfqiI6sB7WPvviJ6M/JM4XGsLgQI/mO9m0PrOS+yajLK6IgVner7V7LwDgsGfYqNL2KGSDtLUkSksojjjsy0PtYgFE8mRjjdMcxhuiMnsqpgYtZ4I4DxclafHf2MzEHTnR2Sim0NT/8U3ZaeUUH/iHMKGYAoDfI7dlrT1eaDciarKvahGnOvTMrCAPFalkG/OPyG1Q9hKIQPdfjdaX1gjHTq3B1GeWgFpfnpw4r2tPseTTVMylyXuHEi2Q7MXMTRqhcJVZdUP6gsElzDxEZaHwpYmfmpAg4nB0FUeKxvzY1qEEDuwjuBxtsB4lFZOL9KB4CklUds6ifHdTMA4aR2tu2Do6VsV23CGHAaoOVNDAqw0hs8ZpEPzs28A0EfrQPT69nXckRwKJRFto0BaEvFVq9sele6wBHLy2c/YZ+I1Q+iGE7zMhIB4oMcE4B0Gwvj3vlGjAEnZLUeyKeipGv/87b0iiVi93RFeWZxihG2LVEfrNJlxl/Q6orefR5nNeiU2viAjyAUJIIuCEyC1LXSlB69EPfJp0ZDUqPHS5UcScU2qcuWe5qojxXj4ac019COA4f57UKiXMJPUbAWCEYGktzIKo0DL7z6j/bJ4ffG1b6sPIQcTPyQcY1Dk+mDqXT6sjw6qlG6NfI4L6YIAD2Maqh4DrIoYZ6SDfSmfCXlH9hblKTjlBrVB4om0wdbq8HNJIxxC+utfOJQFYJPnmyeTsZ/m3P96BgH/0p6hRlG8oovOiCsTgd+W5PqYxAekwEhbDsHxXizLlgy7+t48vLzQoRqb+T4MGILFENIjsZtVE2uj9mnw0/JVT9ULCudrX6oV7aD8iKr45M928G7BaHs8Iv8Crzajx1pG/XIR4pxhndYSfRR4QSmE35MnJCCd4G6Fzmdm0eqmSarymKyqqTJKn0CkEF6V2pl98P8SfAjOT7oicWDL5M2Kuoq04feQJbYGN28EF7qGeXM8c0LJCy6eUFZR2dV4ddtNj7PKCHOXZjqSNqodLmAN7Jm6qN34D6TEh1a5dej0u2WOdzdQbsvr8bhHV03vu3Ji/TzFt5DIZYXiZs5bmuOPlbsw31OHtytYsP1qMjDtDx8a963AUcHfIBq98sS0Sy7U9gGkmTi0HOESU1tnj4Ux4LrkabF6SuoNoeLUeOQ6WBd3NCFpDuh2Aycv4G8itgygtth8N1A8RyAFEOlllzgn3SdJrzehHl0IfhsAkCajjPloKJT8X7KkuVZa+/HjqQ8VHuDDgjuk5qrj9Ghe6vrmGoU68dxfgDl6KTRKcJNAmhmlcavo+U3EcuBxPIHnY2GGscifTCCJgOk9WJbHevzWLLKkyvJDYI8q5AIknsU04J2PyAz2/Zf1ZbcRCyJlryk5fA7DJLVB9FifZS7Mj8Z5XinsZJVbtHViTJBQla3HnUT59bYVNnzpZlyp7I7q+czvQ6/74gOaO9fnOPw8LrcBfpoWsf3mmHY9MoHYOwpfR5BVrfW9OIR0+oFTfLV35dKiarvdiUOCNuoTvncWEofLe7cDQbdVowBPqMPOdpNGAMeK8Rnyh2HpURL+Oq932VxkOxrQjHU5fRRTXgThi3V56HBZ33vWTUtfkd7ZfdqcUp0VBYzoMPPUDwLT6UqzLnwKWeAFpDV5W8kFxSykndA7oSL6Gv1jXgXJ2+jltur6aMu967nFW8kz+dOeyakr41XC9GZCwefixX353xfvfdLcEB8upxRjNz0Gb+ADYTxC9hAkN1pnwh5ktXpvEO1OmHdIfr6da6vFoyQT5eXuoaanz7PTlZFX2aMLtFXs5To00r0NWmj3pu56rOyb13ja0TpXYmmOvbV/y6ZEsHiAx7uhZHvA8sFoAflC7MVMvo3WM5nKdHS9HXcRrXy12eTdhD/SdTF24GLFe/9zGGYLD50GrV5Yq5Dn+cmqzKn2OFVosbVUvSVt1GD2FyHPg8jq5IXiWeE5d+gLhPscUpUf7eYvnKK4Z7b69Jn/hvUM8JS7zicFha841B8p6BqxmdEthdW9McjnP6ttTZ9tma945B2IjdVFMjO1kA1Et8BlUD4mX3hEX1tfJtPX/n9bzCpuQ59NoWsCtHH0OKPdCS6Mr+iX8M2qgOvBFqnPs9OVsUnpmktfn3F7u/Z9DVpo7bgnZ5PvYOWAygvsiqQQ00bJSlR8HqGr64eeUQxrPXro6xEVlNSHm8LFwQkh9A4I1/tvZdXiZI2amw+hT6L3xaurpWspgWb/5tzugOu2Pglo6/URi16/SfS5+nGgJfOXLX7S/LV2744g09tVEYxlCfTJ2OqimCqT0E1phTSogMys6JQ0eej4oxi6E+nz2YBBL5D0/rXJVlKVPuK11MFxbb5hA9sLQCpD1cIk8eY3xKz7b0/TCCqvnxVxxu33J7xhPosBmjtTlpCDjWTuq8O20Sfjvb39vb2j179oovZvSFOhj2pPnPJqs7WmKbpuDi3WyAUFgoFUUh+kcLoK+XVDf/bly9fPvtw1TjMO59FhWfQZyYKCr68Mgekt1bdidFt0iuubO8kN9Y77llOT35lfeQ78SmpxpSgaT2vNLkoEgZCivXyAV5m/hz6PDdZlSkUd8tw42qCT718OTJycq5/IlkVBMWyRme+65fq9XrJ97zuhZXbe+L/OLI6QyHTMC8Oht1u97Z1EVumNDw/pT4SgLhC6kMVyrR61cwTs9I6JC/6ySiEf+aOlCjp1rPrk71h9KnJ6mJyuGn6PD0XSz95ZRnT2Diq8azsOS/f8aeS1b9iB/0HUBagtTvFZ6EI+ZHVRRTw8YK+QFjPb81JH135W598Tvo8K9VYZ6HrTyCrf4Wzf142/wfkU3IuRsLM0X91Se4z1ZsnHTIKqWmF1DRAm6KP+n/ymWbmEZxHuQAAAABJRU5ErkJggg==;" vertex="1" parent="Ubl2RvmbOQjZFFbFElKq-1">
          <mxGeometry x="282.7779044625654" y="99.89218328840971" width="73.25630947978905" height="44.51322499659421" as="geometry" />
        </mxCell>
        <mxCell id="wM9CLqz9pxGZ1QiUGeh9-8" value="" style="rounded=1;whiteSpace=wrap;html=1;strokeWidth=2;fillWeight=4;hachureGap=8;hachureAngle=45;sketch=1;labelBackgroundColor=#ffffff;arcSize=0;fontColor=#FFFF33;fillColor=#E6E6E6;" vertex="1" parent="Ubl2RvmbOQjZFFbFElKq-1">
          <mxGeometry x="173.09" y="1291.6711590296495" width="776.9100000000001" height="618.3288409703504" as="geometry" />
        </mxCell>
        <mxCell id="wM9CLqz9pxGZ1QiUGeh9-9" value="" style="rounded=1;whiteSpace=wrap;html=1;rotation=90;" vertex="1" parent="Ubl2RvmbOQjZFFbFElKq-1">
          <mxGeometry x="914.0393147157113" y="827.9245283018868" width="50.87096517794441" height="9.973045822102426" as="geometry" />
        </mxCell>
        <mxCell id="wM9CLqz9pxGZ1QiUGeh9-10" value="Novedades" style="text;html=1;strokeColor=none;fillColor=none;align=center;verticalAlign=middle;whiteSpace=wrap;rounded=0;fontSize=40;" vertex="1" parent="Ubl2RvmbOQjZFFbFElKq-1">
          <mxGeometry x="421.5751900070226" y="510.00029649595683" width="286.8557203089644" height="19.946091644204852" as="geometry" />
        </mxCell>
        <mxCell id="wM9CLqz9pxGZ1QiUGeh9-11" value="Los mejores produtos" style="text;html=1;strokeColor=none;fillColor=none;align=center;verticalAlign=middle;whiteSpace=wrap;rounded=0;fontSize=40;" vertex="1" parent="Ubl2RvmbOQjZFFbFElKq-1">
          <mxGeometry x="348.71" y="858.9200000000001" width="425.66" height="19.95" as="geometry" />
        </mxCell>
        <mxCell id="wM9CLqz9pxGZ1QiUGeh9-12" value="&lt;font style=&quot;font-size: 20px&quot;&gt;Populares&lt;/font&gt;" style="html=1;shadow=0;dashed=0;shape=mxgraph.bootstrap.rrect;rSize=5;strokeColor=none;strokeWidth=1;fillColor=#FFBC26;fontColor=#FFFFFF;whiteSpace=wrap;align=center;verticalAlign=middle;spacingLeft=0;fontStyle=0;fontSize=16;spacing=5;" vertex="1" parent="Ubl2RvmbOQjZFFbFElKq-1">
          <mxGeometry x="245.14999999999998" y="913" width="104.51" height="39.89" as="geometry" />
        </mxCell>
        <mxCell id="wM9CLqz9pxGZ1QiUGeh9-13" value="&lt;span style=&quot;font-size: 20px&quot;&gt;Especiales&lt;/span&gt;" style="html=1;shadow=0;dashed=0;shape=mxgraph.bootstrap.rrect;rSize=5;strokeColor=none;strokeWidth=1;fillColor=#FFBC26;fontColor=#FFFFFF;whiteSpace=wrap;align=center;verticalAlign=middle;spacingLeft=0;fontStyle=0;fontSize=16;spacing=5;" vertex="1" parent="Ubl2RvmbOQjZFFbFElKq-1">
          <mxGeometry x="752.37" y="909" width="115.63" height="39.89" as="geometry" />
        </mxCell>
        <mxCell id="wM9CLqz9pxGZ1QiUGeh9-14" value="&lt;font style=&quot;font-size: 20px&quot;&gt;Mas Vendidos&lt;/font&gt;" style="html=1;shadow=0;dashed=0;shape=mxgraph.bootstrap.rrect;rSize=5;strokeColor=none;strokeWidth=1;fillColor=#FFBC26;fontColor=#FFFFFF;whiteSpace=wrap;align=center;verticalAlign=middle;spacingLeft=0;fontStyle=0;fontSize=16;spacing=5;" vertex="1" parent="Ubl2RvmbOQjZFFbFElKq-1">
          <mxGeometry x="578" y="910" width="144.64" height="39.89" as="geometry" />
        </mxCell>
        <mxCell id="wM9CLqz9pxGZ1QiUGeh9-15" value="&lt;font style=&quot;font-size: 20px&quot;&gt;Nuevos Productos&lt;/font&gt;" style="html=1;shadow=0;dashed=0;shape=mxgraph.bootstrap.rrect;rSize=5;strokeColor=none;strokeWidth=1;fillColor=#FFBC26;fontColor=#FFFFFF;whiteSpace=wrap;align=center;verticalAlign=middle;spacingLeft=0;fontStyle=0;fontSize=16;spacing=5;" vertex="1" parent="Ubl2RvmbOQjZFFbFElKq-1">
          <mxGeometry x="384.09" y="912" width="166.76" height="39.89" as="geometry" />
        </mxCell>
        <mxCell id="wM9CLqz9pxGZ1QiUGeh9-16" value="&lt;font style=&quot;font-size: 30px&quot;&gt;Sobre nosotros&lt;/font&gt;" style="text;html=1;strokeColor=none;fillColor=none;align=center;verticalAlign=middle;whiteSpace=wrap;rounded=0;fontSize=40;" vertex="1" parent="Ubl2RvmbOQjZFFbFElKq-1">
          <mxGeometry x="653.6791713867328" y="1690.5929919137466" width="286.8557203089644" height="19.946091644204852" as="geometry" />
        </mxCell>
        <mxCell id="wM9CLqz9pxGZ1QiUGeh9-17" value="&lt;font style=&quot;font-size: 30px&quot;&gt;Newsletter&lt;/font&gt;" style="text;html=1;strokeColor=none;fillColor=none;align=center;verticalAlign=middle;whiteSpace=wrap;rounded=0;fontSize=40;" vertex="1" parent="Ubl2RvmbOQjZFFbFElKq-1">
          <mxGeometry x="415.6071522928145" y="1690.5929919137466" width="286.8557203089644" height="19.946091644204852" as="geometry" />
        </mxCell>
        <mxCell id="wM9CLqz9pxGZ1QiUGeh9-18" value="" style="group" vertex="1" connectable="0" parent="Ubl2RvmbOQjZFFbFElKq-1">
          <mxGeometry x="496.4017616166735" y="1740.4582210242586" width="118.69891874853697" height="39.892183288409704" as="geometry" />
        </mxCell>
        <mxCell id="wM9CLqz9pxGZ1QiUGeh9-19" value="Email" style="fillColor=none;strokeColor=none;align=left;fontSize=16;fontColor=#212529;" vertex="1" parent="wM9CLqz9pxGZ1QiUGeh9-18">
          <mxGeometry x="5.652329464216046" width="113.04658928432093" height="39.892183288409704" as="geometry" />
        </mxCell>
        <mxCell id="wM9CLqz9pxGZ1QiUGeh9-20" value="" style="html=1;shadow=0;dashed=0;shape=mxgraph.bootstrap.rrect;rSize=5;fillColor=none;strokeColor=#999999;align=left;spacing=15;fontSize=16;fontColor=#6C767D;" vertex="1" parent="wM9CLqz9pxGZ1QiUGeh9-18">
          <mxGeometry width="113.04658928432093" height="39.892183288409704" as="geometry" />
        </mxCell>
        <mxCell id="wM9CLqz9pxGZ1QiUGeh9-21" value="&lt;font style=&quot;font-size: 30px&quot;&gt;Donde nos encontramos&lt;/font&gt;" style="text;html=1;strokeColor=none;fillColor=none;align=center;verticalAlign=middle;whiteSpace=wrap;rounded=0;fontSize=40;" vertex="1" parent="Ubl2RvmbOQjZFFbFElKq-1">
          <mxGeometry x="389.59999999999997" y="1320" width="365.67" height="19.95" as="geometry" />
        </mxCell>
        <mxCell id="wM9CLqz9pxGZ1QiUGeh9-22" value="" style="rounded=1;whiteSpace=wrap;html=1;strokeWidth=2;fillWeight=4;hachureGap=8;hachureAngle=45;fillColor=#1ba1e2;sketch=1;labelBackgroundColor=#ffffff;arcSize=0;" vertex="1" parent="Ubl2RvmbOQjZFFbFElKq-1">
          <mxGeometry x="173.09" y="1361.4824797843664" width="776.9100000000001" height="299.19137466307274" as="geometry" />
        </mxCell>
        <mxCell id="wM9CLqz9pxGZ1QiUGeh9-23" value="" style="rounded=1;whiteSpace=wrap;html=1;strokeWidth=2;fillWeight=4;hachureGap=8;hachureAngle=45;sketch=1;labelBackgroundColor=#ffffff;arcSize=0;fontColor=#FFFF33;fillColor=#E6E6E6;" vertex="1" parent="Ubl2RvmbOQjZFFbFElKq-1">
          <mxGeometry x="173.09" y="1820.2425876010782" width="776.9100000000001" height="89.75741239892183" as="geometry" />
        </mxCell>
        <mxCell id="wM9CLqz9pxGZ1QiUGeh9-24" value="&lt;font style=&quot;font-size: 30px&quot;&gt;Copyright&lt;/font&gt;" style="text;html=1;strokeColor=none;fillColor=none;align=center;verticalAlign=middle;whiteSpace=wrap;rounded=0;fontSize=40;" vertex="1" parent="Ubl2RvmbOQjZFFbFElKq-1">
          <mxGeometry x="418.11600937962504" y="1855.1482479784365" width="286.8557203089644" height="19.946091644204852" as="geometry" />
        </mxCell>
        <mxCell id="wM9CLqz9pxGZ1QiUGeh9-25" value="" style="shape=image;verticalLabelPosition=bottom;labelBackgroundColor=#ffffff;verticalAlign=top;aspect=fixed;imageAspect=0;image=data:image/png,iVBORw0KGgoAAAANSUhEUgAAAPEAAADRCAMAAAAquaQNAAAAY1BMVEV0dHT8/Pz+/v7////t7e3s7Oz19fXz8/P5+fn09PTw8PBsbGxwcHBubm5qamp5eXnc3Nzk5OSNjY3Hx8eUlJSBgYGmpqaHh4fV1dWdnZ28vLzGxsa2traZmZmqqqrf399hYWHwxnLYAAAQoUlEQVR4nO1d6dakKhJUcEW09n2b93/KAdwQQSXBr2rOdP64J/qe7tIQyAySJQOMEMJJxE2FOUdEwFQLCYepFuYqFD+bqDDmMOMQKTBWIA4FDBWYqZD/owHkPxvjDkaB+N9J3DPuYR4vYawlH6cdt7hnHPc0ZShzQ0MYTsCQw0yFyAgbaisxjv4x/hZjPGaMuSUxNwFzjiIBUwUSFRIFpiqMOMx7mAgYKzBTINLCUMBQgZkKkRb2LKMgEZZxc4GZAj397AowUL/97Fee/eD6r6z94PK31/Yw926Vq90q6MfXOCjMDSr9SJodVL2/iLWuI3JxHUTrOiSW/9eMx45TgRaMTXJAohnNMZYiRQ9JPGAcjyTAMsZRIhpDwEyB4QSsaU5ANIBsHJOUmRhOGSGkhw1N1Ms8GdZtjBRYNyzq27iHeQ8FNSyxHEWnRPEdIzei+o6RG4m0boQx3V2v2/v9dnsdNydhx9vxeH4erjv+tzltaHSa8JAjZ7m6yiQkY0+93l+XoGBWlpRZUBuHtCyLqqKn1/txjQl/37UVyDqMG5im0fZx3gdVUbYsTcaoF/R0e2xZ00X/m4yZ7Z7HzTzXAe+iovvnNUpJtJquVsexF5UZkSw7nIPKim3HuiyC432LLMaxhcqMg5x7z1p/pQrMgDBE8X1PCwhbifXluWPqsNaI/GfzHiYqzOegRK1VmTx2NN+TQaSFoQpDBWa8dUl22Nt1ZYOVxem94+3cdisxZBSYqrAJDzpYh2a/movxPbwqp9Ydkq72B9YUP6syuas6+aMrjBbBk2RkHcZLVWYPB5kmxvdMS690ayur44H57l5lxhJMR3CWMeGWoJCZgFm4BGYqRHh3rPw2b2+0uDzqd0Qpf1iqhbmARIGJAkP76KRXmdf9anyFFadDRCxVpiE6eVAgeM327TlvHin5icxeiuM/4Cs4nw5p+H3GJH57ds9TnPcxn2l8M5dJ0vsq/tlktHhmriqTyy9S6y8+XSeZDcSfS/GHfLmVwaHWnmHeac9QkJBgYoaZRTzGoQJJ9ocduremaxvicRT38TjWhWYHzZVeN3/ZoXujwYOr7b9WmSS6VV/hy606sonp+ipz0KvJ9vSdBq6NBtcFvVpLvlGZcyJyANkf0P2vPZZq1Tvh2jIXb16rzB4mKpRYglRmFB+/TZg57Uv0ZyqTbDdfcNEjo+UV4z/J7KWH7zdwbdUTj+TXCiozeX7PR6tWHOttHuuqzNuvtDC38vIhtuNY66uNaYCUXHwEJdqYh1/a7PDAVxMFjn318njMZcfn5PaWfM2FfbL9fn97v9l/Wcd0zXsWW2yT9bFTmeQTOLwdY7t5PQ+fKKw3fog+x5ekzhen5DajvJbKxB8HugV9PXZ8Vsc/XWf8V7mbuL43cNLVI3NVmRhpIMYxmG8R3K6ZmMvrjf04+sBJV890Zu4Ux32vXrz0EkIJ0+L0YMLfxLZrbZwdLkDO1T2bXnqRV2GWRicC7dLF/hDO0e1a+nqBBfvq4V1lki2Mb3k6zDavZIwzbE5WXbFflZnAWpjSZ4YX0605h09QnC62yKvKJKA4XJ52Fu3bGMI7kMqpPmQZ42Xj+AL67O/QsoGbZs7OICW7NQvOgcrkvKd3N5H8Bfno9GDfwG0zPwBfmJ54OO13NyGVWrO7aUqBNDB9Az453WxBDdw08xXyyD3GXjRX+gBEDLqJHQgzyh9A1qF4e2FMtoAu7UqYUd7ZPzWoDksY89E8udt4A3i0M2HesQFfutoJdzvYMYhwv9uYYbGjPG8EmgIFCo8QJ7JzJgwcyyfSk0i0cC46pU/AY4urB8KMMuDZ9DYTneYUCLkCvFbx9EKYBSlA/6ru2ElzQQYx3RtnhbaUif3TgyrGGKyro/QM8dORJ8KwoUwvM4ynxjGB+I7i7qdP15RvgKj8nN5f3UQqEZ3qeCxCUh2PIX36EnprYtavI/s3YI4zaaJTR02CUwoEvwF92pOfbg0/Ae9wGiUwl2kukJ9m0cEn4RAl9u/ABxaM8QnwsHLnsU9zAzVyyWf11iqTQB5Fj36bmDVyDnEmN0lldtSacdwc6RtZFoGSAH5HMTdQI1dXE6/EHJ3OEMYX33xZI8eQhMiJRJYqE8eQNGrpMxa3hveAb1/ciaXmgkha7jE8+y3BGLZCH0d2unoLaWK6X6GJQ5SCPv6TTLZx1DOuISh5WT7WYBzC+luxE3zqTQQSyyDWRSd8AC2GlPEKnZoxvkNSqeUz1UcnrQLBFwjh4LJKEzNvDVqYobvlmgs2igN6XolxCFF/vJGXM36BFjXLwzqMQXNGbvFilbmDLWkW6wxj6EDm7lqrMkWqL+fWwgwkt4Jgk63EGG1hO6o2IU/LytSYBU0QFlKsSW4BmzhYJRoLxilsS1V17VVmy1KnQECTpmA9x8UYZ6AXCugLL1GZsHlxwIfNWoxDYLTkec0FjAl0o2mxlqtmjIGepXwaGCPWsPzsoYA5SNNxxr7THxLjN/CdNuKEMIkklmOVmUF3khWf9Rg/gLtBi0c2qzLDB3Rv7ZptDAvI3Hdls5oLQebf9a+vFY6By4zCSjLHOALlPlZnDJQgwp2qjJVxTKD950cZ85CsVZndPkxQUqm28hcZB5R0W0xrlkGX6okjocTgG53L5BcZFwd+QxI2KhBgFk0Y/UnG9JxOai7oTPR3GQcboq4fy4wxhmzsaRn/5DgOiq3Sq8UvJuKsCJukfBzOMq2U1xOM4RGEaeuEU+tYDqMTdKIobE2V6cBYxCejykyhswjB+AdVpqCMsVlzEYdh/IuzRWHVzsyYODiIlZbZGsZOfe+AjSrTQWIyo+/VGCNgWqZ9r8E4Fr/Y+GrwxLv+Ze/7AzrCmdNhyVM68NXuS6j9L6/ludDO6TxsuYtMKhOYMmyNrrF6zM1F+wZ8q0ZkUpmR21nq1QKy22hjLpVoVSabO4EzDe0vrzSQETB52xh9E7lXSzNH5OSq/e9e6wjnTq/FXGomz48lv00cJk7CTuswdplHCNuYVGa6d/vhtRYXQTu6ZKOZXnPh1EVjCsb+968Jxm7DmCc0iZ7xzvUmg3XW2hBxfa/mSONYZUIONg1t43NvdWsYvGbQWnEg0jiWVmRc0gG1VWtEZJdMVG2l2H3crjv1sZm4aTnx0yssqCKH9GpjbC6h1VwEupwl2cl/t3aUmILxbT3GhcuBVANjt+mNYPzCY5UJ3UKu/rZ3b41iD3fhnOR9IP0umMzZQ3DzncJ1lh/cLqG010faz+WDceF7M6pT+qO1C9GqTC+Mqee9mc6aun4rg8r00qs9+y7ghknFqjUZ+50yOuZ7WisMuUz3MMDN64knp0R1b5XkraTMXuqlA3ltZC+hiVklolOmKpDUz/f0uRoDOjmpsaqJxysx9tfI7vPExlZmzM9k+GHsaRSzNxqozO60lzfGvhYnfI1ioTKxUm+RW+glOnHzdVeEtxe6SKcYZZXplgeXzcukEXQFit5MKtMxXS2Zj7sEUOaaaOyMvlK95vLHOKDuEQpD7qkwvM3ZwNhxEWbwjCP0bq6OsMcblOlzxLjehOyRsfOs0eFyzrGVjyZ7W6vM3m8TnzfLu92DgkLQUVGDlXfpXLm8mgrePa8zunfx177kZW0sWhrWj705R/EYh0yue1J+YOXHxNjPdLE1eG4A7/xWbqA7vcqMvcnYxjbArakoc7wle/QiZKAyeX6vKcrtI20oGT3Crq3yGInb95BYyiozOnguAwIbyl6jJLfy2d+zN7yjPPKSN5QNMqVAiVcHGohNe4ZdipHPqN+YfVT23afFxkxDLjMmrtsiRmZ/Xwbw0oDJl8iG9Rb5H5rLYb3lBHqz3pDrO2AE/EKHwb23g3t9fPuMwHrbAAJdoDRp9EaMd5TDLvOZNkvn5VltcSvbK350Z2Gw76dZr6961n3ciu0UY2+Zpd7slt4glxnOGCVTt0d62CagmtVGPuR1xiqMvtJxvcWu6ELy8e+67BgDb4WYsPKOlKreUjxm0HunsovIKzCuYoza+zIRGlXC8bTaJpndhifoPRgTtuG3VhtP/0TgiyKMZnnSzeE0sN5YrDCeMRe92vNcnF8Nb0M4xL7LGoqMz1S9xcTvN67OllNkhPaev3nWUjPVW/TZrWnxtM4JoMwrZS4x4+lKOKDbKfUPK/YfQJ4ehT4r7ooj5tO33GSeZoyM7xWDUnvIZ1XlQlwnOM3Yx+oTLYPzDsaXGw4PnjjTc18RyHRHeeLurctif0ic1p0QRuB6XgMrtgvqLbrOJorgGdsUsTJxxttb4NzQm3RJvUXYRYq18Zpsbs3bG8bk4djQ5ZMsqeqNwXs/aXW5Zp74cmMNvXMpSxiUn2jJ7ZHQlfPaO3vebIxweL1R6M1N+3SScVdrAHbal/FFqxz+wTh+bkAjmp+BGfdqPnEk9cyR34BD+N0+kCIOJ2D0XUY6OZwAnXuTyfUWibkSTvSxbeTidICVZFvOGV/3tiVl+QUCC+stpnbTiTK4+/RXBmNe7GXJOcRLb+y2qiRBxfHetflyQ3h3s+jb5bPbcDt/R3m+OBVCq1v8N3ytOVNxxd7CSjiLD/QV++3f8bXjXL4FH5PKFG9dq0wBlyUGys1hlYA0w3m7X9IeNOupIQkaqnpHC1agaPn+A4elMTbNmC8nW9wt68LM32lUHAFFUX1xzp5zbnsTWjKeq7JIg8N6imPe2HDeT/bCanCZj+6OcoS6O8qRKOWdTgqv4pZ+kS83Jv8nqgbz0mVdvUU+YFuWTGXmeZq3UozhtpR3nkycUaDB9WsdujNGw5wDLLYhL/Cd532t73y+qrdxJbfYR19u4Npw+DY4bXrktSTsq3obNoPyM+rfJlsbwld9z65LSYhNEFbVB7ULjbzK748QDvl+Rl0J3eLep2ytGGeafUbl3r0GrE/DybgEOL2E0UQbm8cxzsdrq+XLthL72oayl9oViygUfAzjmNM2VfXGqrwuzj/UoxtD+DZs5fKZiqreuN+4hSWW01W98bCe9y8SHi3O0QuJ4DWuh0Xq2WzkBwmLxTnpLenHhfFg4Y3fMfFtcnrDksMp7qljVe+uthU9rXeTr6vhLe2ahURKVe+OWnMWpqmu2Ja+HsGw8wvrXeTrbm05bHrKZ/jMVvWOCaq38Hu/9sKrtaeFyq2U+ABV9Y4igiPeyO6H1Na1+haNor410aWqN2eMeWaz9HWKei3j12gU51ylCWKM8L1ar5KRL0Ofks2YxjTtVGYHz/8RTSx+rXmADqJvQnxkkXYweA0qU/LbfUhSAxXhp0hQrVaFDK1hWH9PDWyfqYX9dVESbLtVB2u/qUJihlkfkiaj07QCGcBQhWHfg/RQ38X60RNrB1LLuB5THEYdJApMdXBGgfws4+gfY1+MZ1SmBEMVhgocOQzVd4zciKQM9PpHhUSBqQrnx/GEHvsuzBzg1BNmVab7B897KPWlZd1q1MP03WpZD1usMh0GVaQdVLECbVzHrBfRuw6J5T/GJsZaKPyiBFMV2jNWoAVjrKdprLfIrYf1DCTvYWqGqYBEgbkKxRMSLczMMNRCcR11FM5BpMCpqt5ObuTXo1Pf235NgfxTmf8YQxlbjONfVJmjIb1UZabDooT5HExUmM/B1AyzP4JtvcX6K4vOpMA2zyW+sg6SWMRjASMRhBUY1V2sg01fUmCmQKSFzUBSYKZCpIW4g9F/AXWsstamO868AAAAAElFTkSuQmCC;" vertex="1" parent="Ubl2RvmbOQjZFFbFElKq-1">
          <mxGeometry x="813.3531688496196" y="109.86522911051213" width="51.43061644902011" height="44.60394488449488" as="geometry" />
        </mxCell>
        <mxCell id="wM9CLqz9pxGZ1QiUGeh9-26" style="edgeStyle=orthogonalEdgeStyle;rounded=0;orthogonalLoop=1;jettySize=auto;html=1;" edge="1" parent="Ubl2RvmbOQjZFFbFElKq-1" source="wM9CLqz9pxGZ1QiUGeh9-27">
          <mxGeometry relative="1" as="geometry">
            <mxPoint x="231.80088745304874" y="-10" as="targetPoint" />
          </mxGeometry>
        </mxCell>
        <mxCell id="wM9CLqz9pxGZ1QiUGeh9-27" value="" style="shape=image;verticalLabelPosition=bottom;labelBackgroundColor=#ffffff;verticalAlign=top;aspect=fixed;imageAspect=0;image=data:image/webp,UklGRnAJAABXRUJQVlA4TGMJAAAv/8F/EFfnoI0kR3Jd5g/4Ps0fBoZt20ai+u8/8B3Dtm0jUel3++97ANxItl1FaHCVSxjkSUD4xICJpfXqfe+dTnTgH/8IGgIDPwAACIIKP/wAIAgAAN4IDARQEAAEBgIDnwCAHQKAwEADXBAAAAQAAAFAgQcUAICqASCAAJ4AgE98A74AFVDwADT8AV4IVFv8o8Ay2gAA9dDFFQCB0sUnEAA0VDTAF0A5AgXKNwBBUABvAKgG6GJd5f7+0evXP85ZYYJuVQGfNCmpCtp537my7/NbYL+MWZJSK1WvgsO21uJ632XfZ7rOUZNtLdf7AAJPHAVt2zApf+BvAxARZtO2QVuS9hAsXZvE46/oGyxgx7Zat1L/PRoQSMhQRmIp0ue5z4j+M3DbSMqsdrnBEjfMCyjatnXszb58ipOvtm3bdmPbtpP+Rm3btm3bxgX0MqKxR56Ttrv4noj+S0IjSZIkmnjNZeAzs7tVtpGFP8uXQ8mISHwtJ3G/C76Wk7HD3Ufiazmo3nv3hNdyUpuZtYTXclJNVS3BtpQVI6qI1HirgLbkHQuWMLM8qThbciwihIj4I5XRtaT7HFmZLvpIpevC1pKt+53TI4kw7e0abC1mr5iOQBXmvV0DraWq9TFtyVRkb9dAaxFRmz5BjW5a93YNtBZm0fast3ezvV2DrYVYbFrDK1ru7RpsLcQ1J8TtDni9SKLMMRCvF0dZxGYF2pJlb9cgbfnrv+beroHWcpJ3yBjXs7xDiOsPhbxD7b93WI13qP33DmveO9T+e4faf+/wxY0z8zs0sLlYHKq8ClasXbt2RYFDxevbmsXo6Fb/nwMXrj+sTfPq1rHt2LfEtz7Ln4P9cmvHxC7aiMXPAYvnmEj53mFw92Isfh5YTN2CZXuHKcMsWPxcsJgGpgj2Dr08sKj5YPFcItU7zB6BRc0Jy9G3Ir3DzE5Y1Kyw7Hsm0DtMaIVFzQvLX4nivMNMsqbAoXmqMO8wG3wrNywdcmR5h+BnY4dlhCjv0AuLmh+W6YK8wxRPLFZ+WGypcrzD4VisDLEMFuMdBoMXmxliMYdI8Q67Y7FyxDJHyM3nWPBOI0csq+7LcA8WYbGyxHJSxLwCNROWWDa+l2Ae3cJi5YllmYD5dAyLlSeWYQLmI6iY8sTSRIB3+AKLlSmWBPXe4Q0sVqZYvNR7h2ewWJlimaTeO5yPxcoUS1/13mEHLFamWNqr9w4bYLEyxdJIvXdow2JlisVdvXfogsXKFIuTeu/QgsXKFItJvXdowWJlisWk3jt0wWJliqVUvXdYB4uVKZZ16r3DhlisTLFsVe8ddsBiZYplb/kodg/6Y7EyxXJI+RgmY7EyxXJW+Ri8sViZYlmqXjy7uBKLlSiWRAHi2Q4sVp5YmgqYj8exWHliGSFh7+BdLFaeWAIk7B388DsWK0ssdfJE7B0ch8XKEss4GXsH4yxYrByxmKOF7B3sicXKEUsvKXsHQ61YrAyxWMLE7B0cicXKEMtQOXsHU21YrPyw1EkTtHfQB4uVH5aZos4dHoVFzQ7LKFnnDufMxqLmhqVzrrBzh1/vxqJmhqVlurhzh5/sIWuSBJ47/Ho2FjUrLJ3SRR4+lzOaqM+WK3LKCfzqkHS9YaZB5FRiSBtlJehi89A0mVMVI7y3lZw7jb3CDEKnulf8hD+w+DlgqTMu2iBgaoLlw70TO1cyopiOCMgzKJjP2NQIyyXfKQM6N67nSsDfQ0yl67buPXR2aWLte+5A7f9zB9qRe+5Ae/+TWDSksdhx8A61/97hr/7eofbfO6zwDrX/3uGv/t6h9t87rPAOtf/eYTXeofbfO6x571D77x1q/73DlzfPLujQsA4DvQOanNwa/Hvw/LVHtWne3Dq+Yw0jvQMO8c+rHRO3eBMWPwYW29go+d5hSI8SLH4cLObuIbK9w9ThVix+LCzmQamCvUNvkvoHs4ntHTBnpBGLGhLLsXcivcOszljUrLDsfy7QO0xsjUXNC8vfSeK8wyyypsChRZow7zAHfCs3LB1zZXmHI7Go2WEZKco79Aa/ED0sMwR5h6k2LFZ+WOqk0d874BAx3mEIeLGZIRZLqBTvsAcWK0csc4XcfI4D7zRyxLL6gQz3YDEWK0ssp0TMG1AzYYll8wf6ewdcLmA+Hcdi5YlluID5uIP93gFfgoYxUSyJ6r3Dm/T3DngWi5UplsnqvcMFWKxMsfT7/tM7YEMsVqZYGqv3DutgsTLF4kF/74DO3396BzTR3zugExYrUyxl6r1DNyxWpljWq/cOG2CxMsWyTb132Jb+3gH7YLEyxXJY+RgmYrEyxXJO+Rhm0N874BUsVqJYCpMEiGdb6e8d8AgWK08sIyXsHbyNxcoTS6CEvYPvZ2GxssRSN1/E3sGxWKwssYyXsXcwyozFyhGLJUbI3sHuWKwcsfSWsncw2IzFyhCLNVzM3sFBWKwMsQxjv3fAuumC9g5Ow2Klh8XoJerc4WFY1OywjJZ17nDuf1jU3LB0yRN27vDzXVjUzLC0yhB37vDTXWRNssBzh5//T1XpjBkiD5/LHcnTFxqdp3xglhl1SLre4CW5d8AhFoIuNg9LlzlVMUJ7mMm509g73CB0qntFjfsNi58DlrrjY2pJ74B3jm9nxDBuOjIw36BgPmNTIyyXvSb3a9/Yw9lEwH8sL1u/be/hc0uTat9zB2r/nzvQjtxzB9r7n8SiIY3FjoN3qP33Dn/19w61/95hhXeo/fcOf/X3DrX/3mGFd6j99w6r8Q61/95hzXuH2n/vUPvvHT68fnpemwZuTibKewd8fPXIlrXE9w4YsXAD9b0DBnUtor53wOQBZu57B5zqQX7vgIMduO8dMLUd+70DNiO/d8DUZuz3DtiO/d4BB7PfO+BUB/J7B0z2YL93wAHs9w4YZGa/d8Cu7PcOGFHEfu+AC9nvHfDxBvZ7B7xKf++AR+jvHXAL+70DPlzLfu+A1+nvHfA0/b0DzqO/d8A29PcO2ID+3gHd6O8d0In+3gFN2v/eAWeUR6j97x2we+VYtf+9A+6iZ7T/vQPWwt4Btf/PHWhH7rkD7f1PYtGQxvLLhXf473/eIc8W7b93uJF3+O9/3uG//3mHTEQc8FpOqjCzBLyWk1pFpAa8loOapqqWIFu21prNzNqDiq1lP+8wvffuTxbQlrGIHO4+f4BG2rKI+13KVJC2zP8cMiJWByXUlgIA;" vertex="1" parent="Ubl2RvmbOQjZFFbFElKq-1">
          <mxGeometry x="209.12091547788177" y="98.77520215633422" width="45.35994395033377" height="45.35994395033377" as="geometry" />
        </mxCell>
        <mxCell id="wM9CLqz9pxGZ1QiUGeh9-28" value="&lt;font style=&quot;font-size: 30px&quot;&gt;Contactanos&lt;/font&gt;" style="text;html=1;strokeColor=none;fillColor=none;align=center;verticalAlign=middle;whiteSpace=wrap;rounded=0;fontSize=40;" vertex="1" parent="Ubl2RvmbOQjZFFbFElKq-1">
          <mxGeometry x="160" y="1695" width="379.43925233644865" height="20" as="geometry" />
        </mxCell>
        <mxCell id="wM9CLqz9pxGZ1QiUGeh9-41" style="edgeStyle=orthogonalEdgeStyle;rounded=0;orthogonalLoop=1;jettySize=auto;html=1;" edge="1" parent="Ubl2RvmbOQjZFFbFElKq-1" source="wM9CLqz9pxGZ1QiUGeh9-25">
          <mxGeometry relative="1" as="geometry">
            <mxPoint x="839" y="-10" as="targetPoint" />
            <Array as="points">
              <mxPoint x="839" y="10" />
            </Array>
          </mxGeometry>
        </mxCell>
        <mxCell id="wM9CLqz9pxGZ1QiUGeh9-42" value="&lt;font style=&quot;font-size: 20px&quot;&gt;Login, y registro&lt;/font&gt;" style="text;html=1;strokeColor=none;fillColor=none;align=center;verticalAlign=middle;whiteSpace=wrap;rounded=0;" vertex="1" parent="Ubl2RvmbOQjZFFbFElKq-1">
          <mxGeometry x="819.0699999999999" y="-80" width="40" height="20" as="geometry" />
        </mxCell>
        <mxCell id="wM9CLqz9pxGZ1QiUGeh9-43" value="&lt;font style=&quot;font-size: 20px&quot;&gt;productos, envios, quienes somos, promociones&lt;/font&gt;" style="text;html=1;strokeColor=none;fillColor=none;align=center;verticalAlign=middle;whiteSpace=wrap;rounded=0;" vertex="1" parent="Ubl2RvmbOQjZFFbFElKq-1">
          <mxGeometry x="214.4799999999999" y="-90" width="40" height="20" as="geometry" />
        </mxCell>
        <mxCell id="4pWXJxIQWybV8hfSP4Xm-0" value="" style="rounded=1;whiteSpace=wrap;html=1;fontSize=14;arcSize=50;" vertex="1" parent="Ubl2RvmbOQjZFFbFElKq-1">
          <mxGeometry x="361.45" y="200" width="421.97" height="40" as="geometry" />
        </mxCell>
        <mxCell id="4pWXJxIQWybV8hfSP4Xm-1" value="Que estas buscando?" style="text;html=1;strokeColor=none;fillColor=none;align=center;verticalAlign=middle;whiteSpace=wrap;rounded=0;fontSize=14;" vertex="1" parent="Ubl2RvmbOQjZFFbFElKq-1">
          <mxGeometry x="488.63000000000005" y="210" width="160" height="20" as="geometry" />
        </mxCell>
        <mxCell id="N3rNgEUAZZiZAZUkS3Sj-0" value="&lt;font style=&quot;font-size: 30px&quot;&gt;Google map&lt;/font&gt;" style="text;html=1;strokeColor=none;fillColor=none;align=center;verticalAlign=middle;whiteSpace=wrap;rounded=0;fontSize=40;" vertex="1" parent="Ubl2RvmbOQjZFFbFElKq-1">
          <mxGeometry x="-62.89999999999982" y="1490" width="1289.9999999999998" height="20" as="geometry" />
        </mxCell>
        <mxCell id="wM9CLqz9pxGZ1QiUGeh9-35" value="" style="rounded=1;whiteSpace=wrap;html=1;strokeWidth=2;fillWeight=4;hachureGap=8;hachureAngle=45;sketch=1;labelBackgroundColor=#ffffff;fillColor=#FF0000;arcSize=23;" vertex="1" parent="Ubl2RvmbOQjZFFbFElKq-1">
          <mxGeometry x="210" y="595" width="350" height="250" as="geometry" />
        </mxCell>
        <mxCell id="wM9CLqz9pxGZ1QiUGeh9-36" value="" style="rounded=1;whiteSpace=wrap;html=1;strokeWidth=2;fillWeight=4;hachureGap=8;hachureAngle=45;sketch=1;labelBackgroundColor=#ffffff;fillColor=#FF0000;arcSize=24;" vertex="1" parent="Ubl2RvmbOQjZFFbFElKq-1">
          <mxGeometry x="570" y="595" width="350" height="250" as="geometry" />
        </mxCell>
        <mxCell id="wM9CLqz9pxGZ1QiUGeh9-37" value="" style="triangle;whiteSpace=wrap;html=1;fontSize=22;rotation=-180;" vertex="1" parent="Ubl2RvmbOQjZFFbFElKq-1">
          <mxGeometry x="220.00465057081857" y="714.9963342318058" width="16.956988392648142" height="29.919137466307276" as="geometry" />
        </mxCell>
        <mxCell id="wM9CLqz9pxGZ1QiUGeh9-38" value="" style="triangle;whiteSpace=wrap;html=1;fontSize=22;" vertex="1" parent="Ubl2RvmbOQjZFFbFElKq-1">
          <mxGeometry x="903.0388642712663" y="705.036334231806" width="16.956988392648142" height="29.919137466307276" as="geometry" />
        </mxCell>
        <mxCell id="wM9CLqz9pxGZ1QiUGeh9-30" value="" style="rounded=1;whiteSpace=wrap;html=1;strokeWidth=2;fillWeight=4;hachureGap=8;hachureAngle=45;sketch=1;labelBackgroundColor=#ffffff;fillColor=#FF0000;arcSize=29;" vertex="1" parent="Ubl2RvmbOQjZFFbFElKq-1">
          <mxGeometry x="210" y="1020" width="350" height="250" as="geometry" />
        </mxCell>
        <mxCell id="wM9CLqz9pxGZ1QiUGeh9-31" value="" style="rounded=1;whiteSpace=wrap;html=1;strokeWidth=2;fillWeight=4;hachureGap=8;hachureAngle=45;sketch=1;labelBackgroundColor=#ffffff;fillColor=#FF0000;arcSize=26;" vertex="1" parent="Ubl2RvmbOQjZFFbFElKq-1">
          <mxGeometry x="570" y="1020" width="350" height="250" as="geometry" />
        </mxCell>
        <mxCell id="wM9CLqz9pxGZ1QiUGeh9-32" value="" style="triangle;whiteSpace=wrap;html=1;fontSize=22;rotation=-180;" vertex="1" parent="Ubl2RvmbOQjZFFbFElKq-1">
          <mxGeometry x="220.00465057081857" y="1139.9963342318058" width="16.956988392648142" height="29.919137466307276" as="geometry" />
        </mxCell>
        <mxCell id="wM9CLqz9pxGZ1QiUGeh9-33" value="" style="triangle;whiteSpace=wrap;html=1;fontSize=22;" vertex="1" parent="Ubl2RvmbOQjZFFbFElKq-1">
          <mxGeometry x="903.0388642712663" y="1130.036334231806" width="16.956988392648142" height="29.919137466307276" as="geometry" />
        </mxCell>
      </root>
    </mxGraphModel>
  </diagram>
  <diagram id="u51rovn_yLldoNiTvJeS" name="Page-3">
    <mxGraphModel dx="2844" dy="2595" grid="1" gridSize="10" guides="1" tooltips="1" connect="1" arrows="1" fold="1" page="1" pageScale="1" pageWidth="827" pageHeight="1169" math="0" shadow="0">
      <root>
        <mxCell id="7-BUgE6l9A-gtYwP11fS-0" />
        <mxCell id="7-BUgE6l9A-gtYwP11fS-1" parent="7-BUgE6l9A-gtYwP11fS-0" />
        <mxCell id="H6nFmAtNTzrr14siH9rD-2" value="" style="rounded=1;whiteSpace=wrap;html=1;strokeWidth=2;fillWeight=4;hachureGap=8;hachureAngle=45;sketch=1;labelBackgroundColor=#ffffff;arcSize=0;fontColor=#FFFF33;fillColor=#E6E6E6;" vertex="1" parent="7-BUgE6l9A-gtYwP11fS-1">
          <mxGeometry x="172.9" y="70" width="776.91" height="50" as="geometry" />
        </mxCell>
        <mxCell id="H6nFmAtNTzrr14siH9rD-1" value="" style="rounded=1;whiteSpace=wrap;html=1;strokeWidth=2;fillWeight=4;hachureGap=8;hachureAngle=45;sketch=1;labelBackgroundColor=#ffffff;arcSize=0;fontColor=#FFFF33;fillColor=#E6E6E6;" vertex="1" parent="7-BUgE6l9A-gtYwP11fS-1">
          <mxGeometry x="172.9" y="1430" width="776.91" height="390" as="geometry" />
        </mxCell>
        <mxCell id="jQw76j21SIlAW2s81NRD-0" value="" style="rounded=1;whiteSpace=wrap;html=1;strokeWidth=2;fillWeight=4;hachureGap=8;hachureAngle=45;sketch=1;labelBackgroundColor=#ffffff;arcSize=0;fontColor=#FFFF33;fillColor=#E6E6E6;" vertex="1" parent="7-BUgE6l9A-gtYwP11fS-1">
          <mxGeometry x="173.09" y="120" width="776.91" height="74.64" as="geometry" />
        </mxCell>
        <mxCell id="jQw76j21SIlAW2s81NRD-1" value="" style="rounded=0;whiteSpace=wrap;html=1;direction=west;" vertex="1" parent="7-BUgE6l9A-gtYwP11fS-1">
          <mxGeometry x="173.09" y="194.63611859838275" width="776.9100000000001" height="1097.035040431267" as="geometry" />
        </mxCell>
        <mxCell id="jQw76j21SIlAW2s81NRD-2" value="" style="rounded=1;whiteSpace=wrap;html=1;strokeWidth=2;fillWeight=4;hachureGap=8;hachureAngle=45;fillColor=#1ba1e2;sketch=1;labelBackgroundColor=#ffffff;arcSize=0;" vertex="1" parent="7-BUgE6l9A-gtYwP11fS-1">
          <mxGeometry x="173.09" y="194.64056603773585" width="776.9100000000001" height="289.21832884097034" as="geometry" />
        </mxCell>
        <mxCell id="jQw76j21SIlAW2s81NRD-3" value="" style="triangle;whiteSpace=wrap;html=1;rotation=-180;" vertex="1" parent="7-BUgE6l9A-gtYwP11fS-1">
          <mxGeometry x="189.99964460772054" y="293.3718059299191" width="33.913976785296285" height="79.78436657681941" as="geometry" />
        </mxCell>
        <mxCell id="jQw76j21SIlAW2s81NRD-4" value="" style="triangle;whiteSpace=wrap;html=1;" vertex="1" parent="7-BUgE6l9A-gtYwP11fS-1">
          <mxGeometry x="900.0002773536323" y="293.36754716981136" width="33.913976785296285" height="79.78436657681941" as="geometry" />
        </mxCell>
        <mxCell id="jQw76j21SIlAW2s81NRD-5" value="IMG" style="text;html=1;strokeColor=none;fillColor=none;align=center;verticalAlign=middle;whiteSpace=wrap;rounded=0;labelBackgroundColor=#ffffff;sketch=0;" vertex="1" parent="7-BUgE6l9A-gtYwP11fS-1">
          <mxGeometry x="550.2437324692465" y="353.20668463611855" width="22.609317856864187" height="19.946091644204852" as="geometry" />
        </mxCell>
        <mxCell id="jQw76j21SIlAW2s81NRD-6" value="" style="shape=image;verticalLabelPosition=bottom;labelBackgroundColor=#ffffff;verticalAlign=top;aspect=fixed;imageAspect=0;image=data:image/png,iVBORw0KGgoAAAANSUhEUgAAAOEAAADhCAMAAAAJbSJIAAAAhFBMVEX///8AAAATExNcXFzn5+fAwMBwcHBHR0fd3d3V1dX8/Pzz8/M6OjpDQ0Otra2FhYXv7+8uLi7Kysq3t7d7e3vj4+OdnZ2ysrKLi4tiYmLHx8fX19ccHBybm5uqqqokJCRRUVE0NDSKiopsbGwoKCiAgIAXFxcNDQ0eHh5WVlaTk5NgYGDDl8T0AAAJb0lEQVR4nO2daVvqPBCGBVlbFxYRQUFwQ/H//7/z8h6P5knTZibNJK1X7o9K2jxtJ8tkMjk7SyQSiUQikUgkEglP5P0rK/NR7Fq6Mxl0SLzNY9fUkcU7TeB/vMauqxt7ssBO5zZ2ZV24YgjsHPLY1XVgx1HYWcaurgMHlsJB7Oo6wFPYiV1dBy55ClvYK97yFG5j15dPzlP4Ebu+DsxYCrtZ7Po6MBpyJI5jV9eJ+9vrCp4eVIWb2JWV4FlVeB67NhLMVYWHSezqCLD4BYZoAcY9x9i1keBGVbiLXRsJwBA7bZxB2cBxTz92dSS4UBXexa6NBE+qwsfYtZFgDZ/pb+wRJ7/fEMGbcxO7NhLcqQr3sWsjAU4iF7GrI0AOA7e2uvcrgVlyG32KVsBhNW2jK8PG+Ncb4hkobKFP0c4nSOy2gLfhhjX62nbaCOdjW9gv10QYK54Zfam4UfToEomr/U3jia6QtVjcHKZ0hS01RM6K54X9ag2E45FopyGuGArn9ss1EE6P2ItdWSdYy/KPsWvrAG9F9zp2dR145gg860PZUY/OSC24XxBKTKDlnjHuhcbEmwVlUJbjU4RlgQtSEYiC4cxHcSbLjI6Bu14zCqJCkmlcutZzA98L0xsBPsUHRsGQCsG1yzND3afIWGULqHDyphbkegVxlY1ROqDCmp7dc7U0w6cYUCFY0ju93BdHtfgLvVxAhTVXWFxb4nAKnQ3pX3kIj6IHDIdTiKMSh5CDD7U8vSkOpxBWq10WydC5T35E4RS+qMUYPppvHJ37wRSiGa6pxVTgCmRnZDCFHiJ/VuoVyIYYTKGH6C107lNLBVMIZugW+IOzL2qcYiiFI6faaYArg2qIoRQu1UJvjnE/8KUPiYVCzYAhmnlHLKQDj6mz7pOAJm5KKbHeq0W2tNv0py4fmE57fIrOwcytce67CkRDbDDuu3v69os3AvdoirYYYo2ImH3supM4uAvEKVhjqROZ1g5DvKqhMLNfvgEwYjCKtKFHpA1+yzjabxCdegGivF2ncagXbY/OkOHADoz53wgFBgPwW64IBTB1Qs34ULZzHxon2uwJgpIpzQbYDiNOyAgs0XUJBULMgOEd1s3Ccg8fxL29QACFfje95ODKIAxxAyjEcUjtQHQwRELUUQCFEChS1ww1n+Kj3fEaQCF8VvV38nINUV4hmuGMcodq4Hr2JATyCr1v5IUu3G6I8gohcNJHVgT0KVqrLK+wq/7cx4Z6pnNfXKEXdz7CywYirhC+qXcv++lfoc62X4srhEU/P1mCsO2y1VlaYQbufD+7stAQbcvJ0goFzFCrgW0tUlohpvOiCbDCMkRphWCGnOj8KjAJgWWKKqwQvX91/IgqLEMUnuOjGXrb4Ao+xcdhJfBCDtW//QI2j19W/xZa0jrufATCHBuEv4wPa/vNouAxAWlsKSXUcucjzKyZgbj0mCtgY79dBHwmXhnbbxcBn8lzmrnK5tEMtbFSQ6ANJ6gw09cGwSUsuJyR/YbB8ZvDKn+x3zE0nvPKNM8Q/ZqhloTgYTwqBTqWffnvfujBwL6/KP8l7OTynZgTnfsVkzjB+FLv7nyE+vwEZ8CYzMJ7eieqL11QIawvfHIFWEHnfrkjVlAh1MB/omqqEcgpxD5ZIOs/pOUpN0Q5hdy1WjZEn6KcQu56Oxuic19MITtmgg0xxkNMITvuhQ+4NUuTEIgpBD8DJ0MAHVqQh5hCyJPHTS9Ag+bcl1KIMYQyBxlNwDddZohSCtFV5NWB8QMYYpmjS0ohxCP6c+dX3KSs8lIKSY+3LhgwXPKhCClEb59Y7l+4S8nanZBCjEcUS6RO+VKEZsCw/EXd7ckHfIqP4/txkXv4lPfG32iMwIsxN5YYwbqh3OGMOHCKh1N6ARqxpX0h1BueeLbfPQByZtgU577kuSLNSGzq3Y+okE/t95dHNE18EwzxUlKg5lOMg+w5vhN7BcQR7CtOxN+iLzO9V9hHFvgifo5YFncl8SPEQWnj4+o8Dqsnya4wkUgkopGNt4OL016rx89N31dLnvU3q1MAz2E/uJ1FPY4pm2lHDOy29b1g+fIDL/rcjyZyacqacV1PY37sFq853UbROC7LClJn7F92OsqLoPOpjIr4/b3ra8x35RcNfRJj9llel07nzW3D1aLSg7ALemJoz5a3xmVhwbbn4SHgEXC5/fgLfvAnIVGM8NxXgbI5gRvRQ8mctg91xjRpnv/IM5uMlK9JIorGAPHguR3rosR5dZDT3snOKM7mQHLatBCtDf0sKLrVZOSTe3Ziur4pOvafl4vepDd7fdP/QQ+QLA5lbtanc2Tmxccp78fQm5nVdxOeFdZtqKPJQjNz911yomuUb2y0G0IEXe8B/0nt97WuEIdEuolKd4raeWWahgnaEzXxCH4XB6010fTLOvX1dqbQeGMcLzUJNU6YCoNatFIf+VqqgJdkOIDoWF1ZIzicMSSFQzOtK6EabEkNdoaRPbTWFL98w3uvdXIVE7hX19ThwQojbVIHbbDxI4QYc9nD0OFxG1OnwC9oTTvYtrEhgaZI9pRpGJMaA3fgLe9IF4UQdeO0C6zb/04LFQhFNj5uGLbSdltDMJnRyqA19buzUgdMxjjQh/6CFvkC3hlj82u/rTfgYRpXY8EXQeu7YOZkjG+GnNSyXT7U33gCEZgMLQEu1N/Y/IKP2FfKFjP2TQ/gL6NFL0Hz9W4wXeGNh0AO0eyG542DSFrXZS2DvllhZw20e4aXiE4q2oxcy2dQ+D++wvrpPKvBOWAhIRyeQUvdjIyubr0By/CpcY4MdUGb4g9Ropb+m9qua74tHEnowR/ik/w93u9F6b8yPeqNOkbWnVvnynNbaPP/qfgyVOHI7tX47z17hfzt9JR/BQ/s3V8LzkYFR430BPjMFBT1/nzzOhgW/szYQWeIW70YvN4MipkcjPMZz5BdmxyfETlcTnZi8cW5vR7/w3EZURPgSHcVf8kN69AGeBNV4hEFgRbYSNsuuOHmpCD5YGvdhfa0CD91KsEUA7Sj/7A+cJctEZUL5yfkNgMZsLxFt7CC6+qLBmlGf7gvrMMouH5NlXHywUNLJ6WdRte9PbgvXWUbhlvD/wHPLfzHoZ4b5fbBdNGprI+0nH7hPV5s6o6q8m0hDmIXS9+J3laZTwyPYy8D/9FGmTCubgOG0ZSQz+bLq3nfr6H01vPlcj4LFV6SSCQSiUQikUgkEj/8AWJ4m338uIc8AAAAAElFTkSuQmCC;" vertex="1" parent="7-BUgE6l9A-gtYwP11fS-1">
          <mxGeometry x="863.8978818415344" y="135.9698382749326" width="36.09935763259961" height="36.09935763259961" as="geometry" />
        </mxCell>
        <mxCell id="jQw76j21SIlAW2s81NRD-7" value="" style="shape=image;verticalLabelPosition=bottom;labelBackgroundColor=#ffffff;verticalAlign=top;aspect=fixed;imageAspect=0;image=data:image/png,iVBORw0KGgoAAAANSUhEUgAAASAAAACvCAMAAABqzPMLAAAA8FBMVEX+/v7t7e3////90xzs7Oz4+PhSFw/39/fz8/Pw8PD09PT7+/tSFw5CAABEAABJAABLAAA+AABQFA//1xxQEghODgD/2iRNCABHAApOEA5MDA1MBQBEAAf/1yj/1Cv/+vmnkIu0npvp3dvz6ef/1Cr4yy3uwC3CrqtjNjCGZWF3VE/MubfXycZoQDu9jiZdMCrOoCmsfiLarCvFlyecgn6gcR+Qc2/Fs7Hg09LUx8VxTEeTZBt0QhJ0UEy2iCNlMAqCURdVIBnluDVdJglWGwaJWReaah1YJyGZfHqLbWhrNw/JnBg1AAB6Shns49+EVBhnkIagAAAchElEQVR4nO1dC1vaTNNOUiHnhEMCKGqEVBGB2gNVtPZgT2rfpz7//9+8OzMbSNjlpEFpr2e/6/rezmOLw52dwz0zu1E0hS1NV2FtKSgUtlCw4UeaLREK+I8UFFSdPoEEiwQ1LZgoGCQYKJgkWPT30sLWhumjKqSDvjVRSEkUQsGWCAVlotBWWqGttEJbRlohUyIYW2mFttIAbYo+6wRI3TCAHqTPfwA9I0B/iYlpuPQtXCQVSLBRsCVCAQWFBJ0+gQSLBBUFgwQTBVMiGCioJFj0CRumj6ro/625S1H/ziefmz6K+nc617z0USQALeHM1A1zruvTRwbQfzvoP4BWAWgtTlFLO0VFdIpK2ilqWSetmqZh2BujzzgPIqT5BxG4/INEIfH2HGn+xejJ0xdDYfzFUgI9bDMtjL8Y/0n7onVwMGydjwwj+WLPp8+GZdKG0TsLXc/3S77vude3I/jefy1ZXVUhZluta7cUFPlyglJ5cMEQ+lsBWtG56sbFsTdGh6+w/PFe+1vJ6ooKRQduyLeOEwSBg39winW3xzfAMwGU8fbPRRHg9565Dm0a3w1uTm9C1ye8gvIBSwSfVh9y0igkZNXC9VSC8KNCdOchHHX3sjWKIy2K+62BRxC5Q/up9ZkIm0FWVWPooVt2T0bMcOxCoWDbSnQx8JiRFR2388T6pHbiZnAx49wtOmBd5wqAkyw7ajG37TCERtq8Yvtfz8XM+2vAIbxuawwWPQWRdgGBzQmPI7ZPWIptmpYMoKflYk9fKjWGPsMncNpKYXppfZcBVPRaLMPun3c6vVFMJvaMAD35DlLvQ7aBHPdCmdo/iFDHhVB2c3vadD223GBw0NaecAflFA4fQQ4Vs+UzDEpnmrB/EKFuHRAaZ9gBywMGPd1cmz5TZJUWdTJ52lgggYMrEZInj0tXUpvvIZ1MMzqGL+/HthQgu112ik4mv3ZCd4A0bS36LOysLpHaa8JWXJr7bAmmYWGIL9ZPYtEF0RZqFh2HUuwEKQZRCwBahz6bRjWM8zJ962Z4ITUyu+cBNqHvlctl1ysFCJPjdie9+bz0yeygDQHIbIdj71IeRrbopguR5xRLLMO+aMfxqDe85pzN/xgpfwdZNQ3DMGXagULGJfjgYgUNxxu0JZtI6XrubZsZFCxFUy4GLiRHjtfVDEiODO5M10RWOUDcwSvog7iDB8GWCGjzk5ScFOLRkBTi0RADRrvXOej02vgtxtFQAYEpZB2gAwq+Nbhr6WiCr1Y6Z/fp/6poHSSyDKHu5enpoDs8v9eoorhIH8QkUUEQkmjIAUKB+0XOzDKCvkAoLCEocWtQ9jzf88rHB+CEreQX6fjXCn10QI33hx92aROV70RfbU+DprVv6uCJ6vUwCMJ6iX16617RV1HOWiQ8BVk146FHRQv2bQLfHcbmFDmMrqHws3O1X629C3bwb/o3I3lCNF4I/E0IH+ok8Z8lR2fxIn3Sqc8GdFY1ZXTsZ9IX/7RPmdc4PHfhL1TCo+qLF9WjqwZ9V/cgkqdEqaW0/enqY8mHyP8HcTGt3awn1WX+oEPgVBOFtE4Z8Nl9x/BhCO2/8bivPrmXp0RpKwMKEoTNUqkZ8o8P3JNY+3O4mBbX0bqCkudf+x5/4B77DolCZhtoVrHxYe8Frdrb7w0wx2LT6Ym+empFl54XXHaHw7uP41J/6ab9x+wgTRvg/imFw34cx/1hUMJcuFS8SPpZ8XHIwNj+fFjlAL2oHv7LfLUDm+F2kZnZo+FFTN/BGA2LPiSPTt1p2zkDlITD3J00EQivG2sse2GBKL4jThW4QwrC1hk6IP/rGB+29l7525QGDhb5aptKj/hHLT7w8XmEN7G6wEkvJM9ZJ03r0WSVCxYJpmr1MH57t8rkS3S8OhqQx747e7o9NLDdT7UX6VX7+rmBjIv5K2Whr56gpbUHgLdTOtFk+giCwTcfWQYJ1kwhd7JqtrFx0/wYpb4E+w68Mu93NC1ugt/Y+bL3Iruq+z/dCgAZuN0Z9FUOUXSHFWyWaor6CK5j65nJqnHSBP9cz5Yw7GhYDije3EVIMSrfD18Iq/a6vkM+97q/wMyyn45JA/ul2sZzMU4gyr3UDsA8VuuFJfruTUj0iu7bqggQpES7KfoqsNeZCA3gQ/2DzQeo78Jm927p+evIMulLKPGJy2s7DlCMmgQf8NVvXPLV3iBefhPZI/i9QT3SnpisqquRVS1CHhAOyAHZStzv9doKVZxtrZW0mBnFmHZAEzPDlAj8Vfl8eYS0WzAy71zTHkhW1a1ZZNUAYmYsEgok6PMF7Q6TEreNu0YZdV2XkdWbFi/2aKNTyrArpSOZgXEzO/wxpq/m0luo7bFUot5VppSzDEGwFgk6CWsgq0YL43e5g09eaZWbOIgQjIs9SjRAV+2+no0PQ2jvVUhV1n9GS4Z7vaBAhd/xWC60uWTVHCGr8O8QDe0A8iHyOqHXwcxG6ftY4/g5wwGNzew1cl23tbyNKR2IDu6FucFUIx7Agw9vkCooF2XOV/H/uVDsseNrKAhuf96fj8+L2nuI9s3uKqG+DSHA76wVoEftINW4pceOZkFYFAPP8+pU8Ljpa0q3xAxnimLI1uF3cELujHaQfOEvLB0YGwuQce6lzCI6KUFKXO/EoxOPF3taLcwBdl8tMLAX1deQDPnDFTYQ+43QYyud5QhQvmTVbmPtp3SC0ZFFdAxnPfgRHyBzfMwUGz9mRvgxQB/Awsr3q2ygggYGjgDlTVZNtjglLaQFWyIU0kJCVtkfTTMiilGMbaiLjjAn9G919vcMFt39sT/a/iahGFNr7xfLFcPLlTYQAuSUbjUlo5yJy0oLCVkliQRLTQk6FySVwIeRVZASioFjCDbli/VBrCI51KIzYGLorj0pxZC4oNLBCny1kJjYUNtMsmr0cMt45DZYvggOyB+Z5NjY6vkBdpF33yxyQGwdwT/3zlcCyI7hAUBxegFAz9JZxTkoRg4ukWJoHXJAHT3x/AyhEe6wnd8vBYcjuqCvkG96Fyu5IBut2uvJAHp+smp1wf8GPlIMmwrOLF9MdjFw7BOqcQgU4+i94LOrX73VAVIOwM+V2w/cQfPIKgGkpX0Q56eikJDVLEAWxe8yGUV0HGIFNOJnI7CZ2iITFCjG/q9PwhZ6GED4BLxoGqCtNECJPoKAAG1NAUQfrBu4JEJBIuiiYBs6j1k0B6XdUj40UhgFhGUxVj8qF6U1jtr78pFoYkdhBdzJSj5IuYTHUj/RbImmY0o6X8iikF8epJxCjyI8Rgek9JBieAfWhA+qcRGLrL+mKUb1dfm3JCt6+Y0B1LxbKcwr+Fwc98BYI1l9mK1qZz4WyTjFqMMUT/PESLkvHV1UpT7tgNhW4a3DqX31ZQcKqNFCVCZLL1DZ1SmPNo1qGLRlEorxseng2Ko50QGrIE5x9920ge1f7cgq0y+qn6Bk5vZWsDEdyq51MrL1AfSQfMGkVnmpSxSD8kW3Z0x0UEYe1jg+iA6oMaPyegSTZeFgtVTaJk3KfW2jdpCBzy24ianeQyXpoZ4KgBTV0m3UxAG5s4j93tU2wrwi2Wh5kL9f5gVQLk6a5jAdt48UI74Bd83yxbSHHEraqOiAgorYG+M/e7cLqXi4Ur0DEwzINkY5kVXsONg6cTYSChKhQJJE0G0bxuFhyxxQkZX8pNfW8cORD+rn0jYqC1VXO5XGLGL2EugqIL1aLoQVl2ZXJ+VAhYSsjvUBsioKFmeuaUgWkdVMoignqwqMQYFKnGJQNuh2jEliBo1WaRuVOSBGPGZVPqpvsT3mf1ylw8q20GmAD8ic4VvnJ4proBoaUQwyBRtK0g6jGFbKl5lJG1V0QEVnd3btvvYTAplTOh0tnIZJb6EW0Fy/ZWzKGDDFb2qj2pxinMapaMhHxYU2avWQJcvbs5tjmAJgHdK7vddolIFZwiKA7BiaAuHA2oxDvYUY4qrj33KKQT2xvjl5YkaPIrwQzPd+s6+/O7c0dPiNTy763fN2pChwEnHGZpr8Z+0OynbeyMyzsyrxQfPJagKQgvFpQjHQAbWsyRMzqAqyfTVd46i92ZX5pWR3/a+K/0MDwsxXe75zenzd9P6RRzXlYgIVzOYzGzPzIKs8ihEzywgUqwoSQU8LyLCcMrVRo9MQ88UIKSB9XNQtObI2avUt0nV5DlQ9+kx/v3r4hQYZwM0F4Ou9jibJjOz2SWJ7jHDANq6fFLimnLlaEsEShSwKj8+DLiCAl6iIaPeBcARONM472MamRqs7Tbeqh99ZEN8RMmuOz/fEIKt7n7xGpThZwaA1jAWAopvbCWxw/oXBGW1EZxVKVA72HnSoV7EcmuW+E19m9l05xdgDLlrxxToH4vOtOaFntcP3pcbOBKPAL3emPbV2Vk5Vr3mDdbQRnVVwiMEpKafclopOcKxOFDLjU6IY0zWO2iewnIa0OM0cz+6b9IarHb77XW/Q2sYgOcXxlU7ZS4FG5Uy/tRFc7JIl9nXeHgaAGFrxZAcZdzMoxluv4jjb32Tt5+rhZ4HfV2uHb9+9ef/+zavfgJCX3ULQcc7UHhUnwFpS+srT59pBUMNLyloKHq4EL8oVMrByL7ZR2R6B71mW5oiHVzsNsQT7ooqr9hayruDaSIcyFhscLz0DQk7odCPIKgychAN6oPaojDQMzwQwp2iOcFJTbKPu/YDgvfOvzMD2vzTmDTbssdzRSQoriQNiqTP1CpIdhE/KjzP89HnIqj4swYllHlZgShDyxJN7HchhdFmHCC+0UauvwAFVmrIBKoZdZQ77YMbp4kM4G1NYrQMT2GE6stkstjrM6jJqJ2Ge+KlEsNJfPC+yamLASHyC3ceY7pSK55ZqUeGsIrRRq1+bFTQ8GT7vd+fQV1i1Dw0HD3RwCqvAWFkxuEl7Jfu+jF7afn6yqt5DUhZcR8neTgZ9b2PKiiRt1EMsY0hzaAxuM5LH8T9H/+WUrs8jhZ+Mmlh5YmMeZmf2asFHXQNAWwr4Q/AJNg+4Ph8FGvSRYoht1L0PjeKMFKjG6P3C0TMosuFD8D72IqWP+IwDaWJ2YOv1kxUBWgtZtUdoVd4d9wnjefoQLyYR26hQKITqvWRAqPrVr0iqIuJfC3fw5HPduz7FW6ucJJef+G1IOI6jvDurGR+0HFnVNTyU4vin/PTJeJ6e5jim/S01BFkEEw2MEQxmPNIeEP347fhPvxo01Bckx+r87BiIcsAIoHNt5kZWJf67IEYxMaQZpm4bOOaSOn2i9YIS11s0FyrxSLfJ/q+dOcPTtXcTbw8HOrZT/AxSiyxAHYzz90oqVmWiWMJPxShmpFHIpbNqjkJEKBVY4hOc/S1uC21UKLIyvib253lyVPHkw9MMkn/SFe3a2190tIwvL9s/sy+IjanPT1Yt9g9G1yU8z1Zy6PIE3dbwPg4pxcCNJemEzWNnLPW+KmejXvXlq++0iRAlt589N4OeEet2z83FLKSkXSy7JpcnYHNK5oipxgHHnEUIXsOJ1Rk5NKP3jWA66lX3sXGGHf+il502t9uQYnjn6wBo1c4q/lnvlOkEBs7TM8qBNY4fQo3jX3RA4axhjlnHf97ubIvZdZUGzf1LamJkAYpBA69lbMYOYp+g3VN0d+puR6PCojipWUOKIXVA6KBnHP+psc01Ofo7Xkc4R13qgj92mlM1tOgfTKUfD1AOThoXc2dDl6J7+QxrHOKkJs1ESScU97DBU5GWP1j4qmx/FuYbXkLJn9lX1PIdJwinKkQRjtwfGM9OVnnzkglG4bzYRISaTTkO+5+3pdweMHClkOLPXrkVyU+w5A+te3sIOWFxqsYYQUXIP9AeGebnktVlE0X8RyAY7RNvHHglbVTcJTu/xAyIs1epgSE+YmyDihtAemsYVKWbBghSSL+1eqK41hOHZtTit2cyRyzUOF5DYNkWJzhZbEMHJCZNhA9EPWEsFhgrDWEbWJGaHjiPbmhg+uHBZx0AMWFEZ8Ekh8GgjVqslCRWlLBXCYkH/+NUhAhPSaUT1EemasDgZngyBZCCE+W3G0BWp86sav0ZmSC2USuyAIbsVTb6QfGL/UT4Rzwcuh320C0o+tanD00lI/ePBuixBbNpgHC0QjKpST5VBkLCXr8IZsQcDWP3kpYRsH4IUmdgFAZA0Zy+ZBAnTvAA9CMLZvlFMRT4hTdCMRULGSywSYhowl4lyePXUJ5cUzgMTyOISIXToDhd7UicNI9ikpKrrP6aKbkmw0L55UGYNcxso0IVcFecpx+Ha4ntMX6xDVYpuKYa+izH65OmcoAcfrJumTzo6c6stvmkphDh4Svt/pTgM5u9Mn4KZTHRKslnOYxHoD4aZTzTYb5MieIjfWu+Jw4nk5qyryQhC2ztf5vFXnlr6IuAz1EJKcaJoU4AEo5NEUBr4WIPPdTL/o/Oqwo2UT2qV4q7UnwoeRSnyxPTqwRCWrl3tYNtgrapzt5BjKyCJp2N2kEaDZOLNgFumOEjoRHU5GIOSDSw1/KpNKy44TlPQ50HENaDvN7jyx05OmkcNZMUm9leqEj9c3KwWeaAjmaQD+6zvKE11kcKEFUU++ZSFcVlyCoMC40jOwqFBYJNQhLmDf2ySTUOyZyCK4vv3MCcnd+CA6oeYiCXHHwhSOuXylgfHtCzACk4ZOa1eU0aNZ09QDUO8+kBKhLyI6tmR07IYVbDfyXFp/q2LC0bEflwZJd74FRRMfDjiT6GbAdhc94J7x/f1VAEgB5INQwccBdp996H3fCtvBOIEazii+yMMwmxdUZ1a37LFNfHkgGkYQ3kejPGgOk34SjethCuGYf/NeOSF3K3kgZi9SuWMsTCEeXjjn9mpfSxbiSJIh86kfbmVwk++QGEVZmicKqgeuT/mNEoxfqiI6sB7WPvviJ6M/JM4XGsLgQI/mO9m0PrOS+yajLK6IgVner7V7LwDgsGfYqNL2KGSDtLUkSksojjjsy0PtYgFE8mRjjdMcxhuiMnsqpgYtZ4I4DxclafHf2MzEHTnR2Sim0NT/8U3ZaeUUH/iHMKGYAoDfI7dlrT1eaDciarKvahGnOvTMrCAPFalkG/OPyG1Q9hKIQPdfjdaX1gjHTq3B1GeWgFpfnpw4r2tPseTTVMylyXuHEi2Q7MXMTRqhcJVZdUP6gsElzDxEZaHwpYmfmpAg4nB0FUeKxvzY1qEEDuwjuBxtsB4lFZOL9KB4CklUds6ifHdTMA4aR2tu2Do6VsV23CGHAaoOVNDAqw0hs8ZpEPzs28A0EfrQPT69nXckRwKJRFto0BaEvFVq9sele6wBHLy2c/YZ+I1Q+iGE7zMhIB4oMcE4B0Gwvj3vlGjAEnZLUeyKeipGv/87b0iiVi93RFeWZxihG2LVEfrNJlxl/Q6orefR5nNeiU2viAjyAUJIIuCEyC1LXSlB69EPfJp0ZDUqPHS5UcScU2qcuWe5qojxXj4ac019COA4f57UKiXMJPUbAWCEYGktzIKo0DL7z6j/bJ4ffG1b6sPIQcTPyQcY1Dk+mDqXT6sjw6qlG6NfI4L6YIAD2Maqh4DrIoYZ6SDfSmfCXlH9hblKTjlBrVB4om0wdbq8HNJIxxC+utfOJQFYJPnmyeTsZ/m3P96BgH/0p6hRlG8oovOiCsTgd+W5PqYxAekwEhbDsHxXizLlgy7+t48vLzQoRqb+T4MGILFENIjsZtVE2uj9mnw0/JVT9ULCudrX6oV7aD8iKr45M928G7BaHs8Iv8Crzajx1pG/XIR4pxhndYSfRR4QSmE35MnJCCd4G6Fzmdm0eqmSarymKyqqTJKn0CkEF6V2pl98P8SfAjOT7oicWDL5M2Kuoq04feQJbYGN28EF7qGeXM8c0LJCy6eUFZR2dV4ddtNj7PKCHOXZjqSNqodLmAN7Jm6qN34D6TEh1a5dej0u2WOdzdQbsvr8bhHV03vu3Ji/TzFt5DIZYXiZs5bmuOPlbsw31OHtytYsP1qMjDtDx8a963AUcHfIBq98sS0Sy7U9gGkmTi0HOESU1tnj4Ux4LrkabF6SuoNoeLUeOQ6WBd3NCFpDuh2Aycv4G8itgygtth8N1A8RyAFEOlllzgn3SdJrzehHl0IfhsAkCajjPloKJT8X7KkuVZa+/HjqQ8VHuDDgjuk5qrj9Ghe6vrmGoU68dxfgDl6KTRKcJNAmhmlcavo+U3EcuBxPIHnY2GGscifTCCJgOk9WJbHevzWLLKkyvJDYI8q5AIknsU04J2PyAz2/Zf1ZbcRCyJlryk5fA7DJLVB9FifZS7Mj8Z5XinsZJVbtHViTJBQla3HnUT59bYVNnzpZlyp7I7q+czvQ6/74gOaO9fnOPw8LrcBfpoWsf3mmHY9MoHYOwpfR5BVrfW9OIR0+oFTfLV35dKiarvdiUOCNuoTvncWEofLe7cDQbdVowBPqMPOdpNGAMeK8Rnyh2HpURL+Oq932VxkOxrQjHU5fRRTXgThi3V56HBZ33vWTUtfkd7ZfdqcUp0VBYzoMPPUDwLT6UqzLnwKWeAFpDV5W8kFxSykndA7oSL6Gv1jXgXJ2+jltur6aMu967nFW8kz+dOeyakr41XC9GZCwefixX353xfvfdLcEB8upxRjNz0Gb+ADYTxC9hAkN1pnwh5ktXpvEO1OmHdIfr6da6vFoyQT5eXuoaanz7PTlZFX2aMLtFXs5To00r0NWmj3pu56rOyb13ja0TpXYmmOvbV/y6ZEsHiAx7uhZHvA8sFoAflC7MVMvo3WM5nKdHS9HXcRrXy12eTdhD/SdTF24GLFe/9zGGYLD50GrV5Yq5Dn+cmqzKn2OFVosbVUvSVt1GD2FyHPg8jq5IXiWeE5d+gLhPscUpUf7eYvnKK4Z7b69Jn/hvUM8JS7zicFha841B8p6BqxmdEthdW9McjnP6ttTZ9tma945B2IjdVFMjO1kA1Et8BlUD4mX3hEX1tfJtPX/n9bzCpuQ59NoWsCtHH0OKPdCS6Mr+iX8M2qgOvBFqnPs9OVsUnpmktfn3F7u/Z9DVpo7bgnZ5PvYOWAygvsiqQQ00bJSlR8HqGr64eeUQxrPXro6xEVlNSHm8LFwQkh9A4I1/tvZdXiZI2amw+hT6L3xaurpWspgWb/5tzugOu2Pglo6/URi16/SfS5+nGgJfOXLX7S/LV2744g09tVEYxlCfTJ2OqimCqT0E1phTSogMys6JQ0eej4oxi6E+nz2YBBL5D0/rXJVlKVPuK11MFxbb5hA9sLQCpD1cIk8eY3xKz7b0/TCCqvnxVxxu33J7xhPosBmjtTlpCDjWTuq8O20Sfjvb39vb2j179oovZvSFOhj2pPnPJqs7WmKbpuDi3WyAUFgoFUUh+kcLoK+XVDf/bly9fPvtw1TjMO59FhWfQZyYKCr68Mgekt1bdidFt0iuubO8kN9Y77llOT35lfeQ78SmpxpSgaT2vNLkoEgZCivXyAV5m/hz6PDdZlSkUd8tw42qCT718OTJycq5/IlkVBMWyRme+65fq9XrJ97zuhZXbe+L/OLI6QyHTMC8Oht1u97Z1EVumNDw/pT4SgLhC6kMVyrR61cwTs9I6JC/6ySiEf+aOlCjp1rPrk71h9KnJ6mJyuGn6PD0XSz95ZRnT2Diq8azsOS/f8aeS1b9iB/0HUBagtTvFZ6EI+ZHVRRTw8YK+QFjPb81JH135W598Tvo8K9VYZ6HrTyCrf4Wzf142/wfkU3IuRsLM0X91Se4z1ZsnHTIKqWmF1DRAm6KP+n/ymWbmEZxHuQAAAABJRU5ErkJggg==;" vertex="1" parent="7-BUgE6l9A-gtYwP11fS-1">
          <mxGeometry x="282.7779044625654" y="130.4221832884097" width="73.25630947978905" height="44.51322499659421" as="geometry" />
        </mxCell>
        <mxCell id="jQw76j21SIlAW2s81NRD-8" value="" style="rounded=1;whiteSpace=wrap;html=1;strokeWidth=2;fillWeight=4;hachureGap=8;hachureAngle=45;sketch=1;labelBackgroundColor=#ffffff;arcSize=0;fontColor=#FFFF33;fillColor=#E6E6E6;" vertex="1" parent="7-BUgE6l9A-gtYwP11fS-1">
          <mxGeometry x="173.09" y="1291.67" width="776.91" height="138.33" as="geometry" />
        </mxCell>
        <mxCell id="jQw76j21SIlAW2s81NRD-9" value="" style="rounded=1;whiteSpace=wrap;html=1;rotation=90;" vertex="1" parent="7-BUgE6l9A-gtYwP11fS-1">
          <mxGeometry x="914.0393147157113" y="827.9245283018868" width="50.87096517794441" height="9.973045822102426" as="geometry" />
        </mxCell>
        <mxCell id="jQw76j21SIlAW2s81NRD-10" value="Novedades" style="text;html=1;strokeColor=none;fillColor=none;align=center;verticalAlign=middle;whiteSpace=wrap;rounded=0;fontSize=40;" vertex="1" parent="7-BUgE6l9A-gtYwP11fS-1">
          <mxGeometry x="421.5751900070226" y="510.00029649595683" width="286.8557203089644" height="19.946091644204852" as="geometry" />
        </mxCell>
        <mxCell id="jQw76j21SIlAW2s81NRD-11" value="Los mejores produtos" style="text;html=1;strokeColor=none;fillColor=none;align=center;verticalAlign=middle;whiteSpace=wrap;rounded=0;fontSize=40;" vertex="1" parent="7-BUgE6l9A-gtYwP11fS-1">
          <mxGeometry x="348.71" y="858.9200000000001" width="425.66" height="19.95" as="geometry" />
        </mxCell>
        <mxCell id="jQw76j21SIlAW2s81NRD-12" value="&lt;font style=&quot;font-size: 20px&quot;&gt;Populares&lt;/font&gt;" style="html=1;shadow=0;dashed=0;shape=mxgraph.bootstrap.rrect;rSize=5;strokeColor=none;strokeWidth=1;fillColor=#FFBC26;fontColor=#FFFFFF;whiteSpace=wrap;align=center;verticalAlign=middle;spacingLeft=0;fontStyle=0;fontSize=16;spacing=5;" vertex="1" parent="7-BUgE6l9A-gtYwP11fS-1">
          <mxGeometry x="245.14999999999998" y="913" width="104.51" height="39.89" as="geometry" />
        </mxCell>
        <mxCell id="jQw76j21SIlAW2s81NRD-13" value="&lt;span style=&quot;font-size: 20px&quot;&gt;Especiales&lt;/span&gt;" style="html=1;shadow=0;dashed=0;shape=mxgraph.bootstrap.rrect;rSize=5;strokeColor=none;strokeWidth=1;fillColor=#FFBC26;fontColor=#FFFFFF;whiteSpace=wrap;align=center;verticalAlign=middle;spacingLeft=0;fontStyle=0;fontSize=16;spacing=5;" vertex="1" parent="7-BUgE6l9A-gtYwP11fS-1">
          <mxGeometry x="752.37" y="909" width="115.63" height="39.89" as="geometry" />
        </mxCell>
        <mxCell id="jQw76j21SIlAW2s81NRD-14" value="&lt;font style=&quot;font-size: 20px&quot;&gt;Mas Vendidos&lt;/font&gt;" style="html=1;shadow=0;dashed=0;shape=mxgraph.bootstrap.rrect;rSize=5;strokeColor=none;strokeWidth=1;fillColor=#FFBC26;fontColor=#FFFFFF;whiteSpace=wrap;align=center;verticalAlign=middle;spacingLeft=0;fontStyle=0;fontSize=16;spacing=5;" vertex="1" parent="7-BUgE6l9A-gtYwP11fS-1">
          <mxGeometry x="578" y="910" width="144.64" height="39.89" as="geometry" />
        </mxCell>
        <mxCell id="jQw76j21SIlAW2s81NRD-15" value="&lt;font style=&quot;font-size: 20px&quot;&gt;Nuevos Productos&lt;/font&gt;" style="html=1;shadow=0;dashed=0;shape=mxgraph.bootstrap.rrect;rSize=5;strokeColor=none;strokeWidth=1;fillColor=#FFBC26;fontColor=#FFFFFF;whiteSpace=wrap;align=center;verticalAlign=middle;spacingLeft=0;fontStyle=0;fontSize=16;spacing=5;" vertex="1" parent="7-BUgE6l9A-gtYwP11fS-1">
          <mxGeometry x="384.09" y="912" width="166.76" height="39.89" as="geometry" />
        </mxCell>
        <mxCell id="jQw76j21SIlAW2s81NRD-16" value="&lt;font style=&quot;font-size: 30px&quot;&gt;Sobre nosotros&lt;/font&gt;" style="text;html=1;strokeColor=none;fillColor=none;align=center;verticalAlign=middle;whiteSpace=wrap;rounded=0;fontSize=40;" vertex="1" parent="7-BUgE6l9A-gtYwP11fS-1">
          <mxGeometry x="209.99917138673285" y="1480.0029919137467" width="286.8557203089644" height="19.946091644204852" as="geometry" />
        </mxCell>
        <mxCell id="jQw76j21SIlAW2s81NRD-17" value="&lt;font style=&quot;font-size: 30px&quot;&gt;Newsletter&lt;/font&gt;" style="text;html=1;strokeColor=none;fillColor=none;align=center;verticalAlign=middle;whiteSpace=wrap;rounded=0;fontSize=40;" vertex="1" parent="7-BUgE6l9A-gtYwP11fS-1">
          <mxGeometry x="418.1071522928145" y="1300.0529919137466" width="286.8557203089644" height="19.946091644204852" as="geometry" />
        </mxCell>
        <mxCell id="jQw76j21SIlAW2s81NRD-18" value="" style="group" vertex="1" connectable="0" parent="7-BUgE6l9A-gtYwP11fS-1">
          <mxGeometry x="380" y="1350" width="368.7" height="39.89" as="geometry" />
        </mxCell>
        <mxCell id="jQw76j21SIlAW2s81NRD-19" value="Email" style="fillColor=none;strokeColor=none;align=left;fontSize=16;fontColor=#212529;" vertex="1" parent="jQw76j21SIlAW2s81NRD-18">
          <mxGeometry x="17.557142857142857" width="351.14285714285717" height="39.89" as="geometry" />
        </mxCell>
        <mxCell id="jQw76j21SIlAW2s81NRD-20" value="" style="html=1;shadow=0;dashed=0;shape=mxgraph.bootstrap.rrect;rSize=5;fillColor=none;strokeColor=#999999;align=left;spacing=15;fontSize=16;fontColor=#6C767D;" vertex="1" parent="jQw76j21SIlAW2s81NRD-18">
          <mxGeometry width="351.14285714285717" height="39.89" as="geometry" />
        </mxCell>
        <mxCell id="jQw76j21SIlAW2s81NRD-21" value="&lt;font style=&quot;font-size: 30px&quot;&gt;Donde nos encontramos&lt;/font&gt;" style="text;html=1;strokeColor=none;fillColor=none;align=center;verticalAlign=middle;whiteSpace=wrap;rounded=0;fontSize=40;" vertex="1" parent="7-BUgE6l9A-gtYwP11fS-1">
          <mxGeometry x="578" y="1470" width="365.67" height="19.95" as="geometry" />
        </mxCell>
        <mxCell id="jQw76j21SIlAW2s81NRD-22" value="" style="rounded=1;whiteSpace=wrap;html=1;strokeWidth=2;fillWeight=4;hachureGap=8;hachureAngle=45;fillColor=#1ba1e2;sketch=1;labelBackgroundColor=#ffffff;arcSize=0;" vertex="1" parent="7-BUgE6l9A-gtYwP11fS-1">
          <mxGeometry x="580" y="1521.05" width="369.81" height="299.19" as="geometry" />
        </mxCell>
        <mxCell id="jQw76j21SIlAW2s81NRD-23" value="" style="rounded=1;whiteSpace=wrap;html=1;strokeWidth=2;fillWeight=4;hachureGap=8;hachureAngle=45;sketch=1;labelBackgroundColor=#ffffff;arcSize=0;fontColor=#FFFF33;fillColor=#E6E6E6;" vertex="1" parent="7-BUgE6l9A-gtYwP11fS-1">
          <mxGeometry x="173.09" y="1820.2425876010782" width="776.9100000000001" height="89.75741239892183" as="geometry" />
        </mxCell>
        <mxCell id="jQw76j21SIlAW2s81NRD-24" value="&lt;font style=&quot;font-size: 30px&quot;&gt;Copyright&lt;/font&gt;" style="text;html=1;strokeColor=none;fillColor=none;align=center;verticalAlign=middle;whiteSpace=wrap;rounded=0;fontSize=40;" vertex="1" parent="7-BUgE6l9A-gtYwP11fS-1">
          <mxGeometry x="418.11600937962504" y="1855.1482479784365" width="286.8557203089644" height="19.946091644204852" as="geometry" />
        </mxCell>
        <mxCell id="H6nFmAtNTzrr14siH9rD-9" style="edgeStyle=orthogonalEdgeStyle;rounded=0;orthogonalLoop=1;jettySize=auto;html=1;" edge="1" parent="7-BUgE6l9A-gtYwP11fS-1" source="jQw76j21SIlAW2s81NRD-25">
          <mxGeometry relative="1" as="geometry">
            <mxPoint x="881.9484770741296" y="-30" as="targetPoint" />
          </mxGeometry>
        </mxCell>
        <mxCell id="jQw76j21SIlAW2s81NRD-25" value="" style="shape=image;verticalLabelPosition=bottom;labelBackgroundColor=#ffffff;verticalAlign=top;aspect=fixed;imageAspect=0;image=data:image/png,iVBORw0KGgoAAAANSUhEUgAAAPEAAADRCAMAAAAquaQNAAAAY1BMVEV0dHT8/Pz+/v7////t7e3s7Oz19fXz8/P5+fn09PTw8PBsbGxwcHBubm5qamp5eXnc3Nzk5OSNjY3Hx8eUlJSBgYGmpqaHh4fV1dWdnZ28vLzGxsa2traZmZmqqqrf399hYWHwxnLYAAAQoUlEQVR4nO1d6dakKhJUcEW09n2b93/KAdwQQSXBr2rOdP64J/qe7tIQyAySJQOMEMJJxE2FOUdEwFQLCYepFuYqFD+bqDDmMOMQKTBWIA4FDBWYqZD/owHkPxvjDkaB+N9J3DPuYR4vYawlH6cdt7hnHPc0ZShzQ0MYTsCQw0yFyAgbaisxjv4x/hZjPGaMuSUxNwFzjiIBUwUSFRIFpiqMOMx7mAgYKzBTINLCUMBQgZkKkRb2LKMgEZZxc4GZAj397AowUL/97Fee/eD6r6z94PK31/Yw926Vq90q6MfXOCjMDSr9SJodVL2/iLWuI3JxHUTrOiSW/9eMx45TgRaMTXJAohnNMZYiRQ9JPGAcjyTAMsZRIhpDwEyB4QSsaU5ANIBsHJOUmRhOGSGkhw1N1Ms8GdZtjBRYNyzq27iHeQ8FNSyxHEWnRPEdIzei+o6RG4m0boQx3V2v2/v9dnsdNydhx9vxeH4erjv+tzltaHSa8JAjZ7m6yiQkY0+93l+XoGBWlpRZUBuHtCyLqqKn1/txjQl/37UVyDqMG5im0fZx3gdVUbYsTcaoF/R0e2xZ00X/m4yZ7Z7HzTzXAe+iovvnNUpJtJquVsexF5UZkSw7nIPKim3HuiyC432LLMaxhcqMg5x7z1p/pQrMgDBE8X1PCwhbifXluWPqsNaI/GfzHiYqzOegRK1VmTx2NN+TQaSFoQpDBWa8dUl22Nt1ZYOVxem94+3cdisxZBSYqrAJDzpYh2a/movxPbwqp9Ydkq72B9YUP6syuas6+aMrjBbBk2RkHcZLVWYPB5kmxvdMS690ayur44H57l5lxhJMR3CWMeGWoJCZgFm4BGYqRHh3rPw2b2+0uDzqd0Qpf1iqhbmARIGJAkP76KRXmdf9anyFFadDRCxVpiE6eVAgeM327TlvHin5icxeiuM/4Cs4nw5p+H3GJH57ds9TnPcxn2l8M5dJ0vsq/tlktHhmriqTyy9S6y8+XSeZDcSfS/GHfLmVwaHWnmHeac9QkJBgYoaZRTzGoQJJ9ocduremaxvicRT38TjWhWYHzZVeN3/ZoXujwYOr7b9WmSS6VV/hy606sonp+ipz0KvJ9vSdBq6NBtcFvVpLvlGZcyJyANkf0P2vPZZq1Tvh2jIXb16rzB4mKpRYglRmFB+/TZg57Uv0ZyqTbDdfcNEjo+UV4z/J7KWH7zdwbdUTj+TXCiozeX7PR6tWHOttHuuqzNuvtDC38vIhtuNY66uNaYCUXHwEJdqYh1/a7PDAVxMFjn318njMZcfn5PaWfM2FfbL9fn97v9l/Wcd0zXsWW2yT9bFTmeQTOLwdY7t5PQ+fKKw3fog+x5ekzhen5DajvJbKxB8HugV9PXZ8Vsc/XWf8V7mbuL43cNLVI3NVmRhpIMYxmG8R3K6ZmMvrjf04+sBJV890Zu4Ux32vXrz0EkIJ0+L0YMLfxLZrbZwdLkDO1T2bXnqRV2GWRicC7dLF/hDO0e1a+nqBBfvq4V1lki2Mb3k6zDavZIwzbE5WXbFflZnAWpjSZ4YX0605h09QnC62yKvKJKA4XJ52Fu3bGMI7kMqpPmQZ42Xj+AL67O/QsoGbZs7OICW7NQvOgcrkvKd3N5H8Bfno9GDfwG0zPwBfmJ54OO13NyGVWrO7aUqBNDB9Az453WxBDdw08xXyyD3GXjRX+gBEDLqJHQgzyh9A1qF4e2FMtoAu7UqYUd7ZPzWoDksY89E8udt4A3i0M2HesQFfutoJdzvYMYhwv9uYYbGjPG8EmgIFCo8QJ7JzJgwcyyfSk0i0cC46pU/AY4urB8KMMuDZ9DYTneYUCLkCvFbx9EKYBSlA/6ru2ElzQQYx3RtnhbaUif3TgyrGGKyro/QM8dORJ8KwoUwvM4ynxjGB+I7i7qdP15RvgKj8nN5f3UQqEZ3qeCxCUh2PIX36EnprYtavI/s3YI4zaaJTR02CUwoEvwF92pOfbg0/Ae9wGiUwl2kukJ9m0cEn4RAl9u/ABxaM8QnwsHLnsU9zAzVyyWf11iqTQB5Fj36bmDVyDnEmN0lldtSacdwc6RtZFoGSAH5HMTdQI1dXE6/EHJ3OEMYX33xZI8eQhMiJRJYqE8eQNGrpMxa3hveAb1/ciaXmgkha7jE8+y3BGLZCH0d2unoLaWK6X6GJQ5SCPv6TTLZx1DOuISh5WT7WYBzC+luxE3zqTQQSyyDWRSd8AC2GlPEKnZoxvkNSqeUz1UcnrQLBFwjh4LJKEzNvDVqYobvlmgs2igN6XolxCFF/vJGXM36BFjXLwzqMQXNGbvFilbmDLWkW6wxj6EDm7lqrMkWqL+fWwgwkt4Jgk63EGG1hO6o2IU/LytSYBU0QFlKsSW4BmzhYJRoLxilsS1V17VVmy1KnQECTpmA9x8UYZ6AXCugLL1GZsHlxwIfNWoxDYLTkec0FjAl0o2mxlqtmjIGepXwaGCPWsPzsoYA5SNNxxr7THxLjN/CdNuKEMIkklmOVmUF3khWf9Rg/gLtBi0c2qzLDB3Rv7ZptDAvI3Hdls5oLQebf9a+vFY6By4zCSjLHOALlPlZnDJQgwp2qjJVxTKD950cZ85CsVZndPkxQUqm28hcZB5R0W0xrlkGX6okjocTgG53L5BcZFwd+QxI2KhBgFk0Y/UnG9JxOai7oTPR3GQcboq4fy4wxhmzsaRn/5DgOiq3Sq8UvJuKsCJukfBzOMq2U1xOM4RGEaeuEU+tYDqMTdKIobE2V6cBYxCejykyhswjB+AdVpqCMsVlzEYdh/IuzRWHVzsyYODiIlZbZGsZOfe+AjSrTQWIyo+/VGCNgWqZ9r8E4Fr/Y+GrwxLv+Ze/7AzrCmdNhyVM68NXuS6j9L6/ludDO6TxsuYtMKhOYMmyNrrF6zM1F+wZ8q0ZkUpmR21nq1QKy22hjLpVoVSabO4EzDe0vrzSQETB52xh9E7lXSzNH5OSq/e9e6wjnTq/FXGomz48lv00cJk7CTuswdplHCNuYVGa6d/vhtRYXQTu6ZKOZXnPh1EVjCsb+968Jxm7DmCc0iZ7xzvUmg3XW2hBxfa/mSONYZUIONg1t43NvdWsYvGbQWnEg0jiWVmRc0gG1VWtEZJdMVG2l2H3crjv1sZm4aTnx0yssqCKH9GpjbC6h1VwEupwl2cl/t3aUmILxbT3GhcuBVANjt+mNYPzCY5UJ3UKu/rZ3b41iD3fhnOR9IP0umMzZQ3DzncJ1lh/cLqG010faz+WDceF7M6pT+qO1C9GqTC+Mqee9mc6aun4rg8r00qs9+y7ghknFqjUZ+50yOuZ7WisMuUz3MMDN64knp0R1b5XkraTMXuqlA3ltZC+hiVklolOmKpDUz/f0uRoDOjmpsaqJxysx9tfI7vPExlZmzM9k+GHsaRSzNxqozO60lzfGvhYnfI1ioTKxUm+RW+glOnHzdVeEtxe6SKcYZZXplgeXzcukEXQFit5MKtMxXS2Zj7sEUOaaaOyMvlK95vLHOKDuEQpD7qkwvM3ZwNhxEWbwjCP0bq6OsMcblOlzxLjehOyRsfOs0eFyzrGVjyZ7W6vM3m8TnzfLu92DgkLQUVGDlXfpXLm8mgrePa8zunfx177kZW0sWhrWj705R/EYh0yue1J+YOXHxNjPdLE1eG4A7/xWbqA7vcqMvcnYxjbArakoc7wle/QiZKAyeX6vKcrtI20oGT3Crq3yGInb95BYyiozOnguAwIbyl6jJLfy2d+zN7yjPPKSN5QNMqVAiVcHGohNe4ZdipHPqN+YfVT23afFxkxDLjMmrtsiRmZ/Xwbw0oDJl8iG9Rb5H5rLYb3lBHqz3pDrO2AE/EKHwb23g3t9fPuMwHrbAAJdoDRp9EaMd5TDLvOZNkvn5VltcSvbK350Z2Gw76dZr6961n3ciu0UY2+Zpd7slt4glxnOGCVTt0d62CagmtVGPuR1xiqMvtJxvcWu6ELy8e+67BgDb4WYsPKOlKreUjxm0HunsovIKzCuYoza+zIRGlXC8bTaJpndhifoPRgTtuG3VhtP/0TgiyKMZnnSzeE0sN5YrDCeMRe92vNcnF8Nb0M4xL7LGoqMz1S9xcTvN67OllNkhPaev3nWUjPVW/TZrWnxtM4JoMwrZS4x4+lKOKDbKfUPK/YfQJ4ehT4r7ooj5tO33GSeZoyM7xWDUnvIZ1XlQlwnOM3Yx+oTLYPzDsaXGw4PnjjTc18RyHRHeeLurctif0ic1p0QRuB6XgMrtgvqLbrOJorgGdsUsTJxxttb4NzQm3RJvUXYRYq18Zpsbs3bG8bk4djQ5ZMsqeqNwXs/aXW5Zp74cmMNvXMpSxiUn2jJ7ZHQlfPaO3vebIxweL1R6M1N+3SScVdrAHbal/FFqxz+wTh+bkAjmp+BGfdqPnEk9cyR34BD+N0+kCIOJ2D0XUY6OZwAnXuTyfUWibkSTvSxbeTidICVZFvOGV/3tiVl+QUCC+stpnbTiTK4+/RXBmNe7GXJOcRLb+y2qiRBxfHetflyQ3h3s+jb5bPbcDt/R3m+OBVCq1v8N3ytOVNxxd7CSjiLD/QV++3f8bXjXL4FH5PKFG9dq0wBlyUGys1hlYA0w3m7X9IeNOupIQkaqnpHC1agaPn+A4elMTbNmC8nW9wt68LM32lUHAFFUX1xzp5zbnsTWjKeq7JIg8N6imPe2HDeT/bCanCZj+6OcoS6O8qRKOWdTgqv4pZ+kS83Jv8nqgbz0mVdvUU+YFuWTGXmeZq3UozhtpR3nkycUaDB9WsdujNGw5wDLLYhL/Cd532t73y+qrdxJbfYR19u4Npw+DY4bXrktSTsq3obNoPyM+rfJlsbwld9z65LSYhNEFbVB7ULjbzK748QDvl+Rl0J3eLep2ytGGeafUbl3r0GrE/DybgEOL2E0UQbm8cxzsdrq+XLthL72oayl9oViygUfAzjmNM2VfXGqrwuzj/UoxtD+DZs5fKZiqreuN+4hSWW01W98bCe9y8SHi3O0QuJ4DWuh0Xq2WzkBwmLxTnpLenHhfFg4Y3fMfFtcnrDksMp7qljVe+uthU9rXeTr6vhLe2ahURKVe+OWnMWpqmu2Ja+HsGw8wvrXeTrbm05bHrKZ/jMVvWOCaq38Hu/9sKrtaeFyq2U+ABV9Y4igiPeyO6H1Na1+haNor410aWqN2eMeWaz9HWKei3j12gU51ylCWKM8L1ar5KRL0Ofks2YxjTtVGYHz/8RTSx+rXmADqJvQnxkkXYweA0qU/LbfUhSAxXhp0hQrVaFDK1hWH9PDWyfqYX9dVESbLtVB2u/qUJihlkfkiaj07QCGcBQhWHfg/RQ38X60RNrB1LLuB5THEYdJApMdXBGgfws4+gfY1+MZ1SmBEMVhgocOQzVd4zciKQM9PpHhUSBqQrnx/GEHvsuzBzg1BNmVab7B897KPWlZd1q1MP03WpZD1usMh0GVaQdVLECbVzHrBfRuw6J5T/GJsZaKPyiBFMV2jNWoAVjrKdprLfIrYf1DCTvYWqGqYBEgbkKxRMSLczMMNRCcR11FM5BpMCpqt5ObuTXo1Pf235NgfxTmf8YQxlbjONfVJmjIb1UZabDooT5HExUmM/B1AyzP4JtvcX6K4vOpMA2zyW+sg6SWMRjASMRhBUY1V2sg01fUmCmQKSFzUBSYKZCpIW4g9F/AXWsstamO868AAAAAElFTkSuQmCC;" vertex="1" parent="7-BUgE6l9A-gtYwP11fS-1">
          <mxGeometry x="856.2331688496196" y="72.69522911051212" width="51.43061644902011" height="44.60394488449488" as="geometry" />
        </mxCell>
        <mxCell id="H6nFmAtNTzrr14siH9rD-8" style="edgeStyle=orthogonalEdgeStyle;rounded=0;orthogonalLoop=1;jettySize=auto;html=1;" edge="1" parent="7-BUgE6l9A-gtYwP11fS-1" source="jQw76j21SIlAW2s81NRD-27">
          <mxGeometry relative="1" as="geometry">
            <mxPoint x="170" y="-80" as="targetPoint" />
            <Array as="points">
              <mxPoint x="80" y="153" />
              <mxPoint x="80" y="-80" />
            </Array>
          </mxGeometry>
        </mxCell>
        <mxCell id="jQw76j21SIlAW2s81NRD-27" value="" style="shape=image;verticalLabelPosition=bottom;labelBackgroundColor=#ffffff;verticalAlign=top;aspect=fixed;imageAspect=0;image=data:image/webp,UklGRnAJAABXRUJQVlA4TGMJAAAv/8F/EFfnoI0kR3Jd5g/4Ps0fBoZt20ai+u8/8B3Dtm0jUel3++97ANxItl1FaHCVSxjkSUD4xICJpfXqfe+dTnTgH/8IGgIDPwAACIIKP/wAIAgAAN4IDARQEAAEBgIDnwCAHQKAwEADXBAAAAQAAAFAgQcUAICqASCAAJ4AgE98A74AFVDwADT8AV4IVFv8o8Ay2gAA9dDFFQCB0sUnEAA0VDTAF0A5AgXKNwBBUABvAKgG6GJd5f7+0evXP85ZYYJuVQGfNCmpCtp537my7/NbYL+MWZJSK1WvgsO21uJ632XfZ7rOUZNtLdf7AAJPHAVt2zApf+BvAxARZtO2QVuS9hAsXZvE46/oGyxgx7Zat1L/PRoQSMhQRmIp0ue5z4j+M3DbSMqsdrnBEjfMCyjatnXszb58ipOvtm3bdmPbtpP+Rm3btm3bxgX0MqKxR56Ttrv4noj+S0IjSZIkmnjNZeAzs7tVtpGFP8uXQ8mISHwtJ3G/C76Wk7HD3Ufiazmo3nv3hNdyUpuZtYTXclJNVS3BtpQVI6qI1HirgLbkHQuWMLM8qThbciwihIj4I5XRtaT7HFmZLvpIpevC1pKt+53TI4kw7e0abC1mr5iOQBXmvV0DraWq9TFtyVRkb9dAaxFRmz5BjW5a93YNtBZm0fast3ezvV2DrYVYbFrDK1ru7RpsLcQ1J8TtDni9SKLMMRCvF0dZxGYF2pJlb9cgbfnrv+beroHWcpJ3yBjXs7xDiOsPhbxD7b93WI13qP33DmveO9T+e4faf+/wxY0z8zs0sLlYHKq8ClasXbt2RYFDxevbmsXo6Fb/nwMXrj+sTfPq1rHt2LfEtz7Ln4P9cmvHxC7aiMXPAYvnmEj53mFw92Isfh5YTN2CZXuHKcMsWPxcsJgGpgj2Dr08sKj5YPFcItU7zB6BRc0Jy9G3Ir3DzE5Y1Kyw7Hsm0DtMaIVFzQvLX4nivMNMsqbAoXmqMO8wG3wrNywdcmR5h+BnY4dlhCjv0AuLmh+W6YK8wxRPLFZ+WGypcrzD4VisDLEMFuMdBoMXmxliMYdI8Q67Y7FyxDJHyM3nWPBOI0csq+7LcA8WYbGyxHJSxLwCNROWWDa+l2Ae3cJi5YllmYD5dAyLlSeWYQLmI6iY8sTSRIB3+AKLlSmWBPXe4Q0sVqZYvNR7h2ewWJlimaTeO5yPxcoUS1/13mEHLFamWNqr9w4bYLEyxdJIvXdow2JlisVdvXfogsXKFIuTeu/QgsXKFItJvXdowWJlisWk3jt0wWJliqVUvXdYB4uVKZZ16r3DhlisTLFsVe8ddsBiZYplb/kodg/6Y7EyxXJI+RgmY7EyxXJW+Ri8sViZYlmqXjy7uBKLlSiWRAHi2Q4sVp5YmgqYj8exWHliGSFh7+BdLFaeWAIk7B388DsWK0ssdfJE7B0ch8XKEss4GXsH4yxYrByxmKOF7B3sicXKEUsvKXsHQ61YrAyxWMLE7B0cicXKEMtQOXsHU21YrPyw1EkTtHfQB4uVH5aZos4dHoVFzQ7LKFnnDufMxqLmhqVzrrBzh1/vxqJmhqVlurhzh5/sIWuSBJ47/Ho2FjUrLJ3SRR4+lzOaqM+WK3LKCfzqkHS9YaZB5FRiSBtlJehi89A0mVMVI7y3lZw7jb3CDEKnulf8hD+w+DlgqTMu2iBgaoLlw70TO1cyopiOCMgzKJjP2NQIyyXfKQM6N67nSsDfQ0yl67buPXR2aWLte+5A7f9zB9qRe+5Ae/+TWDSksdhx8A61/97hr/7eofbfO6zwDrX/3uGv/t6h9t87rPAOtf/eYTXeofbfO6x571D77x1q/73DlzfPLujQsA4DvQOanNwa/Hvw/LVHtWne3Dq+Yw0jvQMO8c+rHRO3eBMWPwYW29go+d5hSI8SLH4cLObuIbK9w9ThVix+LCzmQamCvUNvkvoHs4ntHTBnpBGLGhLLsXcivcOszljUrLDsfy7QO0xsjUXNC8vfSeK8wyyypsChRZow7zAHfCs3LB1zZXmHI7Go2WEZKco79Aa/ED0sMwR5h6k2LFZ+WOqk0d874BAx3mEIeLGZIRZLqBTvsAcWK0csc4XcfI4D7zRyxLL6gQz3YDEWK0ssp0TMG1AzYYll8wf6ewdcLmA+Hcdi5YlluID5uIP93gFfgoYxUSyJ6r3Dm/T3DngWi5UplsnqvcMFWKxMsfT7/tM7YEMsVqZYGqv3DutgsTLF4kF/74DO3396BzTR3zugExYrUyxl6r1DNyxWpljWq/cOG2CxMsWyTb132Jb+3gH7YLEyxXJY+RgmYrEyxXJO+Rhm0N874BUsVqJYCpMEiGdb6e8d8AgWK08sIyXsHbyNxcoTS6CEvYPvZ2GxssRSN1/E3sGxWKwssYyXsXcwyozFyhGLJUbI3sHuWKwcsfSWsncw2IzFyhCLNVzM3sFBWKwMsQxjv3fAuumC9g5Ow2Klh8XoJerc4WFY1OywjJZ17nDuf1jU3LB0yRN27vDzXVjUzLC0yhB37vDTXWRNssBzh5//T1XpjBkiD5/LHcnTFxqdp3xglhl1SLre4CW5d8AhFoIuNg9LlzlVMUJ7mMm509g73CB0qntFjfsNi58DlrrjY2pJ74B3jm9nxDBuOjIw36BgPmNTIyyXvSb3a9/Yw9lEwH8sL1u/be/hc0uTat9zB2r/nzvQjtxzB9r7n8SiIY3FjoN3qP33Dn/19w61/95hhXeo/fcOf/X3DrX/3mGFd6j99w6r8Q61/95hzXuH2n/vUPvvHT68fnpemwZuTibKewd8fPXIlrXE9w4YsXAD9b0DBnUtor53wOQBZu57B5zqQX7vgIMduO8dMLUd+70DNiO/d8DUZuz3DtiO/d4BB7PfO+BUB/J7B0z2YL93wAHs9w4YZGa/d8Cu7PcOGFHEfu+AC9nvHfDxBvZ7B7xKf++AR+jvHXAL+70DPlzLfu+A1+nvHfA0/b0DzqO/d8A29PcO2ID+3gHd6O8d0In+3gFN2v/eAWeUR6j97x2we+VYtf+9A+6iZ7T/vQPWwt4Btf/PHWhH7rkD7f1PYtGQxvLLhXf473/eIc8W7b93uJF3+O9/3uG//3mHTEQc8FpOqjCzBLyWk1pFpAa8loOapqqWIFu21prNzNqDiq1lP+8wvffuTxbQlrGIHO4+f4BG2rKI+13KVJC2zP8cMiJWByXUlgIA;" vertex="1" parent="7-BUgE6l9A-gtYwP11fS-1">
          <mxGeometry x="199.79091547788175" y="129.99520215633422" width="45.35994395033377" height="45.35994395033377" as="geometry" />
        </mxCell>
        <mxCell id="jQw76j21SIlAW2s81NRD-28" value="&lt;font style=&quot;font-size: 30px&quot;&gt;Contactanos&lt;/font&gt;" style="text;html=1;strokeColor=none;fillColor=none;align=center;verticalAlign=middle;whiteSpace=wrap;rounded=0;fontSize=40;" vertex="1" parent="7-BUgE6l9A-gtYwP11fS-1">
          <mxGeometry x="140" y="1640" width="379.43925233644865" height="20" as="geometry" />
        </mxCell>
        <mxCell id="jQw76j21SIlAW2s81NRD-30" value="&lt;font style=&quot;font-size: 20px&quot;&gt;Login, y registro&lt;/font&gt;" style="text;html=1;strokeColor=none;fillColor=none;align=center;verticalAlign=middle;whiteSpace=wrap;rounded=0;" vertex="1" parent="7-BUgE6l9A-gtYwP11fS-1">
          <mxGeometry x="863.04" y="-90" width="40" height="20" as="geometry" />
        </mxCell>
        <mxCell id="jQw76j21SIlAW2s81NRD-31" value="&lt;font style=&quot;font-size: 20px&quot;&gt;productos, envios, quienes somos, promociones&lt;/font&gt;" style="text;html=1;strokeColor=none;fillColor=none;align=center;verticalAlign=middle;whiteSpace=wrap;rounded=0;" vertex="1" parent="7-BUgE6l9A-gtYwP11fS-1">
          <mxGeometry x="214.4799999999999" y="-90" width="40" height="20" as="geometry" />
        </mxCell>
        <mxCell id="jQw76j21SIlAW2s81NRD-34" value="" style="rounded=1;whiteSpace=wrap;html=1;strokeWidth=2;fillWeight=4;hachureGap=8;hachureAngle=45;sketch=1;labelBackgroundColor=#ffffff;fillColor=#FF0000;arcSize=23;" vertex="1" parent="7-BUgE6l9A-gtYwP11fS-1">
          <mxGeometry x="210" y="595" width="350" height="250" as="geometry" />
        </mxCell>
        <mxCell id="jQw76j21SIlAW2s81NRD-35" value="" style="rounded=1;whiteSpace=wrap;html=1;strokeWidth=2;fillWeight=4;hachureGap=8;hachureAngle=45;sketch=1;labelBackgroundColor=#ffffff;fillColor=#FF0000;arcSize=24;" vertex="1" parent="7-BUgE6l9A-gtYwP11fS-1">
          <mxGeometry x="570" y="595" width="350" height="250" as="geometry" />
        </mxCell>
        <mxCell id="jQw76j21SIlAW2s81NRD-36" value="" style="triangle;whiteSpace=wrap;html=1;fontSize=22;rotation=-180;" vertex="1" parent="7-BUgE6l9A-gtYwP11fS-1">
          <mxGeometry x="220.00465057081857" y="714.9963342318058" width="16.956988392648142" height="29.919137466307276" as="geometry" />
        </mxCell>
        <mxCell id="jQw76j21SIlAW2s81NRD-37" value="" style="triangle;whiteSpace=wrap;html=1;fontSize=22;" vertex="1" parent="7-BUgE6l9A-gtYwP11fS-1">
          <mxGeometry x="903.0388642712663" y="705.036334231806" width="16.956988392648142" height="29.919137466307276" as="geometry" />
        </mxCell>
        <mxCell id="jQw76j21SIlAW2s81NRD-38" value="" style="rounded=1;whiteSpace=wrap;html=1;strokeWidth=2;fillWeight=4;hachureGap=8;hachureAngle=45;sketch=1;labelBackgroundColor=#ffffff;fillColor=#FF0000;arcSize=29;" vertex="1" parent="7-BUgE6l9A-gtYwP11fS-1">
          <mxGeometry x="210" y="1020" width="350" height="250" as="geometry" />
        </mxCell>
        <mxCell id="jQw76j21SIlAW2s81NRD-39" value="" style="rounded=1;whiteSpace=wrap;html=1;strokeWidth=2;fillWeight=4;hachureGap=8;hachureAngle=45;sketch=1;labelBackgroundColor=#ffffff;fillColor=#FF0000;arcSize=26;" vertex="1" parent="7-BUgE6l9A-gtYwP11fS-1">
          <mxGeometry x="570" y="1020" width="350" height="250" as="geometry" />
        </mxCell>
        <mxCell id="jQw76j21SIlAW2s81NRD-40" value="" style="triangle;whiteSpace=wrap;html=1;fontSize=22;rotation=-180;" vertex="1" parent="7-BUgE6l9A-gtYwP11fS-1">
          <mxGeometry x="220.00465057081857" y="1139.9963342318058" width="16.956988392648142" height="29.919137466307276" as="geometry" />
        </mxCell>
        <mxCell id="jQw76j21SIlAW2s81NRD-41" value="" style="triangle;whiteSpace=wrap;html=1;fontSize=22;" vertex="1" parent="7-BUgE6l9A-gtYwP11fS-1">
          <mxGeometry x="903.0388642712663" y="1130.036334231806" width="16.956988392648142" height="29.919137466307276" as="geometry" />
        </mxCell>
        <mxCell id="jQw76j21SIlAW2s81NRD-42" value="" style="ellipse;whiteSpace=wrap;html=1;fontSize=22;" vertex="1" parent="7-BUgE6l9A-gtYwP11fS-1">
          <mxGeometry x="590" y="465.4191666666666" width="6.416666666666666" height="9.895833333333334" as="geometry" />
        </mxCell>
        <mxCell id="jQw76j21SIlAW2s81NRD-43" value="" style="ellipse;whiteSpace=wrap;html=1;fontSize=22;" vertex="1" parent="7-BUgE6l9A-gtYwP11fS-1">
          <mxGeometry x="602.8333333333333" y="465.4191666666666" width="6.416666666666666" height="9.895833333333334" as="geometry" />
        </mxCell>
        <mxCell id="jQw76j21SIlAW2s81NRD-44" value="" style="ellipse;whiteSpace=wrap;html=1;fontSize=22;" vertex="1" parent="7-BUgE6l9A-gtYwP11fS-1">
          <mxGeometry x="615.8720000000001" y="465.4191666666666" width="6.416666666666666" height="9.895833333333334" as="geometry" />
        </mxCell>
        <mxCell id="jQw76j21SIlAW2s81NRD-45" value="" style="shape=image;verticalLabelPosition=bottom;labelBackgroundColor=#ffffff;verticalAlign=top;aspect=fixed;imageAspect=0;image=data:image/png,iVBORw0KGgoAAAANSUhEUgAAAS0AAACnCAMAAABzYfrWAAAAilBMVEX///8AAADm5ubl5eXk5OTj4+P09PTx8fH4+Pju7u719fX7+/vq6uq8vLy2traUlJR4eHjc3NzT09PFxcVCQkJqamqAgICwsLCWlpbAwMBxcXGenp4YGBiIiIhXV1cjIyM1NTVgYGDNzc2lpaVJSUk7OzsgICASEhItLS1OTk6NjY0UFBRcXFxtbW0d8LUhAAASXklEQVR4nO1da3vjqA6mtgPGJmkubdNOt93pZWZnenb//987xtiYi7jYxknaZ/hSnsay4DUIISSBEC9FlmWMV8o8y3LKa5jXMK9RXit5jTWPFZIg45W66Akq/hjhNQIQ8OdzgBeRvKqeV1HbvFqCOtd4YRevXG2cyYsAvDKbFwwE+oPWH7SWRisXDxUwWl0P8mi0ilIn0NBSeI1Cq4DRMnlJtBRe8Wj5gECyL+IhXhMP8Zp4iNfk58t0gloSVLwmGiQJWlLZoEwSDLyI5FXpBACvUueFdV7MwYvqvMhYXioQqGiKwGzV1MSTTW0lXs1roi3Njyvx5WRNIyjEqzmBaAt/TDReIxDdkAQVJ8AuXrxxhbdxXl7MxaslMHitYoAYPoRXAunDFpJAw7CV4zwfO6cgCeSUdtCcipR2kaK4tIC4eLQygNc50crNh4rMktcKWnlAJBZmDzQC88sUXnmdZ7lzbSAAL6BxEC8K8AIaZwPBeKmbUvIK5bWK1wivEV6reI3yWslrkqAGCDCvYUlaSlKdYOBlELh4xTbOxSuycSFeLayQSMS6SBSjJCSvC/EhABnqkNeCYMbaMEJeK40bszaoQKB+FP7RTiOA+IPWBLTyvJehTU081NSK7qGm1snrptYSrJpa16CeoOIEXYOaWqkT5LKm8yKSV+XiJQkMXtjFiz+Wu3gRgFezlOQrFy8VCFTyQnnhlYpXCK9hXsO8Rnit0h5zEhCdgNgE6XiFCUpJMJCSObz4R+9laFMTC+dKjpIG116G9vDn8kPwx5gkGD5EJ0Obx2qddGXzqlbN3qAlaBcgpBMU6mBWeJmjRPLKCqtxCq9hlAD9WskR6eB1Abp88zUrsns9PByv7++vH9eHV4qaj8gEh0vUTs+IVvnwdPvXlVluP9bZZaKV2/K6LLTBbsjQTBP1UoZaM1GT18Ng7xvESHW4+2UBJcv3uwPvizI7FF4R8nqlymtoJg79GmZ9EAjCS9UUrNcwrxFXDSDwk1Z6rSTrWzdScoxtaInn8krSr+4xZHwIXV4PItE5SnQZao5IbW3oRyQj+6cwVKI8Fe14gXhhF68CkNfQiBzWBmBEgkAgOWdPpZ0ycniOxYqX5wNhF6adnhCt9c0YrHi5ecAXhZZLXg8iMdVM3P0eixUvv/cAL3Mm5klnIgiEkPKYF72G9ZrrMScp9GNV3U3Bipe7RpUexWt042KAGKNBCPhjNQhgRG6mYsXLBp9Ig3BqK6fVTiN0Bl+5hTTGr6rL7+Zh1ZS/92dHK7fltT4AE+2qH2eD1ZRjcFdtNy7ZrprPRN084TeKAAYYp8VGJ0WTxbtetsjfuGpK4/wmHs1iI0ZhWmugvbscrWO5yjvSR8kIa2DM2hCyBuqTfCHt9HsqsK6uftbo3NrpwmglBKuR9fW50QJEIm5qK3NXHbCCgmtDVkeA9fPH7d3Hx9PdzT8RcJWCl1teF3nht4KOsbiqQCDgRDTygBMigA44f/g7//1js+NtLrnWzJt5+AjA+04MXtNOX4GT3hAQk072czlsrZP9wjpt9xocbjerkrJK50Wq1dFL9YIkwdiT/UIKF+tkP48AYmnt9MPd6b8eSetiZUmgPGMYv/10Uz5Jgq+ly7u3hr/Weg9seb3+20m8PhNaurdbd0KWytsNrZz9PZKWg+LtBng0vDnJs/N4u7UvzPqzvJLXOu9GxjoHwuZfnbMir4lW9QQtaefd2JNykSicFbFLXt/VGi9JoPNqOLj2AL8ww5JXKUnHNG4gaPsFAEF1IIg47lzMS9fV11fJy+0H0fHau/Amo7x0NXk900t3Ie3U0dNnakgFr9dI7VgeXyuN1+fX5e1zVV4+COBjk5uLycCLwAdEf6FzoaWJxJXp5LWK9nbTRSJspHnElgwtWdVoXW0X+V9TXmNY2F/LxgHy2u8JLb5MaG2wgVjwrBpeDzc9rw7jjJa745M82/i5vd9jwhRbGv+gsB6yyyyr9tJn1ZP0Lf+wFT0goGH5SHReaA+ory/HSvyY97rdEXrXlkyN4Lg87RS0LN8TndfaqWJQDS1Y89qxT6HL+5fbtgf1CzQaam3vdnAr6w1eWEWLbMHBNWNsAR7gY9DiTTPRyiRaWdYdSgxjK1fHVmboApDUuiHK96ZZ6ID/bQjAqfPqHRpcQ8TOcGJiNG7ol7K6ZerYMnzFBoKhX8NKikJLQbwH+LDsUEgxrVReDwGsmvKDKrwo8MDdqddEfdgm07egvh1VXnHHGgelcdDCWH8J7ZQBUvm5VHj9FwVWi7Bs3Avwc3UetEbvE8GInd4DvAS8/lZDxE75Tfn/+93jZr/brZptbHF8/GaYWt+GxjH7nTfllH1ihA3RsU8czLIoFBSDpB23sxBIsywyzbKA+vCEWwLOq5Sq2Pv9DrcKPBMGVEyriu7v1QO1I+l5IWALtPM1roYbJ4zMSBqZIQIYCJd9yx2xE2Xfurf7VQ9rQ9frH2+U204t+xaleHc/KGL7gZf91vuWYEH7lg7EMtqpPRGvBwKxGr68Sl62pblZwfcvPSmRpNfWa38YsuIStdMQWoCEwZIAt1jtMHGi1fVg1+H1LEmJ/V56UrQcu2opr9Vdtdy4QhE76q7aXuy3A0GzHN68Yrk2+M7oX8UY3Uhe36wXb5B5Rh8RHUQd/gBBIACPCShixxVFAwbFIHub8lr3HPZ8nYuL2KlpN/eq7n/1q/Xibyh1OBFE2hG0sIJHtJAHeORZdWWfOLeva0l/fd9R4/wYe86PC35Qdk0Fr6Kyp2JVmGfVnFXCs+qlPcBt/eGO9tLu8IKZmdHCH59420knLoGIvQX47Lo8tufLQe5e15XdAz9apJmNjx1abG29+oGd1QPc779lRezY/luVrW05La7eaM6OF9lc/d3xyuzV9o0l9N9a2WuD5r/VBsVQGdmi1agMgFFqOoFB2j5WWjr3e00cBDKexuSg8KL1w9W+bAmorclty9jGxfDyAxH2O4XiBPx+p7Yn4JYaI9IRJwDIazFeNlva8bIE10soTmCG3+kpPMDtk7E3phOMzzVy7Elt48Yn1+VrS4FYGyGZ49FirCO1V5CL8gA3T5Jyh7yWMzErrA7th5DMmNg5OGJH8LK1k9BMjDwhk43zzUScvFR2hxK+3d4q0oRvDxTkGyUTY8hstGrniDQ1iOA5agkM3PCITBVDJt6fVDu10SrT5RqprZfvsk+ty1to/ZMwM8sFoDVlVz1jJpo7XSg6KHPMegCtPGlctXdX3RolOp25q2FZE0ExslbpNYAAdzYZoxCDg0GKXbyozcu2Nu/KEY3z8woBMcfHpoDXhsxGi/qjgwANYsgVZOz47INKGrvjO5ePjVc7zexD/f1s7VSSgvrWp9bl/2d2aL4uL0nPrsuPzJFkGxr1XfXKuU90WVzDu+qBl+3JFW0FDUQHBS2uXTSnsETXISN2rRjMewJha681az6yInu2SCfw8yo1XjoBtmwQz6W/cQYvGc1ZkziCBNGcgEis5AFJafXodyt+nfnWRuR2Ky2Xry11nt6Aud1y2BroPClaOpqzsg9Jk2mntu308eSW5sR2eds165WlQYsdrFefwS6fKN/pynXm80TT5DsFnOiyfJxHw9joIC3fqdNbpqkhwyHF5cFSSgLhkILs80RJAPHC0bwAvxHk9pYxeGGdV6xnjtK4CdGc6rB1eOnaZ9V7jSA6T7M6fzkpdFYd8MQa4aV7pmhOWynaagSTM6bbPvhH9Ml1edDHppyKlqrL26bA1l3pXNGcTgfgoLeb4gDcyFDbEf4RJbi7wD7W/d52frS3m8MTOiqac44GwT+/NSIpEI5CIS97SINw5/0EhuwHVRvn9Xy3NIgsU0IAJulbfi/dOH2L5AyITPwgZl79sfoWFNG+yyRaOahvjb5zxQfE7LEFopXXQMA9ywBeY9ACPAN/VJnduLPr8iPHFugv/281c2z9a7/zTfGXP93YSrSrlhnTgf1cF5o4fVdtOyO1sRi2xXWSj03crnqZNREBCmozF/Ppa2KeAS/c0rj7IVap1sRF9C0EBk5c3ZTTtVMCxZDts88QnxiBFpi/5g67dyN+7RQMRX+Jik9cGq3Z+0ROCqY3OBLoy0TsE8HY170V+zpvn2ihZQHBgMQcTE3MwbyJOcRbtawhIgkIrcC46nUlCQZeMmsIK21eTeNqZJu1mnKL1caVWuMQlDVE4xWToQQAAiW3b4mgGEA9asoDGW/fonDkJ+0JRsvrS7zPB04mdSRjtVPiyQfxJaI5BQHYyasPPA6tCkb9FzobWknPfKTGaNvu2nLL5Ll5j5ZPO3UFqx80Xqc58xGZ8ijtM+U1tS6Isal1QYxNrUuy19REkr323E0jxZJUEoAqalN+viIfr1Lyal6xd6d4O6DoxlV24xQC/jyLAWKJs2rFy8/V1TvCYs6qGRCpopQ1HRWxk+CseinttJV27txu/2zC8YnhFOsP9AK002Ro1XACmrb8eAihdQgnSm3fcf5oztH+W1o0JxpkqEN08fLrjfcF8t/KmnXgDc7eZZSDyivef8u3NviAkM4WoxNmx2UO9+c7/fZAywrjslLdOZr6OjZfRAPXpGzedFLmcNR/iIR+p7q8JoH838/3B0aISI6HKkJ2m+tRN9g0oj7C73R6VvrT3ueTORdGpXy//e/u6enu9jaQphiG62vo8h0BjUhVPae0aWY/x30+kKXZ9IENTca55UFvnDYTZ9/1ps1EETyzxOU3w48lGSWJJsBVT29cfL+mRnN6Y8isW0QaBnjm7TShsqGniSFbWDtF/SGyO+VyIri+gi4/NMiVQjgVXOgUaE2aiePu8+kIYNNzstKujDPjqoMzUQatL37zJS6h89OEcNWBxs3vF9I/xAIahBqxgz27xvllQ00NYsRZ9dmiOX23Te4nKOtXVzd7d1p/DS7xZT61Lq+ihdDac5EwXL6vK+a5BUGF6yRoJc6RBFlcB4tPtRml2t80WHFediYAoLSiPrirnp4jaYzFJlGKqxrt7axjjvJtX3cBODjqSsF1lSb/lsNi47cG6laz6NxuKHBS1HyjY8QFsM9HSpiU11CiS7uooj6FNTA/gy5vaoxFxkq23vqME9sDHvI0t24NJI+Dy+D1KXV5Ay1BsHp4+m2Zv36+f2zaaATLXz5K1B8NXinRKnqPhqT5TqO9J2qGyWq32zw+3l835XGzW1UlZqzrgRkdBLm82aNLa1zSfKdDLl15Y5nz/jX9TjTn1W2uO9GM69QGgjbtVYssF8m++9fgHP8WXHh24xy5dPtRmDRPM+CJlWd6xI7qHcV5mbmTdV5y/rK4yUidvEbf9XZe7XS6B3grgUjcZKR94z65Lj8TLYqiVsbdgmgl9nZzeCdDntAjozlbXjGj68bFa563Wya/HK+JfvOaeDWvyaCYTH6ITI6XzlmxJ8A6wXBM1hLkDl5Y8iodvAaChleUqF8ztXFUNs7gxeze+ICYpG9FeOmOvgclKppT8IoR9e9lPt9L98K007HRnB2vCvLGN8ru6+nyE9EiYPCCXjZs8WhOqcunuZszJK/HRnMqjQvCdc0Wuptz5h13q4Rr4iqAseQVlF3XoX5f0H0+C+pbHS8WMA/e/9FOVV6lfzJulkRrkXtfBwINLWif6EXLoQt44VrBvBLc+6rrmYYqB+mZYVXO0DOH+9dUPTNKpwUa1+u0Hrh+OnhBCreXlwpEsmjOU6+JLYFH1N+zJe6rvnh9yxm7zgmYc89IHdLui2unXrTyGrpM74pbuJZCa2TWnzwgEv12PciG6N4n8quZAV6qXQ+E6xZcG4rMv08MA5HWZhy2T1Odl0Hg4gU1DgsC8Oo7FGE8r+zGhYBoYU1m33KffTjkdZ95ePLa0BDYaupvlvnPIy4xmnNh7VTOX2Z4ht1X2aJ+EJ8brWYxeR1cd74xmi2M1thoTr//FnBunjv8Aby5RiLO6CWv3fXLr79vtpvK6b+lnNE7/bdC0ZwzXSycviZDFI3LJ2MuLyN1bdVA0PQ9MmJnGi/Q7zToWzTO79TrxzSMEoBXoQ7mqIgdbzRn0O/0vNGcy2unXyua84uhNSOaMxiLEevba0VzqrM+XcROgmz8wtMZ497nua9hXiOuGkAQIMUe0iABHsVrNIG3cSopMj6E3+8UGCWOaE5vdJDpuz/mFhH3iNTWhum3iPiAEGh9cu30S0VzfjW0grEYaWei/2atqTMxTzoT4VgMKeaShz4uSHBKXioQYzQIAf+X1yCQB4g/2umX0uWda8N5dXlHNOefXbXSuK9isRnVuKm8/g97YKOQxfk+ZQAAAABJRU5ErkJggg==;" vertex="1" parent="7-BUgE6l9A-gtYwP11fS-1">
          <mxGeometry x="774.69" y="135.96999999999997" width="71" height="39.39" as="geometry" />
        </mxCell>
        <mxCell id="H6nFmAtNTzrr14siH9rD-3" value="" style="image;html=1;image=img/lib/clip_art/telecommunication/iPhone_128x128.png" vertex="1" parent="7-BUgE6l9A-gtYwP11fS-1">
          <mxGeometry x="214.47721763608192" y="79.98" width="17.356169149508176" height="30" as="geometry" />
        </mxCell>
        <mxCell id="H6nFmAtNTzrr14siH9rD-5" value="&lt;font style=&quot;font-size: 18px&quot;&gt;Contactanos: 123456789&lt;/font&gt;" style="text;html=1;strokeColor=none;fillColor=none;align=center;verticalAlign=middle;whiteSpace=wrap;rounded=0;" vertex="1" parent="7-BUgE6l9A-gtYwP11fS-1">
          <mxGeometry x="245.14999999999998" y="84.97999999999999" width="214.71" height="20" as="geometry" />
        </mxCell>
      </root>
    </mxGraphModel>
  </diagram>
</mxfile>
